<svg width="25" height="25" viewBox="0 0 25 25" fill="none" xmlns="http://www.w3.org/2000/svg">
<path d="M12.2 4.53871C13.7307 4.53898 15.2246 5.00759 16.4812 5.88163C17.7379 6.75567 18.6969 7.99328 19.2297 9.42827C19.7625 10.8632 19.8434 12.4269 19.4617 13.9092C19.0799 15.3915 18.2537 16.7216 17.0941 17.7207C15.9344 18.7198 14.4969 19.3402 12.9744 19.4985C11.4519 19.6568 9.91741 19.3455 8.57701 18.6063C7.23661 17.8672 6.15447 16.7356 5.4759 15.3635C4.79733 13.9915 4.55483 12.4446 4.78097 10.9307C4.84797 10.4767 4.51597 10.0387 4.05697 10.0387C3.87783 10.0354 3.70345 10.0965 3.56548 10.2108C3.4275 10.3251 3.33508 10.4851 3.30497 10.6617C2.98031 12.7567 3.40565 14.8991 4.50602 16.7112C5.60639 18.5233 7.31113 19.8888 9.31977 20.567C11.3284 21.2452 13.512 21.1926 15.4856 20.4183C17.4592 19.6441 19.0961 18.198 20.1079 16.335C21.1196 14.4719 21.4411 12.3115 21.0159 10.2346C20.5906 8.15762 19.4458 6.29747 17.7832 4.98202C16.1206 3.66656 14.0471 2.98023 11.928 3.04403C9.80892 3.10782 7.78039 3.91763 6.19997 5.33071V4.28871C6.19997 4.0898 6.12095 3.89903 5.9803 3.75838C5.83964 3.61773 5.64888 3.53871 5.44997 3.53871C5.25105 3.53871 5.06029 3.61773 4.91964 3.75838C4.77898 3.89903 4.69997 4.0898 4.69997 4.28871V7.28871C4.69997 7.70271 5.03597 8.03871 5.44997 8.03871H8.44997C8.64888 8.03871 8.83964 7.95969 8.9803 7.81904C9.12095 7.67839 9.19997 7.48762 9.19997 7.28871C9.19997 7.0898 9.12095 6.89903 8.9803 6.75838C8.83964 6.61773 8.64888 6.53871 8.44997 6.53871H7.09997C8.48552 5.25052 10.3081 4.53578 12.2 4.53871ZM12.7 7.78871C12.7 7.5898 12.6209 7.39903 12.4803 7.25838C12.3396 7.11773 12.1489 7.03871 11.95 7.03871C11.7511 7.03871 11.5603 7.11773 11.4196 7.25838C11.279 7.39903 11.2 7.5898 11.2 7.78871V12.2887C11.2 12.7027 11.536 13.0387 11.95 13.0387H14.95C15.1489 13.0387 15.3396 12.9597 15.4803 12.819C15.6209 12.6784 15.7 12.4876 15.7 12.2887C15.7 12.0898 15.6209 11.899 15.4803 11.7584C15.3396 11.6177 15.1489 11.5387 14.95 11.5387H12.7V7.78871Z" fill="#007CFF"/>
</svg>
