<svg width="428" height="512" viewBox="0 0 428 512" fill="none" xmlns="http://www.w3.org/2000/svg">
<path d="M320.667 170.667H107.333V149.333C107.327 125.683 115.18 102.702 129.659 84.0016C144.138 65.3015 164.421 51.9436 187.319 46.0279C210.217 40.1122 234.432 41.9742 256.157 51.3213C277.881 60.6683 295.884 76.9702 307.333 97.664C308.693 100.114 310.523 102.272 312.717 104.015C314.911 105.758 317.427 107.052 320.121 107.822C322.815 108.593 325.635 108.825 328.419 108.506C331.203 108.187 333.897 107.323 336.347 105.963C338.796 104.603 340.954 102.773 342.697 100.579C344.44 98.3848 345.734 95.8688 346.505 93.1747C347.275 90.4806 347.508 87.661 347.189 84.8771C346.87 82.0931 346.005 79.3993 344.645 76.9493C328.609 47.9854 303.402 25.1716 272.987 12.0941C242.572 -0.983309 208.674 -3.58294 176.621 4.7039C144.568 12.9907 116.177 31.6942 95.9119 57.8742C75.6465 84.0541 64.6555 116.226 64.6665 149.333V179.712C45.6662 188.004 29.4941 201.654 18.1278 218.991C6.76155 236.329 0.693776 256.602 0.666504 277.333V405.333C0.700378 433.613 11.9493 460.724 31.9459 480.721C51.9424 500.717 79.0538 511.966 107.333 512H320.667C348.946 511.966 376.057 500.717 396.054 480.721C416.05 460.724 427.299 433.613 427.333 405.333V277.333C427.299 249.054 416.05 221.943 396.054 201.946C376.057 181.949 348.946 170.701 320.667 170.667ZM384.667 405.333C384.667 422.307 377.924 438.586 365.921 450.588C353.919 462.59 337.64 469.333 320.667 469.333H107.333C90.3593 469.333 74.0807 462.59 62.0783 450.588C50.076 438.586 43.3332 422.307 43.3332 405.333V277.333C43.3332 260.359 50.076 244.081 62.0783 232.078C74.0807 220.076 90.3593 213.333 107.333 213.333H320.667C337.64 213.333 353.919 220.076 365.921 232.078C377.924 244.081 384.667 260.359 384.667 277.333V405.333Z" fill="#CACDD2"/>
</svg>
