<svg width="428" height="512" viewBox="0 0 428 512" fill="none" xmlns="http://www.w3.org/2000/svg">
<path d="M363.333 179.712V149.333C363.333 109.728 347.6 71.7442 319.594 43.7387C291.589 15.7333 253.606 0 214 0C174.394 0 136.411 15.7333 108.405 43.7387C80.3998 71.7442 64.6665 109.728 64.6665 149.333V179.712C45.6662 188.004 29.4941 201.654 18.1278 218.991C6.76155 236.329 0.693776 256.602 0.666504 277.333V405.333C0.700378 433.613 11.9493 460.724 31.9459 480.721C51.9424 500.717 79.0538 511.966 107.333 512H320.667C348.946 511.966 376.057 500.717 396.054 480.721C416.05 460.724 427.299 433.613 427.333 405.333V277.333C427.306 256.602 421.238 236.329 409.872 218.991C398.506 201.654 382.333 188.004 363.333 179.712ZM107.333 149.333C107.333 121.044 118.571 93.9125 138.575 73.9086C158.579 53.9047 185.71 42.6667 214 42.6667C242.29 42.6667 269.421 53.9047 289.425 73.9086C309.428 93.9125 320.667 121.044 320.667 149.333V170.667H107.333V149.333ZM384.667 405.333C384.667 422.307 377.924 438.586 365.921 450.588C353.919 462.591 337.64 469.333 320.667 469.333H107.333C90.3593 469.333 74.0807 462.591 62.0783 450.588C50.076 438.586 43.3332 422.307 43.3332 405.333V277.333C43.3332 260.359 50.076 244.081 62.0783 232.078C74.0807 220.076 90.3593 213.333 107.333 213.333H320.667C337.64 213.333 353.919 220.076 365.921 232.078C377.924 244.081 384.667 260.359 384.667 277.333V405.333Z" fill="#CACDD2"/>
</svg>
