<svg width="18" height="19" viewBox="0 0 18 19" fill="none" xmlns="http://www.w3.org/2000/svg">
<path fill-rule="evenodd" clip-rule="evenodd" d="M8.24094 15.3609L6.05533 11.9816L2.6762 9.79578C2.27268 9.53513 1.95025 9.16665 1.74544 8.73211C1.54062 8.29757 1.46162 7.81433 1.51739 7.33718C1.57315 6.86003 1.76145 6.40804 2.06094 6.03245C2.36044 5.65685 2.75915 5.37266 3.21189 5.2121L13.1468 1.68058C13.5944 1.52191 14.0777 1.49329 14.5409 1.59803C15.004 1.70276 15.4281 1.93656 15.7638 2.27236C16.0996 2.60816 16.3334 3.03221 16.4381 3.4954C16.5428 3.9586 16.5142 4.44199 16.3556 4.88959L14.8417 4.35172C14.8998 4.19026 14.9108 4.01559 14.8734 3.84812C14.836 3.68065 14.7517 3.52729 14.6303 3.40595C14.509 3.28461 14.3556 3.20029 14.1882 3.16286C14.0207 3.12543 13.8461 3.13642 13.6846 3.19454L3.75186 6.72713C3.58198 6.78708 3.43228 6.89341 3.31975 7.03409C3.20721 7.17477 3.13633 7.34416 3.11513 7.52307C3.09394 7.70198 3.12329 7.88324 3.19985 8.04632C3.27641 8.2094 3.39712 8.34777 3.5483 8.44575L6.52673 10.3733L10.0398 6.85892C10.1139 6.78221 10.2026 6.72103 10.3007 6.67896C10.3987 6.63689 10.5042 6.61478 10.6109 6.6139C10.7176 6.61302 10.8234 6.6334 10.9221 6.67386C11.0208 6.71431 11.1105 6.77402 11.1859 6.84951C11.2614 6.92499 11.321 7.01474 11.3613 7.11352C11.4017 7.2123 11.422 7.31812 11.421 7.42482C11.42 7.53152 11.3978 7.63696 11.3556 7.73498C11.3135 7.833 11.2522 7.92164 11.1754 7.99574L7.6624 11.5101L9.58981 14.4877C9.68761 14.6389 9.82581 14.7598 9.98875 14.8365C10.1517 14.9132 10.3329 14.9427 10.5117 14.9218C10.6906 14.9008 10.86 14.8302 11.0008 14.7178C11.1416 14.6055 11.2481 14.456 11.3083 14.2863L14.8406 4.35172L16.3545 4.88959L12.8232 14.8252C12.6625 15.2777 12.3784 15.6762 12.0029 15.9755C11.6274 16.2748 11.1757 16.463 10.6987 16.5187C10.2218 16.5745 9.73883 16.4956 9.30445 16.291C8.87007 16.0863 8.50166 15.7642 8.24094 15.3609Z" fill="#CACDD2"/>
</svg>
