<svg width="18" height="18" viewBox="0 0 18 18" fill="none" xmlns="http://www.w3.org/2000/svg">
<path fill-rule="evenodd" clip-rule="evenodd" d="M8.50043 7.28188C9.0309 7.28188 9.53964 7.06037 9.91473 6.66607C10.2898 6.27178 10.5006 5.737 10.5006 5.17938C10.5006 4.62176 10.2898 4.08698 9.91473 3.69269C9.53964 3.29839 9.0309 3.07688 8.50043 3.07688C7.96997 3.07688 7.46123 3.29839 7.08613 3.69269C6.71104 4.08698 6.50031 4.62176 6.50031 5.17938C6.50031 5.737 6.71104 6.27178 7.08613 6.66607C7.46123 7.06037 7.96997 7.28188 8.50043 7.28188ZM8.50043 8.85876C9.42875 8.85876 10.319 8.47111 10.9755 7.78109C11.6319 7.09108 12.0006 6.15521 12.0006 5.17938C12.0006 4.20355 11.6319 3.26768 10.9755 2.57767C10.319 1.88765 9.42875 1.5 8.50043 1.5C7.57212 1.5 6.68182 1.88765 6.02541 2.57767C5.36899 3.26768 5.00022 4.20355 5.00022 5.17938C5.00022 6.15521 5.36899 7.09108 6.02541 7.78109C6.68182 8.47111 7.57212 8.85876 8.50043 8.85876ZM9.50049 10.1465C9.50327 9.9523 9.43389 9.76457 9.3071 9.62323C9.18031 9.4819 9.00608 9.3981 8.82145 9.38964C8.71448 9.38626 8.60746 9.38451 8.50043 9.38439C4.65019 9.38439 1.5 11.4869 1.5 13.5894C1.5 14.2864 1.76341 14.9549 2.23228 15.4478C2.70115 15.9406 3.33707 16.2175 4.00015 16.2175H7.25036C7.44928 16.2175 7.64006 16.1345 7.78072 15.9866C7.92138 15.8387 8.0004 15.6382 8.0004 15.4291C8.0004 15.22 7.92138 15.0194 7.78072 14.8716C7.64006 14.7237 7.44928 14.6406 7.25036 14.6406H4.00015C3.73492 14.6406 3.48055 14.5299 3.293 14.3327C3.10546 14.1356 3.00009 13.8682 3.00009 13.5894C3.00009 13.3749 3.22011 12.7389 4.32017 12.0556C5.33824 11.4238 6.82033 10.9613 8.50043 10.9613C8.55844 10.9613 8.61744 10.9613 8.67544 10.9634C9.11747 10.9718 9.50049 10.6112 9.50049 10.1465ZM13.5007 13.5894C13.1029 13.5894 12.7213 13.4233 12.44 13.1275C12.1587 12.8318 12.0006 12.4307 12.0006 12.0125C12.0006 11.5943 12.1587 11.1932 12.44 10.8975C12.7213 10.6018 13.1029 10.4356 13.5007 10.4356C13.8986 10.4356 14.2801 10.6018 14.5615 10.8975C14.8428 11.1932 15.0008 11.5943 15.0008 12.0125C15.0008 12.4307 14.8428 12.8318 14.5615 13.1275C14.2801 13.4233 13.8986 13.5894 13.5007 13.5894ZM13.5007 15.1663C12.9647 15.1673 12.4382 15.0166 11.9766 14.73L10.5306 16.2491C10.4619 16.3265 10.3791 16.3887 10.2871 16.4317C10.1951 16.4748 10.0958 16.498 9.99505 16.4999C9.89434 16.5017 9.7943 16.4823 9.70091 16.4426C9.60751 16.403 9.52268 16.3439 9.45145 16.2691C9.38023 16.1942 9.32408 16.105 9.28636 16.0068C9.24863 15.9087 9.23011 15.8035 9.23189 15.6977C9.23366 15.5918 9.25571 15.4874 9.2967 15.3907C9.33769 15.294 9.3968 15.2069 9.47049 15.1347L10.9156 13.6146C10.5795 13.0156 10.4412 12.3166 10.5222 11.6263C10.6032 10.9361 10.899 10.2934 11.3635 9.79819C11.828 9.30299 12.4352 8.98307 13.0907 8.88823C13.7461 8.79338 14.4129 8.92892 14.9875 9.27377C15.562 9.61861 16.012 10.1534 16.2674 10.7949C16.5228 11.4365 16.5693 12.1488 16.3997 12.821C16.2301 13.4932 15.8539 14.0877 15.3296 14.5118C14.8053 14.936 14.1623 15.1661 13.5007 15.1663Z" fill="#CACDD2"/>
</svg>
