<svg width="18" height="18" viewBox="0 0 18 18" fill="none" xmlns="http://www.w3.org/2000/svg">
<path fill-rule="evenodd" clip-rule="evenodd" d="M5.25 9C5.05109 9 4.86032 9.07902 4.71967 9.21967C4.57902 9.36032 4.5 9.55109 4.5 9.75V14.25C4.5 14.4489 4.57902 14.6397 4.71967 14.7803C4.86032 14.921 5.05109 15 5.25 15H12.75C12.9489 15 13.1397 14.921 13.2803 14.7803C13.421 14.6397 13.5 14.4489 13.5 14.25V9.75C13.5 9.55109 13.421 9.36032 13.2803 9.21967C13.1397 9.07902 12.9489 9 12.75 9H5.25ZM3.65901 8.15901C4.08097 7.73705 4.65326 7.5 5.25 7.5H12.75C13.3467 7.5 13.919 7.73705 14.341 8.15901C14.7629 8.58097 15 9.15326 15 9.75V14.25C15 14.8467 14.7629 15.419 14.341 15.841C13.919 16.2629 13.3467 16.5 12.75 16.5H5.25C4.65326 16.5 4.08097 16.2629 3.65901 15.841C3.23705 15.419 3 14.8467 3 14.25V9.75C3 9.15326 3.23705 8.58097 3.65901 8.15901Z" fill="#CACDD2"/>
<path fill-rule="evenodd" clip-rule="evenodd" d="M9 3C8.40326 3 7.83097 3.23705 7.40901 3.65901C6.98705 4.08097 6.75 4.65326 6.75 5.25V8.25C6.75 8.66421 6.41421 9 6 9C5.58579 9 5.25 8.66421 5.25 8.25V5.25C5.25 4.25544 5.64509 3.30161 6.34835 2.59835C7.05161 1.89509 8.00544 1.5 9 1.5C9.99456 1.5 10.9484 1.89509 11.6517 2.59835C12.3549 3.30161 12.75 4.25544 12.75 5.25V8.25C12.75 8.66421 12.4142 9 12 9C11.5858 9 11.25 8.66421 11.25 8.25V5.25C11.25 4.65326 11.0129 4.08097 10.591 3.65901C10.169 3.23705 9.59674 3 9 3ZM7.93934 10.9393C8.22064 10.658 8.60217 10.5 9 10.5C9.39783 10.5 9.77936 10.658 10.0607 10.9393C10.342 11.2206 10.5 11.6022 10.5 12C10.5 12.3978 10.342 12.7794 10.0607 13.0607C9.77935 13.342 9.39782 13.5 9 13.5C8.60218 13.5 8.22065 13.342 7.93934 13.0607C7.65804 12.7794 7.5 12.3978 7.5 12C7.5 11.6022 7.65804 11.2206 7.93934 10.9393Z" fill="#CACDD2"/>
</svg>
