<svg width="342" height="512" viewBox="0 0 342 512" fill="none" xmlns="http://www.w3.org/2000/svg">
<path d="M235 512H107C48.1842 512 0.333496 464.149 0.333496 405.333V106.667C0.333496 47.8507 48.1842 0 107 0H235C293.816 0 341.667 47.8507 341.667 106.667V405.333C341.667 464.149 293.816 512 235 512ZM107 42.6667C71.7148 42.6667 43.0002 71.3813 43.0002 106.667V405.333C43.0002 440.619 71.7148 469.333 107 469.333H235C270.286 469.333 299 440.619 299 405.333V106.667C299 71.3813 270.286 42.6667 235 42.6667H107ZM213.667 405.333C213.667 393.557 204.11 384 192.334 384H149.667C137.891 384 128.333 393.557 128.333 405.333C128.333 417.109 137.891 426.667 149.667 426.667H192.334C204.11 426.667 213.667 417.109 213.667 405.333Z" fill="#CACDD2"/>
</svg>
