<svg width="19" height="18" viewBox="0 0 19 18" fill="none" xmlns="http://www.w3.org/2000/svg">
<path fill-rule="evenodd" clip-rule="evenodd" d="M2.57003 5.55166C2.77129 5.3585 3.04411 5.25 3.32857 5.25C3.61302 5.25 3.88585 5.3585 4.08711 5.55166L9.76902 11.0116L15.4509 5.55166C15.6544 5.36946 15.9235 5.27027 16.2016 5.27498C16.4797 5.2797 16.745 5.38795 16.9417 5.57693C17.1384 5.76592 17.251 6.02088 17.2559 6.2881C17.2608 6.55533 17.1576 6.81395 16.968 7.00948L10.5276 13.1983C10.3263 13.3915 10.0535 13.5 9.76902 13.5C9.48456 13.5 9.21174 13.3915 9.01048 13.1983L2.57003 7.00948C2.36901 6.81608 2.2561 6.55391 2.2561 6.28057C2.2561 6.00723 2.36901 5.74506 2.57003 5.55166Z" fill="#26282B"/>
</svg>
