<svg width="16" height="17" viewBox="0 0 16 17" fill="none" xmlns="http://www.w3.org/2000/svg">
<path fill-rule="evenodd" clip-rule="evenodd" d="M4.93489 14.4372C4.76319 14.2583 4.66675 14.0158 4.66675 13.7629C4.66675 13.5101 4.76319 13.2676 4.93489 13.0887L9.78818 8.03808L4.93489 2.9875C4.77293 2.80662 4.68476 2.56739 4.68895 2.32021C4.69315 2.07302 4.78937 1.83717 4.95736 1.66236C5.12534 1.48754 5.35197 1.38741 5.58951 1.38305C5.82704 1.37868 6.05692 1.47044 6.23073 1.63898L11.7319 7.36382C11.9036 7.54273 12.0001 7.78523 12.0001 8.03808C12.0001 8.29093 11.9036 8.53344 11.7319 8.71234L6.23073 14.4372C6.05882 14.6159 5.82578 14.7162 5.58281 14.7162C5.33984 14.7162 5.1068 14.6159 4.93489 14.4372Z" fill="#9FA4A9"/>
</svg>
