<svg width="19" height="19" viewBox="0 0 19 19" fill="none" xmlns="http://www.w3.org/2000/svg">
<g id="icons/gravity-ui:chevron-right">
<path id="Vector" fill-rule="evenodd" clip-rule="evenodd" d="M2.6108 6.10097C2.81206 5.90781 3.08489 5.79932 3.36934 5.79932C3.65379 5.79932 3.92662 5.90781 4.12788 6.10097L9.80979 11.5609L15.4917 6.10097C15.6952 5.91877 15.9643 5.81958 16.2424 5.8243C16.5205 5.82901 16.7858 5.93727 16.9825 6.12625C17.1791 6.31524 17.2918 6.5702 17.2967 6.83742C17.3016 7.10464 17.1984 7.36326 17.0088 7.5588L10.5683 13.7477C10.3671 13.9408 10.0942 14.0493 9.80979 14.0493C9.52534 14.0493 9.25251 13.9408 9.05125 13.7477L2.6108 7.5588C2.40978 7.36539 2.29687 7.10323 2.29687 6.82989C2.29687 6.55654 2.40978 6.29438 2.6108 6.10097Z" fill="#1B1D1F"/>
</g>
</svg>
