<svg width="25" height="25" viewBox="0 0 25 25" fill="none" xmlns="http://www.w3.org/2000/svg">
<path d="M3.25 2.03873H21.75C22.716 2.03873 23.5 2.82273 23.5 3.78873V7.28873C23.5 7.75286 23.3156 8.19798 22.9874 8.52616C22.6592 8.85435 22.2141 9.03873 21.75 9.03873H3.25C2.78587 9.03873 2.34075 8.85435 2.01256 8.52616C1.68437 8.19798 1.5 7.75286 1.5 7.28873V3.78873C1.5 2.82273 2.284 2.03873 3.25 2.03873ZM21.75 3.53873H3.25C3.1837 3.53873 3.12011 3.56507 3.07322 3.61195C3.02634 3.65883 3 3.72242 3 3.78873V7.28873C3 7.42673 3.112 7.53873 3.25 7.53873H21.75C21.8163 7.53873 21.8799 7.51239 21.9268 7.4655C21.9737 7.41862 22 7.35503 22 7.28873V3.78873C22 3.72242 21.9737 3.65883 21.9268 3.61195C21.8799 3.56507 21.8163 3.53873 21.75 3.53873ZM3.25 10.0387C3.44891 10.0387 3.63968 10.1177 3.78033 10.2584C3.92098 10.399 4 10.5898 4 10.7887V20.2887C4 20.4267 4.112 20.5387 4.25 20.5387H20.75C20.8163 20.5387 20.8799 20.5124 20.9268 20.4655C20.9737 20.4186 21 20.355 21 20.2887V10.7887C21 10.5898 21.079 10.399 21.2197 10.2584C21.3603 10.1177 21.5511 10.0387 21.75 10.0387C21.9489 10.0387 22.1397 10.1177 22.2803 10.2584C22.421 10.399 22.5 10.5898 22.5 10.7887V20.2887C22.5 20.7529 22.3156 21.198 21.9874 21.5262C21.6592 21.8544 21.2141 22.0387 20.75 22.0387H4.25C3.78587 22.0387 3.34075 21.8544 3.01256 21.5262C2.68437 21.198 2.5 20.7529 2.5 20.2887V10.7887C2.5 10.5898 2.57902 10.399 2.71967 10.2584C2.86032 10.1177 3.05109 10.0387 3.25 10.0387Z" fill="#007CFF"/>
<path d="M10.25 11.5387C10.0511 11.5387 9.86032 11.6177 9.71967 11.7584C9.57902 11.899 9.5 12.0898 9.5 12.2887C9.5 12.4876 9.57902 12.6784 9.71967 12.8191C9.86032 12.9597 10.0511 13.0387 10.25 13.0387H14.75C14.9489 13.0387 15.1397 12.9597 15.2803 12.8191C15.421 12.6784 15.5 12.4876 15.5 12.2887C15.5 12.0898 15.421 11.899 15.2803 11.7584C15.1397 11.6177 14.9489 11.5387 14.75 11.5387H10.25Z" fill="#007CFF"/>
</svg>
