<svg width="32" height="32" viewBox="0 0 32 32" fill="none" xmlns="http://www.w3.org/2000/svg">
<path d="M25.3334 5.33341H22.6667V4.00008C22.6667 3.64646 22.5263 3.30732 22.2762 3.05727C22.0262 2.80722 21.687 2.66675 21.3334 2.66675C20.9798 2.66675 20.6407 2.80722 20.3906 3.05727C20.1406 3.30732 20.0001 3.64646 20.0001 4.00008V5.33341H12.0001V4.00008C12.0001 3.64646 11.8596 3.30732 11.6096 3.05727C11.3595 2.80722 11.0204 2.66675 10.6667 2.66675C10.3131 2.66675 9.97399 2.80722 9.72394 3.05727C9.47389 3.30732 9.33342 3.64646 9.33342 4.00008V5.33341H6.66675C5.60588 5.33341 4.58847 5.75484 3.83832 6.50499C3.08818 7.25513 2.66675 8.27255 2.66675 9.33342V25.3334C2.66675 26.3943 3.08818 27.4117 3.83832 28.1618C4.58847 28.912 5.60588 29.3334 6.66675 29.3334H25.3334C26.3943 29.3334 27.4117 28.912 28.1618 28.1618C28.912 27.4117 29.3334 26.3943 29.3334 25.3334V9.33342C29.3334 8.27255 28.912 7.25513 28.1618 6.50499C27.4117 5.75484 26.3943 5.33341 25.3334 5.33341ZM26.6667 25.3334C26.6667 25.687 26.5263 26.0262 26.2762 26.2762C26.0262 26.5263 25.687 26.6667 25.3334 26.6667H6.66675C6.31313 26.6667 5.97399 26.5263 5.72394 26.2762C5.47389 26.0262 5.33341 25.687 5.33341 25.3334V16.0001H26.6667V25.3334ZM26.6667 13.3334H5.33341V9.33342C5.33341 8.97979 5.47389 8.64065 5.72394 8.39061C5.97399 8.14056 6.31313 8.00008 6.66675 8.00008H9.33342V9.33342C9.33342 9.68704 9.47389 10.0262 9.72394 10.2762C9.97399 10.5263 10.3131 10.6667 10.6667 10.6667C11.0204 10.6667 11.3595 10.5263 11.6096 10.2762C11.8596 10.0262 12.0001 9.68704 12.0001 9.33342V8.00008H20.0001V9.33342C20.0001 9.68704 20.1406 10.0262 20.3906 10.2762C20.6407 10.5263 20.9798 10.6667 21.3334 10.6667C21.687 10.6667 22.0262 10.5263 22.2762 10.2762C22.5263 10.0262 22.6667 9.68704 22.6667 9.33342V8.00008H25.3334C25.687 8.00008 26.0262 8.14056 26.2762 8.39061C26.5263 8.64065 26.6667 8.97979 26.6667 9.33342V13.3334Z" fill="black"/>
</svg>
