<svg width="24" height="25" viewBox="0 0 24 25" fill="none" xmlns="http://www.w3.org/2000/svg">
<path d="M19 4.0387H17V3.0387C17 2.77348 16.8946 2.51913 16.7071 2.33159C16.5196 2.14405 16.2652 2.0387 16 2.0387C15.7348 2.0387 15.4804 2.14405 15.2929 2.33159C15.1054 2.51913 15 2.77348 15 3.0387V4.0387H9V3.0387C9 2.77348 8.89464 2.51913 8.70711 2.33159C8.51957 2.14405 8.26522 2.0387 8 2.0387C7.73478 2.0387 7.48043 2.14405 7.29289 2.33159C7.10536 2.51913 7 2.77348 7 3.0387V4.0387H5C4.20435 4.0387 3.44129 4.35477 2.87868 4.91738C2.31607 5.47999 2 6.24305 2 7.0387V19.0387C2 19.8343 2.31607 20.5974 2.87868 21.16C3.44129 21.7226 4.20435 22.0387 5 22.0387H19C19.7956 22.0387 20.5587 21.7226 21.1213 21.16C21.6839 20.5974 22 19.8343 22 19.0387V7.0387C22 6.24305 21.6839 5.47999 21.1213 4.91738C20.5587 4.35477 19.7956 4.0387 19 4.0387ZM20 19.0387C20 19.3039 19.8946 19.5583 19.7071 19.7458C19.5196 19.9333 19.2652 20.0387 19 20.0387H5C4.73478 20.0387 4.48043 19.9333 4.29289 19.7458C4.10536 19.5583 4 19.3039 4 19.0387V12.0387H20V19.0387ZM20 10.0387H4V7.0387C4 6.77348 4.10536 6.51913 4.29289 6.33159C4.48043 6.14405 4.73478 6.0387 5 6.0387H7V7.0387C7 7.30391 7.10536 7.55827 7.29289 7.7458C7.48043 7.93334 7.73478 8.0387 8 8.0387C8.26522 8.0387 8.51957 7.93334 8.70711 7.7458C8.89464 7.55827 9 7.30391 9 7.0387V6.0387H15V7.0387C15 7.30391 15.1054 7.55827 15.2929 7.7458C15.4804 7.93334 15.7348 8.0387 16 8.0387C16.2652 8.0387 16.5196 7.93334 16.7071 7.7458C16.8946 7.55827 17 7.30391 17 7.0387V6.0387H19C19.2652 6.0387 19.5196 6.14405 19.7071 6.33159C19.8946 6.51913 20 6.77348 20 7.0387V10.0387Z" fill="#929292"/>
</svg>
