<svg width="18" height="19" viewBox="0 0 18 19" fill="none" xmlns="http://www.w3.org/2000/svg">
<path d="M17.0875 5.89702L7.62417 15.3604C7.54174 15.4431 7.4438 15.5087 7.33596 15.5535C7.22812 15.5983 7.11251 15.6213 6.99574 15.6213C6.87897 15.6213 6.76336 15.5983 6.65552 15.5535C6.54768 15.5087 6.44974 15.4431 6.36731 15.3604L2.2271 11.2202C2.14457 11.1376 2.07911 11.0397 2.03445 10.9318C1.98978 10.824 1.9668 10.7084 1.9668 10.5917C1.9668 10.475 1.98978 10.3595 2.03445 10.2516C2.07911 10.1438 2.14457 10.0458 2.2271 9.96331C2.30963 9.88078 2.4076 9.81532 2.51542 9.77065C2.62325 9.72599 2.73882 9.703 2.85552 9.703C2.97223 9.703 3.0878 9.72599 3.19563 9.77065C3.30345 9.81532 3.40142 9.88078 3.48395 9.96331L6.99648 13.4758L15.8321 4.64165C15.9988 4.47498 16.2249 4.38135 16.4606 4.38135C16.6963 4.38135 16.9223 4.47498 17.089 4.64165C17.2557 4.80832 17.3493 5.03437 17.3493 5.27008C17.3493 5.50578 17.2557 5.73183 17.089 5.8985L17.0875 5.89702Z" fill="#9FA4A9"/>
</svg>
