<svg width="25" height="24" viewBox="0 0 25 24" fill="none" xmlns="http://www.w3.org/2000/svg">
<path d="M23.0045 7.64492L10.3867 20.2627C10.2768 20.373 10.1462 20.4605 10.0024 20.5202C9.85861 20.5799 9.70445 20.6106 9.54876 20.6106C9.39307 20.6106 9.23892 20.5799 9.09513 20.5202C8.95135 20.4605 8.82076 20.373 8.71086 20.2627L3.19058 14.7424C3.08054 14.6324 2.99326 14.5018 2.93371 14.358C2.87416 14.2142 2.84351 14.0601 2.84351 13.9045C2.84351 13.7489 2.87416 13.5948 2.93371 13.4511C2.99326 13.3073 3.08054 13.1767 3.19058 13.0666C3.30061 12.9566 3.43124 12.8693 3.57501 12.8098C3.71877 12.7502 3.87286 12.7196 4.02848 12.7196C4.18409 12.7196 4.33818 12.7502 4.48195 12.8098C4.62571 12.8693 4.75634 12.9566 4.86638 13.0666L9.54975 17.75L21.3306 5.97109C21.5529 5.74887 21.8543 5.62402 22.1685 5.62402C22.4828 5.62402 22.7842 5.74887 23.0064 5.97109C23.2287 6.19332 23.3535 6.49472 23.3535 6.80899C23.3535 7.12327 23.2287 7.42467 23.0064 7.64689L23.0045 7.64492Z" fill="#9FA4A9"/>
</svg>
