<svg width="24" height="25" viewBox="0 0 24 25" fill="none" xmlns="http://www.w3.org/2000/svg">
<path d="M19.5459 18.454C19.7572 18.6654 19.876 18.952 19.876 19.2509C19.876 19.5498 19.7572 19.8364 19.5459 20.0478C19.3346 20.2591 19.0479 20.3779 18.749 20.3779C18.4501 20.3779 18.1635 20.2591 17.9521 20.0478L12 14.0937L6.0459 20.0459C5.83455 20.2573 5.54791 20.376 5.24902 20.376C4.95014 20.376 4.66349 20.2573 4.45215 20.0459C4.2408 19.8346 4.12207 19.5479 4.12207 19.249C4.12207 18.9502 4.2408 18.6635 4.45215 18.4522L10.4062 12.5L4.45402 6.54592C4.24268 6.33457 4.12395 6.04793 4.12395 5.74904C4.12395 5.45016 4.24268 5.16351 4.45402 4.95217C4.66537 4.74082 4.95201 4.62209 5.2509 4.62209C5.54978 4.62209 5.83643 4.74082 6.04777 4.95217L12 10.9062L17.954 4.95123C18.1654 4.73989 18.452 4.62115 18.7509 4.62115C19.0498 4.62115 19.3364 4.73989 19.5478 4.95123C19.7591 5.16258 19.8778 5.44922 19.8778 5.74811C19.8778 6.04699 19.7591 6.33364 19.5478 6.54498L13.5937 12.5L19.5459 18.454Z" fill="#9FA4A9"/>
</svg>
