<svg width="37" height="28" viewBox="0 0 37 28" fill="none" xmlns="http://www.w3.org/2000/svg">
<path id="Vector" d="M27.3354 11.0008H25.4459C24.8849 8.82788 23.7256 6.8559 22.0998 5.30893C20.474 3.76196 18.4469 2.70203 16.2488 2.24958C14.0507 1.79713 11.7698 1.9703 9.66518 2.74942C7.56059 3.52854 5.71673 4.88236 4.34313 6.65704C2.96952 8.43173 2.12124 10.5561 1.89467 12.7888C1.66811 15.0215 2.07235 17.273 3.06146 19.2875C4.05057 21.3019 5.58489 22.9986 7.49007 24.1846C9.39525 25.3706 11.5949 25.9984 13.8391 25.9967H27.3354C29.324 25.9967 31.2311 25.2068 32.6373 23.8006C34.0434 22.3945 34.8334 20.4873 34.8334 18.4988C34.8334 16.5102 34.0434 14.603 32.6373 13.1969C31.2311 11.7908 29.324 11.0008 27.3354 11.0008Z" stroke="#007CFF" stroke-width="3" stroke-linecap="round" stroke-linejoin="round"/>
</svg>
