<svg width="36" height="28" viewBox="0 0 36 28" fill="none" xmlns="http://www.w3.org/2000/svg">
<path d="M27.002 11.0008H25.1125C24.5515 8.82788 23.3922 6.8559 21.7664 5.30893C20.1406 3.76196 18.1135 2.70203 15.9154 2.24958C13.7173 1.79713 11.4364 1.9703 9.33181 2.74942C7.22722 3.52854 5.38336 4.88236 4.00975 6.65704C2.63614 8.43173 1.78786 10.5561 1.5613 12.7888C1.33474 15.0215 1.73898 17.273 2.72809 19.2875C3.71719 21.3019 5.25151 22.9986 7.15669 24.1846C9.06187 25.3706 11.2615 25.9984 13.5057 25.9967H27.002C28.9906 25.9967 30.8978 25.2068 32.3039 23.8006C33.71 22.3945 34.5 20.4873 34.5 18.4988C34.5 16.5102 33.71 14.603 32.3039 13.1969C30.8978 11.7908 28.9906 11.0008 27.002 11.0008Z" fill="#414941" fill-opacity="0.2" stroke="#222222" stroke-width="3" stroke-linecap="round" stroke-linejoin="round"/>
</svg>
