<svg width="18" height="19" viewBox="0 0 18 19" fill="none" xmlns="http://www.w3.org/2000/svg">
<g clip-path="url(#clip0_1802_7474)">
<path d="M3.24375 2.56845C4.19401 1.7777 5.29775 1.19233 6.48542 0.849229C7.67309 0.506132 8.91895 0.412746 10.1445 0.574955C12.4117 0.869493 14.4818 2.01583 15.9346 3.78121C17.3873 5.54659 18.1137 7.79867 17.9663 10.0802C17.8189 12.3617 16.8088 14.5016 15.141 16.0653C13.4732 17.6291 11.2728 18.4996 8.9865 18.5H3.75C2.75581 18.4988 1.80267 18.1033 1.09967 17.4003C0.396664 16.6973 0.001194 15.7442 3.8147e-06 14.75V8.98171V8.93446C0.0793819 7.70854 0.407988 6.51169 0.965721 5.41712C1.52346 4.32254 2.2986 3.35322 3.24375 2.56845ZM12 5.74996H9C8.80109 5.74996 8.61033 5.82897 8.46967 5.96962C8.32902 6.11028 8.25 6.30104 8.25 6.49996C8.25 6.69887 8.32902 6.88963 8.46967 7.03029C8.61033 7.17094 8.80109 7.24996 9 7.24996H12C12.1989 7.24996 12.3897 7.17094 12.5303 7.03029C12.671 6.88963 12.75 6.69887 12.75 6.49996C12.75 6.30104 12.671 6.11028 12.5303 5.96962C12.3897 5.82897 12.1989 5.74996 12 5.74996ZM6 13.25H12C12.1989 13.25 12.3897 13.1709 12.5303 13.0303C12.671 12.8896 12.75 12.6989 12.75 12.5C12.75 12.301 12.671 12.1103 12.5303 11.9696C12.3897 11.829 12.1989 11.75 12 11.75H6C5.80109 11.75 5.61033 11.829 5.46967 11.9696C5.32902 12.1103 5.25 12.301 5.25 12.5C5.25 12.6989 5.32902 12.8896 5.46967 13.0303C5.61033 13.1709 5.80109 13.25 6 13.25ZM6 10.25H12C12.1989 10.25 12.3897 10.1709 12.5303 10.0303C12.671 9.88963 12.75 9.69887 12.75 9.49996C12.75 9.30104 12.671 9.11028 12.5303 8.96963C12.3897 8.82897 12.1989 8.74996 12 8.74996H6C5.80109 8.74996 5.61033 8.82897 5.46967 8.96963C5.32902 9.11028 5.25 9.30104 5.25 9.49996C5.25 9.69887 5.32902 9.88963 5.46967 10.0303C5.61033 10.1709 5.80109 10.25 6 10.25Z" fill="#007CFF"/>
</g>
<defs>
<clipPath id="clip0_1802_7474">
<rect width="18" height="18" fill="white" transform="matrix(-1 0 0 1 18 0.5)"/>
</clipPath>
</defs>
</svg>
