<svg width="34" height="35" viewBox="0 0 34 35" fill="none" xmlns="http://www.w3.org/2000/svg">
<path fill-rule="evenodd" clip-rule="evenodd" d="M20.5416 20.9629H21.6413L22.4204 21.8533L25.0944 24.9093C25.139 24.959 25.1958 24.992 25.2572 25.004C25.3186 25.0161 25.3817 25.0066 25.4383 24.9768C25.4949 24.947 25.5422 24.8982 25.5741 24.8371C25.606 24.7759 25.6208 24.7051 25.6168 24.6341L25.4185 21.6914L25.3087 20.0542L26.4455 19.0524C27.6904 17.9595 28.5103 16.3304 28.5103 13.8795C28.5103 11.4226 27.6869 9.79347 26.4385 8.69859C25.1033 7.52883 23.0703 6.79621 20.5416 6.79621C18.0128 6.79621 15.9799 7.52883 14.6447 8.69859C13.398 9.79145 12.5728 11.4226 12.5728 13.8795C12.5728 16.3364 13.3963 17.9656 14.6447 19.0605C15.9799 20.2303 18.0128 20.9629 20.5416 20.9629ZM21.4624 25.051L23.2155 27.0545C23.6437 27.5438 24.1926 27.8714 24.7886 27.9933C25.3846 28.1151 25.9989 28.0254 26.5489 27.7362C27.0989 27.4469 27.5582 26.972 27.8648 26.3754C28.1715 25.7788 28.3109 25.0892 28.2642 24.3993L28.0676 21.4587C29.9801 19.7688 31.1666 17.2451 31.1666 13.8795C31.1666 7.13419 26.4101 3.7605 20.5416 3.7605C16.775 3.7605 13.4671 5.15085 11.5812 7.92954C6.6069 8.58526 2.83325 11.9164 2.83325 17.9272C2.83325 21.2928 4.01794 23.8185 5.93221 25.5063L5.73565 28.4469C5.68896 29.1368 5.82834 29.8264 6.13501 30.423C6.44168 31.0196 6.90093 31.4945 7.45092 31.7838C8.00091 32.073 8.61525 32.1628 9.21122 32.0409C9.80719 31.919 10.3562 31.5914 10.7843 31.1022L13.4583 28.0462C16.6511 28.0462 19.5145 27.0485 21.4624 25.051ZM10.1698 11.3214C10.0051 12.1107 9.91658 12.9648 9.91658 13.8795C9.91658 19.7587 13.5291 23.0757 18.344 23.8326C17.0743 24.5733 15.415 25.0105 13.4583 25.0105H12.3586L11.5794 25.901L8.90544 28.9569C8.8608 29.0066 8.80404 29.0396 8.74264 29.0517C8.68124 29.0637 8.61809 29.0542 8.56151 29.0244C8.50494 28.9946 8.4576 28.9459 8.42574 28.8847C8.39388 28.8235 8.37899 28.7527 8.38304 28.6817L8.58138 25.7391L8.69117 24.1018L7.55429 23.1C6.3094 22.0072 5.4895 20.378 5.4895 17.9272C5.4895 15.4703 6.31294 13.8411 7.56138 12.7462C8.25377 12.1391 9.13211 11.6513 10.1698 11.3214Z" fill="#007CFF"/>
</svg>
