<svg width="13" height="13" viewBox="0 0 13 13" fill="none" xmlns="http://www.w3.org/2000/svg">
<path d="M11.1011 11.5C11.0353 11.5004 10.97 11.4878 10.9091 11.4629C10.8482 11.438 10.7928 11.4013 10.7461 11.355L8.89607 9.5H3.10107C2.70325 9.5 2.32172 9.34196 2.04041 9.06066C1.75911 8.77936 1.60107 8.39782 1.60107 8V3C1.60107 2.60218 1.75911 2.22064 2.04041 1.93934C2.32172 1.65804 2.70325 1.5 3.10107 1.5H10.1011C10.4989 1.5 10.8804 1.65804 11.1617 1.93934C11.443 2.22064 11.6011 2.60218 11.6011 3L11.1011 11.5ZM11.1011 11.5C11.1667 11.5017 11.2317 11.488 11.2911 11.46L11.1011 11.5ZM9.33433 9.23137L9.2501 9.14692L9.10358 9L9.10395 8.99999H9.10397L9.33433 9.23137ZM11.1138 11.0061L11.1054 11.0004L11.1138 11.0061Z" fill="black" stroke="#464C52"/>
</svg>
