<svg width="8" height="9" viewBox="0 0 8 9" fill="none" xmlns="http://www.w3.org/2000/svg">
<path d="M1.5 1C1.36739 1 1.24021 1.05268 1.14645 1.14645C1.05268 1.24021 1 1.36739 1 1.5V5.5C1 5.63261 1.05268 5.75979 1.14645 5.85355C1.24021 5.94732 1.36739 6 1.5 6H2.5C2.63261 6 2.75979 6.05268 2.85355 6.14645C2.94732 6.24021 3 6.36739 3 6.5V7.117L4.743 6.07C4.82076 6.02386 4.90958 5.99967 5 6H6.5C6.63261 6 6.75979 5.94732 6.85355 5.85355C6.94732 5.75979 7 5.63261 7 5.5V1.5C7 1.36739 6.94732 1.24021 6.85355 1.14645C6.75979 1.05268 6.63261 1 6.5 1H1.5ZM0 1.5C0 1.10218 0.158035 0.720644 0.43934 0.43934C0.720644 0.158035 1.10218 0 1.5 0H6.5C6.89782 0 7.27936 0.158035 7.56066 0.43934C7.84196 0.720644 8 1.10218 8 1.5V5.5C8 5.89782 7.84196 6.27936 7.56066 6.56066C7.27936 6.84196 6.89782 7 6.5 7H5.138L2.758 8.429C2.68209 8.47473 2.5954 8.49946 2.50679 8.50066C2.41818 8.50186 2.33085 8.4795 2.25373 8.43585C2.1766 8.3922 2.11247 8.32884 2.06789 8.25226C2.0233 8.17567 1.99987 8.08862 2 8V7H1.5C1.10218 7 0.720644 6.84196 0.43934 6.56066C0.158035 6.27936 0 5.89782 0 5.5V1.5Z" fill="black"/>
</svg>
