<svg width="512" height="512" viewBox="0 0 512 512" fill="none" xmlns="http://www.w3.org/2000/svg">
<path d="M426.667 31H85.3333C62.7015 31 40.9967 38.9019 24.9936 52.9673C8.99045 67.0327 0 86.1095 0 106.001L0 331.004C0 350.896 8.99045 369.973 24.9936 384.038C40.9967 398.103 62.7015 406.005 85.3333 406.005H147.2L242.155 476.562C246.007 479.428 250.89 481 255.936 481C260.982 481 265.865 479.428 269.717 476.562L364.8 406.005H426.667C449.298 406.005 471.003 398.103 487.006 384.038C503.01 369.973 512 350.896 512 331.004V106.001C512 86.1095 503.01 67.0327 487.006 52.9673C471.003 38.9019 449.298 31 426.667 31ZM469.333 331.004C469.333 340.95 464.838 350.488 456.837 357.521C448.835 364.554 437.983 368.505 426.667 368.505H364.8C354.716 368.507 344.958 371.65 337.259 377.374L256 437.693L174.784 377.374C167.073 371.641 157.299 368.499 147.2 368.505H85.3333C74.0174 368.505 63.165 364.554 55.1634 357.521C47.1619 350.488 42.6667 340.95 42.6667 331.004V106.001C42.6667 96.0553 47.1619 86.5169 55.1634 79.4842C63.165 72.4515 74.0174 68.5005 85.3333 68.5005H426.667C437.983 68.5005 448.835 72.4515 456.837 79.4842C464.838 86.5169 469.333 96.0553 469.333 106.001V331.004Z" fill="#73787E"/>
</svg>
