<svg width="25" height="25" viewBox="0 0 25 25" fill="none" xmlns="http://www.w3.org/2000/svg">
<g id="icons/uil:ellipsis-v">
<path id="Vector" d="M12.448 7.5C12.8436 7.5 13.2302 7.3827 13.5591 7.16294C13.888 6.94318 14.1444 6.63082 14.2958 6.26537C14.4471 5.89992 14.4867 5.49778 14.4096 5.10982C14.3324 4.72186 14.1419 4.36549 13.8622 4.08579C13.5825 3.80608 13.2261 3.6156 12.8382 3.53843C12.4502 3.46126 12.0481 3.50087 11.6826 3.65224C11.3172 3.80362 11.0048 4.05996 10.7851 4.38886C10.5653 4.71776 10.448 5.10444 10.448 5.5C10.448 6.03043 10.6587 6.53914 11.0338 6.91421C11.4089 7.28929 11.9176 7.5 12.448 7.5ZM12.448 17.5C12.0524 17.5 11.6658 17.6173 11.3369 17.8371C11.008 18.0568 10.7516 18.3692 10.6002 18.7346C10.4489 19.1001 10.4093 19.5022 10.4864 19.8902C10.5636 20.2781 10.7541 20.6345 11.0338 20.9142C11.3135 21.1939 11.6699 21.3844 12.0578 21.4616C12.4458 21.5387 12.8479 21.4991 13.2134 21.3478C13.5788 21.1964 13.8912 20.94 14.1109 20.6111C14.3307 20.2822 14.448 19.8956 14.448 19.5C14.448 18.9696 14.2373 18.4609 13.8622 18.0858C13.4871 17.7107 12.9784 17.5 12.448 17.5ZM12.448 10.5C12.0524 10.5 11.6658 10.6173 11.3369 10.8371C11.008 11.0568 10.7516 11.3692 10.6002 11.7346C10.4489 12.1001 10.4093 12.5022 10.4864 12.8902C10.5636 13.2781 10.7541 13.6345 11.0338 13.9142C11.3135 14.1939 11.6699 14.3844 12.0578 14.4616C12.4458 14.5387 12.8479 14.4991 13.2134 14.3478C13.5788 14.1964 13.8912 13.94 14.1109 13.6111C14.3307 13.2822 14.448 12.8956 14.448 12.5C14.448 11.9696 14.2373 11.4609 13.8622 11.0858C13.4871 10.7107 12.9784 10.5 12.448 10.5Z" fill="#1B1D1F"/>
</g>
</svg>
