<svg width="17" height="16" viewBox="0 0 17 16" fill="none" xmlns="http://www.w3.org/2000/svg">
<g id="icons/gravity-ui:chevron-right">
<path id="Vector" fill-rule="evenodd" clip-rule="evenodd" d="M2.36246 4.93489C2.54136 4.76319 2.78387 4.66675 3.03672 4.66675C3.28956 4.66675 3.53207 4.76319 3.71098 4.93489L8.76156 9.78818L13.8121 4.93489C13.993 4.77293 14.2323 4.68476 14.4794 4.68895C14.7266 4.69315 14.9625 4.78937 15.1373 4.95736C15.3121 5.12534 15.4122 5.35197 15.4166 5.58951C15.421 5.82704 15.3292 6.05692 15.1607 6.23073L9.43582 11.7319C9.25692 11.9036 9.01441 12.0001 8.76156 12.0001C8.50871 12.0001 8.2662 11.9036 8.0873 11.7319L2.36246 6.23073C2.18378 6.05882 2.08341 5.82578 2.08341 5.58281C2.08341 5.33984 2.18378 5.1068 2.36246 4.93489Z" fill="#73787E"/>
</g>
</svg>
