<svg width="12" height="8" viewBox="0 0 12 8" fill="none" xmlns="http://www.w3.org/2000/svg">
<g id="Group">
<path id="Vector" d="M4.63892 3.99978C4.63892 4.29447 4.75598 4.57708 4.96435 4.78546C5.17273 4.99383 5.45534 5.11089 5.75003 5.11089C6.04471 5.11089 6.32733 4.99383 6.5357 4.78546C6.74407 4.57708 6.86114 4.29447 6.86114 3.99978C6.86114 3.7051 6.74407 3.42248 6.5357 3.21411C6.32733 3.00574 6.04471 2.88867 5.75003 2.88867C5.45534 2.88867 5.17273 3.00574 4.96435 3.21411C4.75598 3.42248 4.63892 3.7051 4.63892 3.99978Z" stroke="#464C52" stroke-linecap="round" stroke-linejoin="round"/>
<path id="Vector_2" d="M10.75 3.99984C9.41667 6.22206 7.75 7.33317 5.75 7.33317C3.75 7.33317 2.08333 6.22206 0.75 3.99984C2.08333 1.77762 3.75 0.666504 5.75 0.666504C7.75 0.666504 9.41667 1.77762 10.75 3.99984Z" stroke="#464C52" stroke-linecap="round" stroke-linejoin="round"/>
</g>
</svg>
