<svg width="17" height="16" viewBox="0 0 17 16" fill="none" xmlns="http://www.w3.org/2000/svg">
<g id="icons/gravity-ui:chevron-right">
<path id="Vector" fill-rule="evenodd" clip-rule="evenodd" d="M1.66242 11.0651C1.84132 11.2368 2.08383 11.3333 2.33668 11.3333C2.58953 11.3333 2.83204 11.2368 3.01094 11.0651L8.06153 6.21182L13.1121 11.0651C13.293 11.2271 13.5322 11.3152 13.7794 11.311C14.0266 11.3069 14.2624 11.2106 14.4373 11.0426C14.6121 10.8747 14.7122 10.648 14.7166 10.4105C14.7209 10.173 14.6292 9.94308 14.4606 9.76927L8.73579 4.26806C8.55688 4.09636 8.31437 3.99992 8.06153 3.99992C7.80868 3.99992 7.56617 4.09636 7.38727 4.26806L1.66242 9.76927C1.48374 9.94118 1.38338 10.1742 1.38338 10.4172C1.38338 10.6602 1.48374 10.8932 1.66242 11.0651Z" fill="black"/>
</g>
</svg>
