<svg width="30" height="30" viewBox="0 0 30 30" fill="none" xmlns="http://www.w3.org/2000/svg">
<path d="M15 0C12.0333 0 9.13319 0.879735 6.66645 2.52796C4.19971 4.17618 2.27713 6.51886 1.14181 9.25975C0.00649927 12.0006 -0.290551 15.0166 0.288228 17.9264C0.867006 20.8361 2.29562 23.5088 4.3934 25.6066C6.49119 27.7044 9.16394 29.133 12.0736 29.7118C14.9834 30.2906 17.9994 29.9935 20.7403 28.8582C23.4811 27.7229 25.8238 25.8003 27.472 23.3335C29.1203 20.8668 30 17.9667 30 15C29.9958 11.023 28.4141 7.21017 25.602 4.39804C22.7898 1.5859 18.977 0.00419974 15 0ZM15 27.6923C12.4897 27.6923 10.0358 26.9479 7.94854 25.5533C5.8613 24.1586 4.23449 22.1763 3.27384 19.8571C2.31319 17.5379 2.06184 14.9859 2.55158 12.5239C3.04131 10.0618 4.25014 7.80023 6.02519 6.02518C7.80024 4.25013 10.0618 3.04131 12.5239 2.55157C14.9859 2.06184 17.5379 2.31319 19.8571 3.27384C22.1764 4.23449 24.1586 5.86129 25.5533 7.94853C26.9479 10.0358 27.6923 12.4897 27.6923 15C27.6885 18.365 26.35 21.5912 23.9706 23.9706C21.5912 26.35 18.365 27.6885 15 27.6923ZM13.8462 16.1538V8.07692C13.8462 7.7709 13.9677 7.47742 14.1841 7.26103C14.4005 7.04464 14.694 6.92308 15 6.92308C15.306 6.92308 15.5995 7.04464 15.8159 7.26103C16.0323 7.47742 16.1538 7.7709 16.1538 8.07692V16.1538C16.1538 16.4599 16.0323 16.7533 15.8159 16.9697C15.5995 17.1861 15.306 17.3077 15 17.3077C14.694 17.3077 14.4005 17.1861 14.1841 16.9697C13.9677 16.7533 13.8462 16.4599 13.8462 16.1538ZM16.7308 21.3461C16.7308 21.6885 16.6293 22.0231 16.4391 22.3077C16.2489 22.5923 15.9786 22.8142 15.6623 22.9452C15.3461 23.0762 14.9981 23.1104 14.6623 23.0437C14.3266 22.9769 14.0182 22.812 13.7762 22.57C13.5341 22.3279 13.3693 22.0195 13.3025 21.6838C13.2357 21.3481 13.27 21.0001 13.401 20.6838C13.532 20.3676 13.7538 20.0972 14.0384 19.9071C14.3231 19.7169 14.6577 19.6154 15 19.6154C15.459 19.6154 15.8993 19.7977 16.2238 20.1223C16.5484 20.4469 16.7308 20.8871 16.7308 21.3461Z" fill="#CACDD2"/>
</svg>
