<svg width="54" height="53" viewBox="0 0 54 53" fill="none" xmlns="http://www.w3.org/2000/svg">
<rect width="53.3333" height="53" rx="26.5" fill="#060606"/>
<path d="M37.3333 35.6667V24.3333C37.3333 24.1263 37.2851 23.9222 37.1926 23.737C37.1 23.5519 36.9656 23.3909 36.8 23.2667L27.4667 16.2667C27.2359 16.0936 26.9552 16 26.6667 16C26.3782 16 26.0975 16.0936 25.8667 16.2667L16.5333 23.2667C16.3677 23.3909 16.2333 23.5519 16.1408 23.737C16.0482 23.9222 16 24.1263 16 24.3333V35.6667C16 36.0203 16.1405 36.3594 16.3905 36.6095C16.6406 36.8595 16.9797 37 17.3333 37H22.6667C23.0203 37 23.3594 36.8595 23.6095 36.6095C23.8595 36.3594 24 36.0203 24 35.6667V31.6667C24 31.313 24.1405 30.9739 24.3905 30.7239C24.6406 30.4738 24.9797 30.3333 25.3333 30.3333H28C28.3536 30.3333 28.6928 30.4738 28.9428 30.7239C29.1929 30.9739 29.3333 31.313 29.3333 31.6667V35.6667C29.3333 36.0203 29.4738 36.3594 29.7239 36.6095C29.9739 36.8595 30.313 37 30.6667 37H36C36.3536 37 36.6928 36.8595 36.9428 36.6095C37.1929 36.3594 37.3333 36.0203 37.3333 35.6667Z" stroke="white" stroke-width="2" stroke-linecap="round" stroke-linejoin="round"/>
</svg>
