<svg width="25" height="24" viewBox="0 0 25 24" fill="none" xmlns="http://www.w3.org/2000/svg">
<g clip-path="url(#clip0_327_2532)">
<rect x="0.777954" width="24" height="24" rx="12" fill="white"/>
<path d="M18.938 12.1458C18.938 11.6908 18.8971 11.2533 18.8213 10.8333H12.778V13.3153H16.2313C16.0825 14.1174 15.6305 14.797 14.9509 15.252V16.862H17.0246C18.238 15.7449 18.938 14.0999 18.938 12.1458Z" fill="#4285F4"/>
<path d="M12.778 18.4167C14.5105 18.4167 15.963 17.8422 17.0247 16.8622L14.9509 15.2522C14.3763 15.6372 13.6413 15.8647 12.778 15.8647C11.1067 15.8647 9.69216 14.7359 9.18757 13.2192H7.04382V14.8817C8.09966 16.9788 10.2697 18.4167 12.778 18.4167Z" fill="#34A853"/>
<path d="M9.18758 13.2192C9.05924 12.8342 8.98633 12.423 8.98633 12.0001C8.98633 11.5772 9.05924 11.1659 9.18758 10.7809V9.11841H7.04383C6.59466 10.0126 6.36093 10.9994 6.36133 12.0001C6.36133 13.0355 6.60925 14.0155 7.04383 14.8817L9.18758 13.2192Z" fill="#FBBC05"/>
<path d="M12.778 8.13533C13.7201 8.13533 14.5659 8.45908 15.2309 9.09492L17.0713 7.2545C15.9601 6.21909 14.5076 5.58325 12.778 5.58325C10.2697 5.58325 8.09966 7.02117 7.04382 9.11825L9.18757 10.7808C9.69216 9.26408 11.1067 8.13533 12.778 8.13533Z" fill="#EA4335"/>
</g>
<rect x="1.27795" y="0.5" width="23" height="23" rx="11.5" stroke="#E9EBED"/>
<defs>
<clipPath id="clip0_327_2532">
<rect x="0.777954" width="24" height="24" rx="12" fill="white"/>
</clipPath>
</defs>
</svg>
