<svg width="24" height="25" viewBox="0 0 24 25" fill="none" xmlns="http://www.w3.org/2000/svg">
<path fill-rule="evenodd" clip-rule="evenodd" d="M22.125 12.5C22.125 12.7984 22.0065 13.0845 21.7955 13.2955C21.5845 13.5065 21.2984 13.625 21 13.625H5.71499L9.79499 17.705C9.90552 17.808 9.99417 17.9322 10.0557 18.0702C10.1171 18.2082 10.1502 18.3572 10.1529 18.5082C10.1555 18.6593 10.1278 18.8093 10.0712 18.9494C10.0146 19.0895 9.93037 19.2167 9.82354 19.3236C9.71672 19.4304 9.58947 19.5146 9.44938 19.5712C9.3093 19.6278 9.15926 19.6556 9.0082 19.6529C8.85715 19.6502 8.70818 19.6172 8.57018 19.5557C8.43218 19.4942 8.30798 19.4055 8.20499 19.295L2.20499 13.295C1.99431 13.0841 1.87598 12.7981 1.87598 12.5C1.87598 12.2019 1.99431 11.916 2.20499 11.705L8.20499 5.70501C8.41825 5.50629 8.70032 5.39811 8.99177 5.40325C9.28322 5.40839 9.5613 5.52646 9.76742 5.73258C9.97354 5.9387 10.0916 6.21678 10.0967 6.50823C10.1019 6.79968 9.99371 7.08175 9.79499 7.29501L5.71499 11.375H21C21.2984 11.375 21.5845 11.4935 21.7955 11.7045C22.0065 11.9155 22.125 12.2016 22.125 12.5Z" fill="#9FA4A9"/>
</svg>
