<svg width="33" height="32" viewBox="0 0 33 32" fill="none" xmlns="http://www.w3.org/2000/svg">
<path d="M29.8333 11.816C29.8379 13.8677 29.0475 15.8413 27.628 17.3227C24.3733 20.6973 21.216 24.216 17.8413 27.4667C17.0667 28.2 15.8387 28.1733 15.0987 27.4067L5.37199 17.324C2.43199 14.276 2.43199 9.356 5.37199 6.30933C6.06685 5.58 6.90258 4.99936 7.82851 4.60263C8.75445 4.2059 9.75131 4.00133 10.7587 4.00133C11.766 4.00133 12.7629 4.2059 13.6888 4.60263C14.6147 4.99936 15.4505 5.58 16.1453 6.30933L16.5 6.67467L16.8533 6.30933C17.5496 5.58173 18.3856 5.00215 19.3112 4.60534C20.2368 4.20852 21.2329 4.00263 22.24 4C24.2667 4 26.204 4.832 27.6267 6.30933C29.0467 7.79046 29.8376 9.76415 29.8333 11.816Z" stroke="black" stroke-width="3" stroke-linejoin="round"/>
</svg>
