<svg width="22" height="20" viewBox="0 0 22 20" fill="none" xmlns="http://www.w3.org/2000/svg">
<path fill-rule="evenodd" clip-rule="evenodd" d="M11 1.942C12.1713 0.856902 13.7083 0.252799 15.305 0.25C17.031 0.25 18.679 0.96 19.885 2.21C21.0851 3.461 21.7536 5.12845 21.75 6.862C21.7536 8.59555 21.0851 10.263 19.885 11.514C19.089 12.339 18.294 13.184 17.495 14.032C15.871 15.756 14.23 17.499 12.525 19.14L12.522 19.144C12.0987 19.5449 11.5342 19.7625 10.9513 19.7496C10.3684 19.7367 9.81416 19.4943 9.40899 19.075L2.11399 11.514C-0.371006 8.937 -0.371006 4.787 2.11399 2.211C3.26233 1.00694 4.83869 0.303596 6.5018 0.25325C8.16491 0.202904 9.78092 0.809603 11 1.942Z" fill="#9FA4A9"/>
</svg>
