<svg width="24" height="25" viewBox="0 0 24 25" fill="none" xmlns="http://www.w3.org/2000/svg">
<g clip-path="url(#clip0_446_1939)">
<path d="M10.359 1.49603C10.8244 1.1232 11.4029 0.920044 11.9992 0.920044C12.5956 0.920044 13.1741 1.1232 13.6395 1.49603L21.5145 7.79603C22.137 8.29403 22.5 9.04853 22.5 9.84653V20.375C22.5 21.0712 22.2234 21.7389 21.7312 22.2312C21.2389 22.7235 20.5712 23 19.875 23H14.625C14.3266 23 14.0405 22.8815 13.8295 22.6705C13.6185 22.4595 13.5 22.1734 13.5 21.875V14H10.5V21.875C10.5 22.1734 10.3815 22.4595 10.1705 22.6705C9.95952 22.8815 9.67337 23 9.375 23H4.125C3.42881 23 2.76113 22.7235 2.26884 22.2312C1.77656 21.7389 1.5 21.0712 1.5 20.375V9.84503C1.5 9.04853 1.863 8.29403 2.4855 7.79603L10.359 1.49603ZM12.234 3.25253C12.1676 3.19946 12.085 3.17056 12 3.17056C11.915 3.17056 11.8324 3.19946 11.766 3.25253L3.891 9.55253C3.84688 9.58776 3.81129 9.63249 3.78687 9.6834C3.76246 9.73431 3.74985 9.79007 3.75 9.84653V20.375C3.75 20.582 3.918 20.75 4.125 20.75H8.25V12.875C8.25 12.5767 8.36853 12.2905 8.5795 12.0795C8.79048 11.8686 9.07663 11.75 9.375 11.75H14.625C14.9234 11.75 15.2095 11.8686 15.4205 12.0795C15.6315 12.2905 15.75 12.5767 15.75 12.875V20.75H19.875C19.9745 20.75 20.0698 20.7105 20.1402 20.6402C20.2105 20.5699 20.25 20.4745 20.25 20.375V9.84503C20.2499 9.78882 20.2372 9.73335 20.2128 9.68272C20.1884 9.63209 20.1529 9.5876 20.109 9.55253L12.234 3.25253Z" fill="#9FA4A9"/>
</g>
<defs>
<clipPath id="clip0_446_1939">
<rect width="24" height="24" fill="white" transform="translate(0 0.5)"/>
</clipPath>
</defs>
</svg>
