<svg width="32" height="32" viewBox="0 0 32 32" fill="none" xmlns="http://www.w3.org/2000/svg">
<path d="M26.6666 25.3334V14.0001C26.6666 13.7931 26.6184 13.5889 26.5258 13.4038C26.4333 13.2187 26.2988 13.0576 26.1333 12.9334L16.7999 5.93341C16.5691 5.76032 16.2884 5.66675 15.9999 5.66675C15.7114 5.66675 15.4307 5.76032 15.1999 5.93341L5.86659 12.9334C5.70099 13.0576 5.56659 13.2187 5.47402 13.4038C5.38145 13.5889 5.33325 13.7931 5.33325 14.0001V25.3334C5.33325 25.687 5.47373 26.0262 5.72378 26.2762C5.97383 26.5263 6.31296 26.6667 6.66659 26.6667H11.9999C12.3535 26.6667 12.6927 26.5263 12.9427 26.2762C13.1928 26.0262 13.3333 25.687 13.3333 25.3334V21.3334C13.3333 20.9798 13.4737 20.6407 13.7238 20.3906C13.9738 20.1406 14.313 20.0001 14.6666 20.0001H17.3333C17.6869 20.0001 18.026 20.1406 18.2761 20.3906C18.5261 20.6407 18.6666 20.9798 18.6666 21.3334V25.3334C18.6666 25.687 18.8071 26.0262 19.0571 26.2762C19.3072 26.5263 19.6463 26.6667 19.9999 26.6667H25.3333C25.6869 26.6667 26.026 26.5263 26.2761 26.2762C26.5261 26.0262 26.6666 25.687 26.6666 25.3334Z" stroke="#060606" stroke-width="2" stroke-linecap="round" stroke-linejoin="round"/>
</svg>
