<svg width="24" height="24" viewBox="0 0 24 24" fill="none" xmlns="http://www.w3.org/2000/svg">
<path d="M21.625 9.66665C21.625 9.47514 21.5873 9.28551 21.514 9.10857C21.4407 8.93164 21.3333 8.77087 21.1979 8.63546C21.0625 8.50004 20.9017 8.39262 20.7248 8.31933C20.5478 8.24604 20.3582 8.20832 20.1667 8.20832C19.9752 8.20832 19.7855 8.24604 19.6086 8.31933C19.4317 8.39262 19.2709 8.50004 19.1355 8.63546C19.0001 8.77087 18.8927 8.93164 18.8194 9.10857C18.7461 9.28551 18.7084 9.47514 18.7084 9.66665H21.625ZM5.2917 9.66665C5.2917 9.27988 5.13805 8.90895 4.86456 8.63546C4.59107 8.36197 4.22014 8.20832 3.83336 8.20832C3.44659 8.20832 3.07566 8.36197 2.80217 8.63546C2.52867 8.90895 2.37503 9.27988 2.37503 9.66665H5.2917ZM21.4687 13.0313C21.7422 13.3048 22.1132 13.4585 22.5 13.4585C22.8869 13.4585 23.2578 13.3048 23.5314 13.0313C23.8049 12.7578 23.9586 12.3868 23.9586 12C23.9586 11.6132 23.8049 11.2422 23.5314 10.9687L21.4687 13.0313ZM12 1.49999L13.0314 0.468654C12.8959 0.333194 12.7352 0.22574 12.5582 0.152428C12.3812 0.0791154 12.1916 0.0413818 12 0.0413818C11.8085 0.0413818 11.6188 0.0791154 11.4419 0.152428C11.2649 0.22574 11.1041 0.333194 10.9687 0.468654L12 1.49999ZM0.468696 10.9687C0.195169 11.2422 0.0415039 11.6132 0.0415039 12C0.0415039 12.3868 0.195169 12.7578 0.468696 13.0313C0.742223 13.3048 1.1132 13.4585 1.50003 13.4585C1.88685 13.4585 2.25784 13.3048 2.53136 13.0313L0.468696 10.9687ZM6.1667 23.9583H17.8334V21.0417H6.1667V23.9583ZM21.625 20.1667V9.66665H18.7084V20.1667H21.625ZM5.2917 20.1667V9.66665H2.37503V20.1667H5.2917ZM23.5314 10.9687L13.0314 0.468654L10.9687 2.53132L21.4687 13.0313L23.5314 10.9687ZM10.9687 0.468654L0.468696 10.9687L2.53136 13.0313L13.0314 2.53132L10.9687 0.468654ZM17.8334 23.9583C18.839 23.9583 19.8034 23.5588 20.5145 22.8478C21.2255 22.1367 21.625 21.1723 21.625 20.1667H18.7084C18.7084 20.3987 18.6162 20.6213 18.4521 20.7854C18.288 20.9495 18.0654 21.0417 17.8334 21.0417V23.9583ZM6.1667 21.0417C5.93463 21.0417 5.71207 20.9495 5.54798 20.7854C5.38388 20.6213 5.2917 20.3987 5.2917 20.1667H2.37503C2.37503 21.1723 2.77451 22.1367 3.48558 22.8478C4.19666 23.5588 5.16108 23.9583 6.1667 23.9583V21.0417Z" fill="#A5A5A5"/>
</svg>
