<svg width="24" height="23" viewBox="0 0 24 23" fill="none" xmlns="http://www.w3.org/2000/svg">
<rect width="24" height="23" fill="#F5F5F5"/>
<g id="iPhone 14 &#38; 15 Pro Max - 1">
<rect width="430" height="932" transform="translate(-203 -816)" fill="#F4F5FA"/>
<g id="5">
<g id="4">
<g id="section2">
<rect width="430" height="334" transform="translate(-203 -52)" fill="white"/>
<g id="Frame 64">
<g id="Frame 62">
<rect x="-183" y="14" width="199" height="40" rx="20" fill="#007CFF"/>
</g>
</g>
</g>
</g>
</g>
<g id="tabBar">
<mask id="path-2-inside-1_35_246" fill="white">
<path d="M-203 5H227V83H-203V5Z"/>
</mask>
<path d="M-203 7H227V3H-203V7Z" fill="black" mask="url(#path-2-inside-1_35_246)"/>
<g id="Frame 78">
<g id="Frame 72">
<rect width="430" height="78" transform="translate(-203 5)" fill="white"/>
<g id="Frame 77">
<g id="Frame 76">
<rect x="-15" y="-15" width="53.3333" height="53" rx="26.5" fill="#060606"/>
<path id="Vector" d="M22.3333 20.6667V9.33333C22.3333 9.12634 22.2851 8.92219 22.1926 8.73705C22.1 8.55191 21.9656 8.39086 21.8 8.26667L12.4667 1.26667C12.2359 1.09357 11.9552 1 11.6667 1C11.3782 1 11.0975 1.09357 10.8667 1.26667L1.53333 8.26667C1.36774 8.39086 1.23333 8.55191 1.14076 8.73705C1.04819 8.92219 1 9.12634 1 9.33333V20.6667C1 21.0203 1.14048 21.3594 1.39052 21.6095C1.64057 21.8595 1.97971 22 2.33333 22H7.66667C8.02029 22 8.35943 21.8595 8.60948 21.6095C8.85952 21.3594 9 21.0203 9 20.6667V16.6667C9 16.313 9.14048 15.9739 9.39052 15.7239C9.64057 15.4738 9.97971 15.3333 10.3333 15.3333H13C13.3536 15.3333 13.6928 15.4738 13.9428 15.7239C14.1929 15.9739 14.3333 16.313 14.3333 16.6667V20.6667C14.3333 21.0203 14.4738 21.3594 14.7239 21.6095C14.9739 21.8595 15.313 22 15.6667 22H21C21.3536 22 21.6928 21.8595 21.9428 21.6095C22.1929 21.3594 22.3333 21.0203 22.3333 20.6667Z" stroke="white" stroke-width="2" stroke-linecap="round" stroke-linejoin="round"/>
</g>
</g>
</g>
</g>
</g>
</g>
</svg>
