<svg width="33" height="33" viewBox="0 0 33 33" fill="none" xmlns="http://www.w3.org/2000/svg">
<path d="M14.6453 1.99478C15.2658 1.49768 16.0372 1.22681 16.8323 1.22681C17.6273 1.22681 18.3987 1.49768 19.0193 1.99478L29.5193 10.3948C30.3493 11.0588 30.8333 12.0648 30.8333 13.1288V27.1668C30.8333 28.095 30.4645 28.9853 29.8081 29.6417C29.1517 30.298 28.2615 30.6668 27.3333 30.6668H20.3333C19.9354 30.6668 19.5539 30.5087 19.2726 30.2274C18.9913 29.9461 18.8333 29.5646 18.8333 29.1668V18.6668H14.8333V29.1668C14.8333 29.5646 14.6752 29.9461 14.3939 30.2274C14.1126 30.5087 13.7311 30.6668 13.3333 30.6668H6.33325C5.40499 30.6668 4.51476 30.298 3.85838 29.6417C3.202 28.9853 2.83325 28.095 2.83325 27.1668V13.1268C2.83325 12.0648 3.31725 11.0588 4.14725 10.3948L14.6453 1.99478ZM17.1453 4.33678C17.0567 4.26603 16.9466 4.22749 16.8333 4.22749C16.7199 4.22749 16.6099 4.26603 16.5213 4.33678L6.02125 12.7368C5.96243 12.7838 5.91497 12.8434 5.88242 12.9113C5.84986 12.9792 5.83306 13.0535 5.83325 13.1288V27.1668C5.83325 27.4428 6.05725 27.6668 6.33325 27.6668H11.8333V17.1668C11.8333 16.769 11.9913 16.3874 12.2726 16.1061C12.5539 15.8248 12.9354 15.6668 13.3333 15.6668H20.3333C20.7311 15.6668 21.1126 15.8248 21.3939 16.1061C21.6752 16.3874 21.8333 16.769 21.8333 17.1668V27.6668H27.3333C27.4659 27.6668 27.593 27.6141 27.6868 27.5203C27.7806 27.4266 27.8333 27.2994 27.8333 27.1668V13.1268C27.8331 13.0518 27.8162 12.9779 27.7837 12.9104C27.7511 12.8429 27.7038 12.7835 27.6453 12.7368L17.1453 4.33678Z" fill="white"/>
</svg>
