<svg width="20" height="21" viewBox="0 0 20 21" fill="none" xmlns="http://www.w3.org/2000/svg">
<rect y="0.0288696" width="20" height="20" rx="10" fill="#CACDD2"/>
<path d="M15.0306 13.9982C15.1715 14.1391 15.2506 14.3302 15.2506 14.5295C15.2506 14.7287 15.1715 14.9198 15.0306 15.0607C14.8897 15.2016 14.6986 15.2808 14.4993 15.2808C14.3001 15.2808 14.109 15.2016 13.9681 15.0607L9.99997 11.0914L6.0306 15.0595C5.8897 15.2004 5.69861 15.2795 5.49935 15.2795C5.30009 15.2795 5.10899 15.2004 4.9681 15.0595C4.8272 14.9186 4.74805 14.7275 4.74805 14.5282C4.74805 14.329 4.8272 14.1379 4.9681 13.997L8.93747 10.0289L4.96935 6.05948C4.82845 5.91859 4.7493 5.72749 4.7493 5.52823C4.7493 5.32897 4.82845 5.13788 4.96935 4.99698C5.11024 4.85609 5.30134 4.77693 5.5006 4.77693C5.69986 4.77693 5.89095 4.85609 6.03185 4.99698L9.99997 8.96636L13.9693 4.99636C14.1102 4.85546 14.3013 4.77631 14.5006 4.77631C14.6999 4.77631 14.8909 4.85546 15.0318 4.99636C15.1727 5.13725 15.2519 5.32835 15.2519 5.52761C15.2519 5.72686 15.1727 5.91796 15.0318 6.05886L11.0625 10.0289L15.0306 13.9982Z" fill="#73787E"/>
</svg>
