<svg width="25" height="24" viewBox="0 0 25 24" fill="none" xmlns="http://www.w3.org/2000/svg">
<g clip-path="url(#clip0_327_2534)">
<rect x="0.777954" width="24" height="24" rx="12" fill="#FFE500"/>
<path d="M12.7773 6.08154C16.3678 6.08154 19.278 8.32883 19.278 11.1018C19.278 13.8741 16.3678 16.1213 12.778 16.1213C12.4205 16.1215 12.0634 16.099 11.7089 16.0539L8.9801 17.8221C8.66995 17.9847 8.56038 17.9669 8.68791 17.5688L9.2401 15.313C7.45724 14.4175 6.27795 12.8657 6.27795 11.1018C6.27795 8.32944 9.18686 6.08154 12.7773 6.08154ZM16.4353 11.0251L17.3453 10.1517C17.3978 10.0977 17.4271 10.0255 17.427 9.95054C17.4269 9.87553 17.3974 9.80349 17.3448 9.74958C17.2922 9.69568 17.2205 9.66412 17.1448 9.66156C17.0691 9.65899 16.9954 9.68562 16.9392 9.73584L15.7457 10.8803V9.93456C15.7457 9.85778 15.7149 9.78415 15.6601 9.72986C15.6053 9.67556 15.531 9.64506 15.4535 9.64506C15.376 9.64506 15.3017 9.67556 15.2469 9.72986C15.1921 9.78415 15.1613 9.85778 15.1613 9.93456V11.5029C15.1504 11.5476 15.1504 11.5943 15.1613 11.639V12.5216C15.1613 12.5984 15.1921 12.6721 15.2469 12.7263C15.3017 12.7806 15.376 12.8111 15.4535 12.8111C15.531 12.8111 15.6053 12.7806 15.6601 12.7263C15.7149 12.6721 15.7457 12.5984 15.7457 12.5216V11.6857L16.01 11.4323L16.894 12.6793C16.9161 12.7104 16.9441 12.7369 16.9765 12.7573C17.0089 12.7777 17.0451 12.7916 17.0829 12.7981C17.1207 12.8047 17.1595 12.8038 17.197 12.7955C17.2345 12.7872 17.2699 12.7717 17.3013 12.7498C17.3328 12.7279 17.3595 12.7002 17.3801 12.668C17.4007 12.6359 17.4147 12.6001 17.4213 12.5626C17.4279 12.5251 17.427 12.4867 17.4186 12.4496C17.4103 12.4125 17.3946 12.3774 17.3725 12.3462L16.4353 11.0251ZM14.6041 12.2052H13.7003V9.94376C13.6969 9.86937 13.6646 9.79916 13.6103 9.74772C13.5559 9.69629 13.4836 9.66759 13.4085 9.66759C13.3333 9.66759 13.261 9.69629 13.2067 9.74772C13.1523 9.79916 13.12 9.86937 13.1166 9.94376V12.4947C13.1166 12.6541 13.2466 12.7842 13.4081 12.7842H14.6041C14.6816 12.7842 14.756 12.7537 14.8108 12.6994C14.8656 12.6451 14.8963 12.5714 14.8963 12.4947C14.8963 12.4179 14.8656 12.3442 14.8108 12.2899C14.756 12.2357 14.6816 12.2052 14.6041 12.2052ZM10.9784 11.536L11.4092 10.4884L11.8042 11.5354L10.9784 11.536ZM12.5402 11.8347L12.5415 11.8249C12.5413 11.752 12.5132 11.6818 12.4629 11.6286L11.8153 9.91125C11.7882 9.82942 11.7365 9.75773 11.6671 9.70578C11.5978 9.65383 11.5141 9.62409 11.4272 9.62053C11.3397 9.62015 11.2541 9.64618 11.1819 9.69515C11.1097 9.74413 11.0543 9.81373 11.023 9.89469L9.9941 12.3941C9.96479 12.4652 9.96519 12.5449 9.9952 12.6157C10.0252 12.6865 10.0824 12.7425 10.1541 12.7716C10.2259 12.8006 10.3063 12.8002 10.3778 12.7705C10.4492 12.7408 10.5058 12.6841 10.5351 12.613L10.7407 12.1144H12.0221L12.2066 12.6051C12.2192 12.6417 12.239 12.6755 12.2651 12.7045C12.2911 12.7334 12.3227 12.7568 12.358 12.7734C12.3933 12.79 12.4316 12.7995 12.4707 12.8011C12.5098 12.8028 12.5488 12.7966 12.5854 12.7831C12.622 12.7695 12.6555 12.7489 12.684 12.7222C12.7124 12.6956 12.7351 12.6636 12.7508 12.6282C12.7665 12.5927 12.7749 12.5544 12.7754 12.5157C12.7759 12.477 12.7686 12.4385 12.7538 12.4027L12.5402 11.8347ZM10.4831 9.94683C10.4831 9.87015 10.4524 9.79661 10.3978 9.74234C10.3431 9.68807 10.269 9.65749 10.1916 9.65733H8.18276C8.10527 9.65733 8.03095 9.68783 7.97615 9.74212C7.92136 9.79641 7.89057 9.87005 7.89057 9.94683C7.89057 10.0236 7.92136 10.0972 7.97615 10.1515C8.03095 10.2058 8.10527 10.2363 8.18276 10.2363H8.90086V12.5278C8.90086 12.6046 8.93164 12.6782 8.98644 12.7325C9.04124 12.7868 9.11556 12.8173 9.19305 12.8173C9.27054 12.8173 9.34486 12.7868 9.39966 12.7325C9.45446 12.6782 9.48524 12.6046 9.48524 12.5278V10.2363H10.191C10.2684 10.2363 10.3428 10.2058 10.3976 10.1515C10.4524 10.0972 10.4831 10.0236 10.4831 9.94683Z" fill="black"/>
</g>
<defs>
<clipPath id="clip0_327_2534">
<rect x="0.777954" width="24" height="24" rx="12" fill="white"/>
</clipPath>
</defs>
</svg>
