<svg width="100" height="101" viewBox="0 0 100 101" fill="none" xmlns="http://www.w3.org/2000/svg">
<g clip-path="url(#clip0_1725_4942)">
<path d="M79.6161 0.762817H10.2046C7.87471 0.762817 5.98584 2.65168 5.98584 4.98157V84.0167L5.98975 84.0206C6.07334 92.4048 12.8927 99.1765 21.2966 99.1765H79.6161C81.946 99.1765 83.8349 97.2876 83.8349 94.9577V4.98157C83.8349 2.65149 81.9462 0.762817 79.6161 0.762817Z" fill="#DCE2E2"/>
<path d="M51.9975 15.6087H15.7225C15.313 15.6087 14.9204 15.4461 14.6309 15.1566C14.3414 14.8671 14.1787 14.4744 14.1787 14.065C14.1787 13.6556 14.3414 13.2629 14.6309 12.9734C14.9204 12.6839 15.313 12.5212 15.7225 12.5212H51.9975C52.4069 12.5212 52.7995 12.6839 53.0891 12.9734C53.3786 13.2629 53.5412 13.6556 53.5412 14.065C53.5412 14.4744 53.3786 14.8671 53.0891 15.1566C52.7995 15.4461 52.4069 15.6087 51.9975 15.6087ZM47.9748 24.6888C47.9748 24.2794 47.8122 23.8867 47.5227 23.5972C47.2331 23.3077 46.8405 23.1451 46.4311 23.1451H15.7225C15.313 23.1451 14.9204 23.3077 14.6309 23.5972C14.3414 23.8867 14.1787 24.2794 14.1787 24.6888C14.1787 25.0982 14.3414 25.4909 14.6309 25.7804C14.9204 26.0699 15.313 26.2326 15.7225 26.2326H46.4312C46.634 26.2326 46.8347 26.1926 47.022 26.1151C47.2093 26.0375 47.3794 25.9238 47.5228 25.7804C47.6661 25.6371 47.7798 25.4669 47.8574 25.2796C47.9349 25.0923 47.9748 24.8915 47.9748 24.6888ZM72.051 35.3126C72.051 34.9032 71.8883 34.5106 71.5988 34.2211C71.3093 33.9315 70.9167 33.7689 70.5072 33.7689H15.7225C15.313 33.7689 14.9204 33.9315 14.6309 34.2211C14.3414 34.5106 14.1787 34.9032 14.1787 35.3126C14.1787 35.7221 14.3414 36.1147 14.6309 36.4042C14.9204 36.6938 15.313 36.8564 15.7225 36.8564H70.5074C70.9168 36.8563 71.3094 36.6937 71.5989 36.4042C71.8884 36.1147 72.051 35.722 72.051 35.3126ZM68.6131 45.9363C68.6131 45.5269 68.4504 45.1342 68.1609 44.8447C67.8714 44.5552 67.4788 44.3925 67.0693 44.3925H15.7225C15.313 44.3925 14.9204 44.5552 14.6309 44.8447C14.3414 45.1342 14.1787 45.5269 14.1787 45.9363C14.1787 46.3457 14.3414 46.7384 14.6309 47.0279C14.9204 47.3174 15.313 47.48 15.7225 47.48H67.0693C67.4788 47.48 67.8714 47.3174 68.1609 47.0279C68.4504 46.7384 68.6131 46.3457 68.6131 45.9363ZM47.9748 56.5601C47.9748 56.1507 47.8122 55.758 47.5227 55.4685C47.2331 55.179 46.8405 55.0164 46.4311 55.0164H15.7225C15.313 55.0164 14.9204 55.179 14.6309 55.4685C14.3414 55.758 14.1787 56.1507 14.1787 56.5601C14.1787 56.9695 14.3414 57.3622 14.6309 57.6517C14.9204 57.9412 15.313 58.1039 15.7225 58.1039H46.4312C46.634 58.1039 46.8347 58.064 47.022 57.9864C47.2093 57.9088 47.3795 57.7951 47.5228 57.6517C47.6662 57.5084 47.7799 57.3382 47.8574 57.1509C47.935 56.9636 47.9749 56.7628 47.9748 56.5601ZM72.051 67.1839C72.051 66.7745 71.8883 66.3819 71.5988 66.0924C71.3093 65.8028 70.9167 65.6402 70.5072 65.6402H15.7225C15.313 65.6402 14.9204 65.8028 14.6309 66.0924C14.3414 66.3819 14.1787 66.7745 14.1787 67.1839C14.1787 67.5934 14.3414 67.986 14.6309 68.2755C14.9204 68.565 15.313 68.7277 15.7225 68.7277H70.5074C70.9168 68.7276 71.3094 68.565 71.5989 68.2755C71.8884 67.986 72.051 67.5933 72.051 67.1839ZM72.051 77.8078C72.051 77.3983 71.8883 77.0057 71.5988 76.7162C71.3093 76.4267 70.9167 76.264 70.5072 76.264H15.7225C15.313 76.264 14.9204 76.4267 14.6309 76.7162C14.3414 77.0057 14.1787 77.3983 14.1787 77.8078C14.1787 78.2172 14.3414 78.6098 14.6309 78.8994C14.9204 79.1889 15.313 79.3515 15.7225 79.3515H70.5074C70.9168 79.3515 71.3094 79.1888 71.5989 78.8993C71.8884 78.6098 72.051 78.2172 72.051 77.8078ZM72.051 88.4314C72.051 88.022 71.8883 87.6293 71.5988 87.3398C71.3093 87.0503 70.9167 86.8876 70.5072 86.8876H15.7225C15.313 86.8876 14.9204 87.0503 14.6309 87.3398C14.3414 87.6293 14.1787 88.022 14.1787 88.4314C14.1787 88.8408 14.3414 89.2335 14.6309 89.523C14.9204 89.8125 15.313 89.9752 15.7225 89.9752H70.5074C70.9168 89.9751 71.3094 89.8124 71.5989 89.5229C71.8884 89.2334 72.051 88.8408 72.051 88.4314Z" fill="#96A9B2"/>
<path d="M36.6076 73.2791V83.8656C36.6076 92.3214 29.7527 99.1763 21.2969 99.1763H79.6164L79.7098 99.0376C80.376 99.1261 81.0543 99.1763 81.7447 99.1763C90.2006 99.1763 97.0555 92.3214 97.0555 83.8656V73.2791H36.6076Z" fill="#B9C5C6"/>
</g>
<defs>
<clipPath id="clip0_1725_4942">
<rect width="100" height="100" fill="white" transform="translate(0 0.0368652)"/>
</clipPath>
</defs>
</svg>
