<svg width="85" height="30" viewBox="0 0 85 30" fill="none" xmlns="http://www.w3.org/2000/svg">
<path d="M6.20797 7.95591H8.44797C8.44797 11.8919 5.93597 14.5639 1.51997 15.6999L0.719971 14.0359C4.35197 13.1239 6.20797 11.2359 6.20797 9.01191V7.95591ZM1.56797 7.95591H7.58397V9.61991H1.56797V7.95591ZM10.816 7.10791H12.96V15.3639H10.816V7.10791ZM3.15197 15.9879H12.96V21.7639H3.15197V15.9879ZM10.864 17.6679H5.24797V20.0839H10.864V17.6679ZM15.3748 18.5319H28.7828V20.2759H15.3748V18.5319ZM20.9748 15.1879H23.1028V19.3159H20.9748V15.1879ZM16.3988 8.32391H27.6788V10.0199H16.3988V8.32391ZM16.4628 14.2279H27.6308V15.8919H16.4628V14.2279ZM18.4148 9.73191H20.5428V14.4199H18.4148V9.73191ZM23.5508 9.73191H25.6628V14.4199H23.5508V9.73191ZM30.0775 14.3079H43.5015V15.9879H30.0775V14.3079ZM35.8215 15.4119H37.9815V18.5319H35.8215V15.4119ZM31.6455 19.9559H42.0295V21.6679H31.6455V19.9559ZM31.6455 17.2359H33.7895V20.3879H31.6455V17.2359ZM36.7815 7.37991C39.9655 7.37991 42.1095 8.57991 42.1095 10.4519C42.1095 12.3399 39.9655 13.5239 36.7815 13.5239C33.5815 13.5239 31.4535 12.3399 31.4535 10.4519C31.4535 8.57991 33.5815 7.37991 36.7815 7.37991ZM36.7815 9.05991C34.9095 9.05991 33.7415 9.53991 33.7415 10.4519C33.7415 11.3639 34.9095 11.8279 36.7815 11.8279C38.6535 11.8279 39.8215 11.3639 39.8215 10.4519C39.8215 9.53991 38.6535 9.05991 36.7815 9.05991ZM62.9048 8.75591H64.6488V9.68391C64.6488 12.5159 63.3208 15.0599 60.4568 16.0039L59.4008 14.3239C61.8648 13.5079 62.9048 11.5719 62.9048 9.68391V8.75591ZM63.3368 8.75591H65.0648V9.68391C65.0648 11.4119 66.0568 13.1079 68.4408 13.8279L67.4328 15.4919C64.6168 14.6439 63.3368 12.3239 63.3368 9.68391V8.75591ZM59.9608 8.09991H67.9608V9.79591H59.9608V8.09991ZM69.1448 7.10791H71.2728V15.8919H69.1448V7.10791ZM70.6808 10.5159H73.2408V12.2599H70.6808V10.5159ZM66.4408 16.1639C69.5128 16.1639 71.4488 17.2359 71.4488 19.0439C71.4488 20.8519 69.5128 21.9239 66.4408 21.9239C63.3528 21.9239 61.4168 20.8519 61.4168 19.0439C61.4168 17.2359 63.3528 16.1639 66.4408 16.1639ZM66.4408 17.8279C64.5528 17.8279 63.5288 18.2119 63.5288 19.0439C63.5288 19.8759 64.5528 20.2919 66.4408 20.2919C68.3288 20.2919 69.3368 19.8759 69.3368 19.0439C69.3368 18.2119 68.3288 17.8279 66.4408 17.8279Z" fill="black"/>
<path d="M44.7934 18.8609L59.3752 10.5985L60.195 12.5101L45.6132 20.7726L44.7934 18.8609ZM50.1381 13.5706L52.4524 12.2592L53.5323 14.7775L51.218 16.0888L50.1381 13.5706ZM45.3656 14.9497L56.5891 8.59016L57.3852 10.4467L46.1617 16.8062L45.3656 14.9497ZM43.0245 9.49043L54.1262 3.19995L54.9223 5.05646L46.1175 10.0454L48.1118 14.6959L45.8149 15.9974L43.0245 9.49043ZM45.8599 11.3109L54.9431 6.16419L55.7077 7.94717L46.6245 13.0939L45.8599 11.3109ZM53.2098 17.4048C56.7422 15.4033 59.2211 15.2325 59.9936 17.0338C60.7739 18.8536 59.1384 20.9912 55.6061 22.9927C52.0563 25.0041 49.5853 25.1934 48.8049 23.3736C48.0324 21.5722 49.6601 19.4162 53.2098 17.4048ZM53.9823 19.2062C51.7376 20.4781 50.8371 21.3539 51.1366 22.0524C51.444 22.7693 52.5968 22.4817 54.8415 21.2098C57.0688 19.9477 57.9693 19.0719 57.6619 18.355C57.3624 17.6565 56.2096 17.9442 53.9823 19.2062Z" fill="#007CFF"/>
</svg>
