<svg width="90" height="30" viewBox="0 0 90 30" fill="none" xmlns="http://www.w3.org/2000/svg">
<path d="M77.1728 6.79563H79.3371V7.88305C79.3371 11.2016 77.689 14.1826 74.1347 15.2888L72.8242 13.3202C75.8821 12.364 77.1728 10.0954 77.1728 7.88305V6.79563ZM77.7089 6.79563H79.8534V7.88305C79.8534 9.90792 81.0845 11.8953 84.0431 12.739L82.7921 14.6889C79.2974 13.6952 77.7089 10.9766 77.7089 7.88305V6.79563ZM73.5192 6.02693H83.4474V8.0143H73.5192V6.02693ZM84.9168 4.8645H87.5577V15.1576H84.9168V4.8645ZM86.823 8.85799H90V10.9016H86.823V8.85799ZM81.561 15.4763C85.3734 15.4763 87.7761 16.7325 87.7761 18.8511C87.7761 20.9697 85.3734 22.2259 81.561 22.2259C77.7287 22.2259 75.3261 20.9697 75.3261 18.8511C75.3261 16.7325 77.7287 15.4763 81.561 15.4763ZM81.561 17.4262C79.218 17.4262 77.9472 17.8761 77.9472 18.8511C77.9472 19.826 79.218 20.3135 81.561 20.3135C83.9041 20.3135 85.155 19.826 85.155 18.8511C85.155 17.8761 83.9041 17.4262 81.561 17.4262Z" fill="black"/>
<path d="M53.0086 19.5654L71.0526 9.7966L72.0598 12.0407L54.0158 21.8095L53.0086 19.5654ZM59.6292 13.3258L62.493 11.7753L63.8197 14.7316L60.956 16.282L59.6292 13.3258ZM53.7275 14.9652L67.6157 7.4463L68.5939 9.62571L54.7056 17.1446L53.7275 14.9652ZM50.8512 8.55645L64.5887 1.11913L65.5668 3.29854L54.6716 9.1971L57.1218 14.6564L54.2795 16.1952L50.8512 8.55645ZM54.3494 10.6858L65.5892 4.60068L66.5286 6.69378L55.2888 12.7789L54.3494 10.6858ZM63.4133 17.8215C67.7844 15.4551 70.8481 15.2448 71.7972 17.3594C72.756 19.4957 70.7285 22.0149 66.3575 24.3813C61.9649 26.7594 58.9108 26.9913 57.952 24.855C57.003 22.7404 59.0208 20.1996 63.4133 17.8215ZM64.3624 19.9362C61.5848 21.44 60.4693 22.473 60.8374 23.293C61.2151 24.1345 62.6404 23.792 65.4181 22.2882C68.1742 20.7961 69.2896 19.7631 68.9119 18.9215C68.5439 18.1015 67.1186 18.4441 64.3624 19.9362Z" fill="#007CFF"/>
<path d="M36.4335 13.3016H53.093V15.2702H36.4335V13.3016ZM43.5619 14.5952H46.2425V18.2512H43.5619V14.5952ZM38.3794 19.9199H51.2662V21.926H38.3794V19.9199ZM38.3794 16.7326H41.0402V20.4261H38.3794V16.7326ZM44.7533 5.18335C48.7047 5.18335 51.3655 6.58951 51.3655 8.78311C51.3655 10.9955 48.7047 12.3829 44.7533 12.3829C40.782 12.3829 38.1411 10.9955 38.1411 8.78311C38.1411 6.58951 40.782 5.18335 44.7533 5.18335ZM44.7533 7.15197C42.4301 7.15197 40.9806 7.71443 40.9806 8.78311C40.9806 9.85179 42.4301 10.3955 44.7533 10.3955C47.0765 10.3955 48.526 9.85179 48.526 8.78311C48.526 7.71443 47.0765 7.15197 44.7533 7.15197Z" fill="black"/>
<path d="M18.187 18.2515H34.8267V20.2951H18.187V18.2515ZM25.1367 14.333H27.7776V19.1702H25.1367V14.333ZM19.4578 6.28979H33.4566V8.27716H19.4578V6.28979ZM19.5372 13.2081H33.397V15.158H19.5372V13.2081ZM21.9597 7.93969H24.6006V13.4331H21.9597V7.93969ZM28.3336 7.93969H30.9547V13.4331H28.3336V7.93969Z" fill="black"/>
<path d="M6.81074 5.85819H9.59063C9.59063 10.4704 6.47318 13.6014 0.992819 14.9326L0 12.9827C4.5074 11.914 6.81074 9.70168 6.81074 7.0956V5.85819ZM1.05239 5.85819H8.51838V7.80806H1.05239V5.85819ZM12.5294 4.8645H15.1901V14.5389H12.5294V4.8645ZM3.01817 15.2701H15.1901V22.0384H3.01817V15.2701ZM12.5889 17.2387H5.61935V20.0698H12.5889V17.2387Z" fill="black"/>
</svg>
