<svg width="25" height="25" viewBox="0 0 25 25" fill="none" xmlns="http://www.w3.org/2000/svg">
<path d="M10.83 15.5087C10.9705 15.6494 11.0494 15.84 11.0494 16.0387C11.0494 16.2375 10.9705 16.4281 10.83 16.5687L8.83002 18.5687C8.42537 18.9736 7.87683 19.2016 7.30446 19.2029C6.73209 19.2042 6.18251 18.9787 5.77602 18.5757C5.70409 18.507 5.64657 18.4246 5.60681 18.3333C5.56704 18.2421 5.54583 18.1439 5.54442 18.0444C5.543 17.9449 5.5614 17.8461 5.59854 17.7537C5.63568 17.6614 5.69083 17.5774 5.76077 17.5066C5.83071 17.4358 5.91403 17.3796 6.0059 17.3414C6.09776 17.3031 6.19632 17.2835 6.29584 17.2837C6.39536 17.2839 6.49384 17.3039 6.58555 17.3425C6.67726 17.3812 6.76036 17.4377 6.83002 17.5087C7.08902 17.7687 7.51002 17.7687 7.76902 17.5087L9.76902 15.5087C9.90964 15.3683 10.1003 15.2894 10.299 15.2894C10.4978 15.2894 10.6894 15.3683 10.83 15.5087ZM13.601 3.56374C14.5521 2.61267 15.842 2.07837 17.187 2.07837C18.532 2.07837 19.8219 2.61267 20.773 3.56374C21.7241 4.51481 22.2584 5.80473 22.2584 7.14974C22.2584 8.49475 21.7241 9.78467 20.773 10.7357L10.995 20.5137C10.0439 21.4648 8.75403 21.9991 7.40902 21.9991C6.06401 21.9991 4.77408 21.4648 3.82302 20.5137C2.87195 19.5627 2.33765 18.2728 2.33765 16.9277C2.33765 15.5827 2.87195 14.2928 3.82302 13.3417L13.601 3.56374ZM19.712 4.62474C19.0423 3.95509 18.1341 3.5789 17.187 3.5789C16.24 3.5789 15.3317 3.95509 14.662 4.62474L10.303 8.98374L15.353 14.0337L19.713 9.67474C20.3827 9.00505 20.7589 8.09679 20.7589 7.14974C20.7589 6.20269 20.3817 5.29443 19.712 4.62474ZM14.294 15.0947L9.24402 10.0447L4.88502 14.4027C4.54913 14.7334 4.28202 15.1272 4.09908 15.5616C3.91615 15.996 3.82101 16.4623 3.81916 16.9336C3.8173 17.4049 3.90876 17.8719 4.08827 18.3077C4.26778 18.7435 4.53178 19.1394 4.86505 19.4727C5.19832 19.806 5.59427 20.07 6.03007 20.2495C6.46586 20.429 6.93288 20.5205 7.40419 20.5186C7.8755 20.5167 8.34179 20.4216 8.77616 20.2387C9.21052 20.0557 9.60438 19.7886 9.93502 19.4527L14.294 15.0947Z" fill="#007CFF"/>
</svg>
