<svg width="512" height="512" viewBox="0 0 512 512" fill="none" xmlns="http://www.w3.org/2000/svg">
<g clip-path="url(#clip0_1652_5047)">
<path d="M256 0C114.837 0 0 114.837 0 256C0 397.163 114.837 512 256 512C397.163 512 512 397.163 512 256C512 114.837 397.163 0 256 0ZM256 469.333C138.368 469.333 42.6667 373.632 42.6667 256C42.6667 138.368 138.368 42.6667 256 42.6667C373.632 42.6667 469.333 138.368 469.333 256C469.333 373.632 373.632 469.333 256 469.333ZM362.667 256C362.667 267.776 353.109 277.333 341.333 277.333H170.667C158.891 277.333 149.333 267.776 149.333 256C149.333 244.224 158.891 234.667 170.667 234.667H341.333C353.109 234.667 362.667 244.224 362.667 256Z" fill="#CACDD2"/>
</g>
<defs>
<clipPath id="clip0_1652_5047">
<rect width="512" height="512" fill="white"/>
</clipPath>
</defs>
</svg>
