<svg width="512" height="512" viewBox="0 0 512 512" fill="none" xmlns="http://www.w3.org/2000/svg">
<g clip-path="url(#clip0_1681_3902)">
<path d="M256 512C114.837 512 0 397.163 0 256C0 114.837 114.837 0 256 0C397.163 0 512 114.837 512 256C512 397.163 397.163 512 256 512ZM256 42.6667C138.368 42.6667 42.6667 138.368 42.6667 256C42.6667 373.632 138.368 469.333 256 469.333C373.632 469.333 469.333 373.632 469.333 256C469.333 138.368 373.632 42.6667 256 42.6667ZM362.667 256C362.667 244.203 353.131 234.667 341.333 234.667H277.333V128C277.333 116.203 267.776 106.667 256 106.667C244.224 106.667 234.667 116.203 234.667 128V256C234.667 267.797 244.224 277.333 256 277.333H341.333C353.131 277.333 362.667 267.797 362.667 256Z" fill="#00D4EA"/>
</g>
<defs>
<clipPath id="clip0_1681_3902">
<rect width="512" height="512" fill="white"/>
</clipPath>
</defs>
</svg>
