<svg width="512" height="512" viewBox="0 0 512 512" fill="none" xmlns="http://www.w3.org/2000/svg">
<path d="M507.605 240.825L392.811 64.9C368.768 28.025 330.752 6 291.115 6H106.667C47.8507 6 0 62.075 0 131V381C0 449.925 47.8507 506 106.667 506H291.115C330.731 506 368.768 483.975 392.789 447.125L507.605 271.2C513.451 262.25 513.451 249.8 507.605 240.825ZM358.891 416.775C342.869 441.35 317.547 456.025 291.115 456.025H106.667C71.3813 456.025 42.6667 422.375 42.6667 381.025V131C42.6667 89.65 71.3813 56 106.667 56H291.115C317.525 56 342.869 70.675 358.912 95.25L463.808 256L358.891 416.775ZM292.416 198.7L243.499 256.025L292.416 313.35C300.757 323.125 300.757 338.925 292.416 348.7C288.256 353.575 282.795 356.025 277.333 356.025C271.872 356.025 266.411 353.575 262.251 348.7L213.333 291.375L164.416 348.7C160.256 353.575 154.795 356.025 149.333 356.025C143.872 356.025 138.411 353.575 134.251 348.7C125.909 338.925 125.909 323.125 134.251 313.35L183.168 256.025L134.251 198.7C125.909 188.925 125.909 173.125 134.251 163.35C142.592 153.575 156.075 153.575 164.416 163.35L213.333 220.675L262.251 163.35C270.592 153.575 284.075 153.575 292.416 163.35C300.757 173.125 300.757 188.925 292.416 198.7Z" fill="#FF2A6D"/>
</svg>
