<svg width="33" height="33" viewBox="0 0 33 33" fill="none" xmlns="http://www.w3.org/2000/svg">
<path fill-rule="evenodd" clip-rule="evenodd" d="M26.9763 17.594C26.9763 20.5114 25.8725 23.3093 23.9079 25.3722C21.9432 27.4351 19.2785 28.594 16.5001 28.594C13.7216 28.594 11.057 27.4351 9.0923 25.3722C7.12763 23.3093 6.02389 20.5114 6.02389 17.594C6.02389 14.6766 7.12763 11.8787 9.0923 9.81582C11.057 7.75292 13.7216 6.59399 16.5001 6.59399C19.2785 6.59399 21.9432 7.75292 23.9079 9.81582C25.8725 11.8787 26.9763 14.6766 26.9763 17.594ZM29.8334 17.594C29.8334 21.307 28.4287 24.868 25.9282 27.4935C23.4277 30.119 20.0363 31.594 16.5001 31.594C12.9639 31.594 9.57248 30.119 7.07199 27.4935C4.57151 24.868 3.16675 21.307 3.16675 17.594C3.16675 13.881 4.57151 10.32 7.07199 7.6945C9.57248 5.06899 12.9639 3.59399 16.5001 3.59399C20.0363 3.59399 23.4277 5.06899 25.9282 7.6945C28.4287 10.32 29.8334 13.881 29.8334 17.594ZM13.9667 20.924C13.7868 20.5886 13.4908 20.3387 13.1402 20.226C12.7896 20.1133 12.4112 20.1465 12.0833 20.3187C11.7553 20.4909 11.503 20.7888 11.3785 21.1509C11.254 21.5131 11.2668 21.9116 11.4144 22.264C12.182 23.882 14.1801 25.094 16.5001 25.094C18.8201 25.094 20.8182 23.882 21.5858 22.264C21.6808 22.0869 21.7406 21.8915 21.7614 21.6894C21.7823 21.4874 21.7639 21.283 21.7072 21.0887C21.6506 20.8943 21.5569 20.7141 21.4319 20.5589C21.3069 20.4038 21.1532 20.2769 20.9801 20.186C20.807 20.0951 20.6181 20.0421 20.4248 20.0302C20.2316 20.0183 20.0381 20.0478 19.8561 20.1168C19.674 20.1858 19.5072 20.293 19.3658 20.4317C19.2244 20.5705 19.1113 20.738 19.0334 20.924C18.8487 21.306 17.9896 22.094 16.5001 22.094C15.0106 22.094 14.1515 21.306 13.9667 20.924ZM20.3096 17.594C19.9307 17.594 19.5674 17.436 19.2995 17.1547C19.0315 16.8734 18.881 16.4918 18.881 16.094V14.094C18.881 13.6962 19.0315 13.3146 19.2995 13.0333C19.5674 12.752 19.9307 12.594 20.3096 12.594C20.6885 12.594 21.0518 12.752 21.3198 13.0333C21.5877 13.3146 21.7382 13.6962 21.7382 14.094V16.094C21.7382 16.4918 21.5877 16.8734 21.3198 17.1547C21.0518 17.436 20.6885 17.594 20.3096 17.594ZM11.262 16.094C11.262 16.4918 11.4125 16.8734 11.6804 17.1547C11.9483 17.436 12.3117 17.594 12.6906 17.594C13.0694 17.594 13.4328 17.436 13.7007 17.1547C13.9686 16.8734 14.1191 16.4918 14.1191 16.094V14.094C14.1191 13.6962 13.9686 13.3146 13.7007 13.0333C13.4328 12.752 13.0694 12.594 12.6906 12.594C12.3117 12.594 11.9483 12.752 11.6804 13.0333C11.4125 13.3146 11.262 13.6962 11.262 14.094V16.094Z" fill="black"/>
</svg>
