<svg width="512" height="512" viewBox="0 0 512 512" fill="none" xmlns="http://www.w3.org/2000/svg">
<g clip-path="url(#clip0_1652_5061)">
<path d="M373.333 40.896C349.311 41.2696 325.812 47.9755 305.211 60.3364C284.609 72.6974 267.634 90.2756 256 111.296C244.366 90.2756 227.391 72.6974 206.789 60.3364C186.188 47.9755 162.689 41.2696 138.667 40.896C100.372 42.5598 64.2924 59.3121 38.31 87.493C12.3277 115.674 -1.44534 152.993 5.38677e-06 191.296C5.38677e-06 288.299 102.101 394.24 187.733 466.069C206.853 482.136 231.026 490.945 256 490.945C280.974 490.945 305.147 482.136 324.267 466.069C409.899 394.24 512 288.299 512 191.296C513.445 152.993 499.672 115.674 473.69 87.493C447.708 59.3121 411.628 42.5598 373.333 40.896ZM296.853 433.429C285.418 443.059 270.949 448.339 256 448.339C241.051 448.339 226.582 443.059 215.147 433.429C105.536 341.461 42.6667 253.227 42.6667 191.296C41.2083 164.303 50.4825 137.829 68.4664 117.647C86.4504 97.465 111.685 85.2128 138.667 83.5627C165.648 85.2128 190.883 97.465 208.867 117.647C226.851 137.829 236.125 164.303 234.667 191.296C234.667 196.954 236.914 202.38 240.915 206.381C244.916 210.382 250.342 212.629 256 212.629C261.658 212.629 267.084 210.382 271.085 206.381C275.086 202.38 277.333 196.954 277.333 191.296C275.875 164.303 285.149 137.829 303.133 117.647C321.117 97.465 346.352 85.2128 373.333 83.5627C400.315 85.2128 425.55 97.465 443.534 117.647C461.518 137.829 470.792 164.303 469.333 191.296C469.333 253.227 406.464 341.461 296.853 433.344V433.429Z" fill="#9FA4A9"/>
</g>
<defs>
<clipPath id="clip0_1652_5061">
<rect width="512" height="512" fill="white"/>
</clipPath>
</defs>
</svg>
