<svg width="64" height="64" viewBox="0 0 64 64" fill="none" xmlns="http://www.w3.org/2000/svg">
<g clip-path="url(#clip0_1652_5076)">
<path d="M62 32C62 15.4315 48.5685 2 32 2C15.4315 2 2 15.4315 2 32C2 48.5685 15.4315 62 32 62C48.5685 62 62 48.5685 62 32Z" fill="url(#paint0_linear_1652_5076)"/>
<path d="M62 32C62 15.4315 48.5685 2 32 2C15.4315 2 2 15.4315 2 32C2 48.5685 15.4315 62 32 62C48.5685 62 62 48.5685 62 32Z" stroke="white" stroke-width="4"/>
<mask id="mask0_1652_5076" style="mask-type:luminance" maskUnits="userSpaceOnUse" x="20" y="20" width="24" height="24">
<path d="M44 20H20V44H44V20Z" fill="white"/>
</mask>
<g mask="url(#mask0_1652_5076)">
<path d="M42 25.724V22C42 21.448 41.553 21 41 21C40.447 21 40 21.448 40 22V24.366L34.797 20.855C33.098 19.709 30.902 19.709 29.203 20.855L22.203 25.579C20.824 26.51 20 28.059 20 29.724V39C20 41.757 22.243 44 25 44H28C28.553 44 29 43.552 29 43V35C29 34.449 29.448 34 30 34H34C34.552 34 35 34.449 35 35V43C35 43.552 35.447 44 36 44H39C41.757 44 44 41.757 44 39V29.724C44 28.143 43.256 26.666 42 25.724ZM42 39C42 40.654 40.654 42 39 42H37V35C37 33.346 35.654 32 34 32H30C28.346 32 27 33.346 27 35V42H25C23.346 42 22 40.654 22 39V29.724C22 28.725 22.494 27.795 23.322 27.237L30.322 22.513C31.342 21.825 32.658 21.825 33.677 22.513L40.677 27.237C41.505 27.795 41.999 28.725 41.999 29.724L42 39Z" fill="white"/>
</g>
</g>
<defs>
<linearGradient id="paint0_linear_1652_5076" x1="87.238" y1="-14.2881" x2="11.738" y2="54.7119" gradientUnits="userSpaceOnUse">
<stop stop-color="#11E4FA"/>
<stop offset="1" stop-color="#0F6ED2"/>
</linearGradient>
<clipPath id="clip0_1652_5076">
<rect width="64" height="64" fill="white"/>
</clipPath>
</defs>
</svg>
