<svg width="32" height="33" viewBox="0 0 32 33" fill="none" xmlns="http://www.w3.org/2000/svg">
<path d="M25.3334 6.26066H22.6667V4.92733C22.6667 4.57371 22.5263 4.23457 22.2762 3.98452C22.0262 3.73447 21.687 3.59399 21.3334 3.59399C20.9798 3.59399 20.6407 3.73447 20.3906 3.98452C20.1406 4.23457 20.0001 4.57371 20.0001 4.92733V6.26066H12.0001V4.92733C12.0001 4.57371 11.8596 4.23457 11.6096 3.98452C11.3595 3.73447 11.0204 3.59399 10.6667 3.59399C10.3131 3.59399 9.97399 3.73447 9.72394 3.98452C9.47389 4.23457 9.33342 4.57371 9.33342 4.92733V6.26066H6.66675C5.60588 6.26066 4.58847 6.68209 3.83832 7.43223C3.08818 8.18238 2.66675 9.1998 2.66675 10.2607V26.2607C2.66675 27.3215 3.08818 28.3389 3.83832 29.0891C4.58847 29.8392 5.60588 30.2607 6.66675 30.2607H25.3334C26.3943 30.2607 27.4117 29.8392 28.1618 29.0891C28.912 28.3389 29.3334 27.3215 29.3334 26.2607V10.2607C29.3334 9.1998 28.912 8.18238 28.1618 7.43223C27.4117 6.68209 26.3943 6.26066 25.3334 6.26066ZM26.6667 26.2607C26.6667 26.6143 26.5263 26.9534 26.2762 27.2035C26.0262 27.4535 25.687 27.594 25.3334 27.594H6.66675C6.31313 27.594 5.97399 27.4535 5.72394 27.2035C5.47389 26.9534 5.33341 26.6143 5.33341 26.2607V16.9273H26.6667V26.2607ZM26.6667 14.2607H5.33341V10.2607C5.33341 9.90704 5.47389 9.5679 5.72394 9.31785C5.97399 9.0678 6.31313 8.92733 6.66675 8.92733H9.33342V10.2607C9.33342 10.6143 9.47389 10.9534 9.72394 11.2035C9.97399 11.4535 10.3131 11.594 10.6667 11.594C11.0204 11.594 11.3595 11.4535 11.6096 11.2035C11.8596 10.9534 12.0001 10.6143 12.0001 10.2607V8.92733H20.0001V10.2607C20.0001 10.6143 20.1406 10.9534 20.3906 11.2035C20.6407 11.4535 20.9798 11.594 21.3334 11.594C21.687 11.594 22.0262 11.4535 22.2762 11.2035C22.5263 10.9534 22.6667 10.6143 22.6667 10.2607V8.92733H25.3334C25.687 8.92733 26.0262 9.0678 26.2762 9.31785C26.5263 9.5679 26.6667 9.90704 26.6667 10.2607V14.2607Z" fill="black"/>
</svg>
