<svg width="512" height="512" viewBox="0 0 512 512" fill="none" xmlns="http://www.w3.org/2000/svg">
<g clip-path="url(#clip0_1652_5063)">
<path d="M256 512C205.368 512 155.873 496.986 113.774 468.856C71.6751 440.727 38.863 400.745 19.487 353.967C0.110921 307.189 -4.95873 255.716 4.91908 206.057C14.7969 156.398 39.1785 110.783 74.9808 74.9808C110.783 39.1785 156.398 14.7969 206.057 4.91908C255.716 -4.95873 307.189 0.110921 353.967 19.487C400.745 38.863 440.727 71.6751 468.856 113.774C496.986 155.873 512 205.368 512 256C511.927 323.873 484.932 388.945 436.938 436.938C388.945 484.932 323.873 511.927 256 512ZM256 42.6668C213.807 42.6668 172.561 55.1786 137.478 78.6199C102.396 102.061 75.0525 135.379 58.9058 174.361C42.7591 213.343 38.5344 256.237 46.7659 297.619C54.9974 339.002 75.3155 377.014 105.151 406.85C134.986 436.685 172.998 457.003 214.381 465.234C255.763 473.466 298.658 469.241 337.639 453.094C376.621 436.948 409.939 409.604 433.38 374.522C456.822 339.439 469.333 298.193 469.333 256C469.271 199.44 446.775 145.214 406.781 105.219C366.787 65.225 312.561 42.7289 256 42.6668ZM376.875 335.915C381.101 332.152 383.66 326.865 383.988 321.216C384.316 315.567 382.387 310.019 378.624 305.792C374.862 301.566 369.574 299.007 363.925 298.679C358.276 298.351 352.728 300.28 348.501 304.043C322.422 326.001 290.017 339.064 256 341.333C222.004 339.066 189.616 326.018 163.541 304.085C159.321 300.317 153.776 298.38 148.127 298.7C142.478 299.02 137.187 301.571 133.419 305.792C129.651 310.013 127.713 315.558 128.034 321.207C128.354 326.856 130.905 332.147 135.125 335.915C169 364.854 211.503 381.762 256 384C300.497 381.762 343 364.854 376.875 335.915ZM128 213.333C128 234.667 147.093 234.667 170.667 234.667C194.24 234.667 213.333 234.667 213.333 213.333C213.333 202.018 208.838 191.165 200.837 183.164C192.835 175.162 181.983 170.667 170.667 170.667C159.351 170.667 148.498 175.162 140.497 183.164C132.495 191.165 128 202.018 128 213.333ZM298.667 213.333C298.667 234.667 317.76 234.667 341.333 234.667C364.907 234.667 384 234.667 384 213.333C384 202.018 379.505 191.165 371.503 183.164C363.502 175.162 352.649 170.667 341.333 170.667C330.018 170.667 319.165 175.162 311.164 183.164C303.162 191.165 298.667 202.018 298.667 213.333Z" fill="black"/>
</g>
<defs>
<clipPath id="clip0_1652_5063">
<rect width="512" height="512" fill="white"/>
</clipPath>
</defs>
</svg>
