<svg width="512" height="512" viewBox="0 0 512 512" fill="none" xmlns="http://www.w3.org/2000/svg">
<g clip-path="url(#clip0_1652_5059)">
<path d="M469.333 122.112V42.6667C469.333 30.8907 459.797 21.3333 448 21.3333C436.203 21.3333 426.667 30.8907 426.667 42.6667V93.1413L315.669 18.24C279.424 -6.20801 232.576 -6.20801 196.331 18.24L46.9973 119.019C17.5787 138.88 0 171.925 0 207.445V405.333C0 464.149 47.8507 512 106.667 512H170.667C182.464 512 192 502.443 192 490.667V320C192 308.245 201.557 298.667 213.333 298.667H298.667C310.443 298.667 320 308.245 320 320V490.667C320 502.443 329.536 512 341.333 512H405.333C464.149 512 512 464.149 512 405.333V207.445C512 173.717 496.128 142.208 469.333 122.112ZM469.333 405.333C469.333 440.619 440.619 469.333 405.333 469.333H362.667V320C362.667 284.715 333.952 256 298.667 256H213.333C178.048 256 149.333 284.715 149.333 320V469.333H106.667C71.3813 469.333 42.6667 440.619 42.6667 405.333V207.445C42.6667 186.133 53.2053 166.293 70.8693 154.389L220.203 53.6107C241.963 38.9333 270.037 38.9333 291.776 53.6107L441.109 154.389C458.773 166.293 469.312 186.133 469.312 207.445L469.333 405.333Z" fill="#9FA4A9"/>
</g>
<defs>
<clipPath id="clip0_1652_5059">
<rect width="512" height="512" fill="white"/>
</clipPath>
</defs>
</svg>
