<svg width="32" height="33" viewBox="0 0 32 33" fill="none" xmlns="http://www.w3.org/2000/svg">
<path fill-rule="evenodd" clip-rule="evenodd" d="M7 6.92725H11C11.2652 6.92725 11.5196 7.0326 11.7071 7.22014C11.8946 7.40768 12 7.66203 12 7.92725V11.9272C12 12.1925 11.8946 12.4468 11.7071 12.6344C11.5196 12.8219 11.2652 12.9272 11 12.9272H7C6.73478 12.9272 6.48043 12.8219 6.29289 12.6344C6.10536 12.4468 6 12.1925 6 11.9272V7.92725C6 7.66203 6.10536 7.40768 6.29289 7.22014C6.48043 7.0326 6.73478 6.92725 7 6.92725ZM3 7.92725C3 6.86638 3.42143 5.84896 4.17157 5.09882C4.92172 4.34867 5.93913 3.92725 7 3.92725H11C12.0609 3.92725 13.0783 4.34867 13.8284 5.09882C14.5786 5.84896 15 6.86638 15 7.92725V11.9272C15 12.9881 14.5786 14.0055 13.8284 14.7557C13.0783 15.5058 12.0609 15.9272 11 15.9272H7C5.93913 15.9272 4.92172 15.5058 4.17157 14.7557C3.42143 14.0055 3 12.9881 3 11.9272V7.92725ZM21 6.92725H25C25.2652 6.92725 25.5196 7.0326 25.7071 7.22014C25.8946 7.40768 26 7.66203 26 7.92725V11.9272C26 12.1925 25.8946 12.4468 25.7071 12.6344C25.5196 12.8219 25.2652 12.9272 25 12.9272H21C20.7348 12.9272 20.4804 12.8219 20.2929 12.6344C20.1054 12.4468 20 12.1925 20 11.9272V7.92725C20 7.66203 20.1054 7.40768 20.2929 7.22014C20.4804 7.0326 20.7348 6.92725 21 6.92725ZM17 7.92725C17 6.86638 17.4214 5.84896 18.1716 5.09882C18.9217 4.34867 19.9391 3.92725 21 3.92725H25C26.0609 3.92725 27.0783 4.34867 27.8284 5.09882C28.5786 5.84896 29 6.86638 29 7.92725V11.9272C29 12.9881 28.5786 14.0055 27.8284 14.7557C27.0783 15.5058 26.0609 15.9272 25 15.9272H21C19.9391 15.9272 18.9217 15.5058 18.1716 14.7557C17.4214 14.0055 17 12.9881 17 11.9272V7.92725ZM11 20.9272H7C6.73478 20.9272 6.48043 21.0326 6.29289 21.2201C6.10536 21.4077 6 21.662 6 21.9272V25.9272C6 26.1925 6.10536 26.4468 6.29289 26.6344C6.48043 26.8219 6.73478 26.9272 7 26.9272H11C11.2652 26.9272 11.5196 26.8219 11.7071 26.6344C11.8946 26.4468 12 26.1925 12 25.9272V21.9272C12 21.662 11.8946 21.4077 11.7071 21.2201C11.5196 21.0326 11.2652 20.9272 11 20.9272ZM7 17.9272C5.93913 17.9272 4.92172 18.3487 4.17157 19.0988C3.42143 19.849 3 20.8664 3 21.9272V25.9272C3 26.9881 3.42143 28.0055 4.17157 28.7557C4.92172 29.5058 5.93913 29.9272 7 29.9272H11C12.0609 29.9272 13.0783 29.5058 13.8284 28.7557C14.5786 28.0055 15 26.9881 15 25.9272V21.9272C15 20.8664 14.5786 19.849 13.8284 19.0988C13.0783 18.3487 12.0609 17.9272 11 17.9272H7ZM21 20.9272H25C25.2652 20.9272 25.5196 21.0326 25.7071 21.2201C25.8946 21.4077 26 21.662 26 21.9272V25.9272C26 26.1925 25.8946 26.4468 25.7071 26.6344C25.5196 26.8219 25.2652 26.9272 25 26.9272H21C20.7348 26.9272 20.4804 26.8219 20.2929 26.6344C20.1054 26.4468 20 26.1925 20 25.9272V21.9272C20 21.662 20.1054 21.4077 20.2929 21.2201C20.4804 21.0326 20.7348 20.9272 21 20.9272ZM17 21.9272C17 20.8664 17.4214 19.849 18.1716 19.0988C18.9217 18.3487 19.9391 17.9272 21 17.9272H25C26.0609 17.9272 27.0783 18.3487 27.8284 19.0988C28.5786 19.849 29 20.8664 29 21.9272V25.9272C29 26.9881 28.5786 28.0055 27.8284 28.7557C27.0783 29.5058 26.0609 29.9272 25 29.9272H21C19.9391 29.9272 18.9217 29.5058 18.1716 28.7557C17.4214 28.0055 17 26.9881 17 25.9272V21.9272Z" fill="black"/>
</svg>
