<svg width="33" height="33" viewBox="0 0 33 33" fill="none" xmlns="http://www.w3.org/2000/svg">
<path d="M29.8333 12.7432C29.8379 14.7949 29.0475 16.7686 27.628 18.2499C24.3733 21.6246 21.216 25.1432 17.8413 28.3939C17.0667 29.1272 15.8387 29.1006 15.0987 28.3339L5.37199 18.2512C2.43199 15.2032 2.43199 10.2832 5.37199 7.23658C6.06685 6.50724 6.90258 5.92661 7.82851 5.52988C8.75445 5.13315 9.75131 4.92858 10.7587 4.92858C11.766 4.92858 12.7629 5.13315 13.6888 5.52988C14.6147 5.92661 15.4505 6.50724 16.1453 7.23658L16.5 7.60191L16.8533 7.23658C17.5496 6.50897 18.3856 5.9294 19.3112 5.53258C20.2368 5.13577 21.2329 4.92988 22.24 4.92725C24.2667 4.92725 26.204 5.75925 27.6267 7.23658C29.0467 8.7177 29.8376 10.6914 29.8333 12.7432Z" stroke="black" stroke-width="3" stroke-linejoin="round"/>
</svg>
