<svg width="512" height="512" viewBox="0 0 512 512" fill="none" xmlns="http://www.w3.org/2000/svg">
<g clip-path="url(#clip0_1652_5054)">
<path d="M149.333 0H85.3333C62.7015 0 40.9967 8.99045 24.9936 24.9936C8.99045 40.9967 0 62.7015 0 85.3333L0 149.333C0 171.965 8.99045 193.67 24.9936 209.673C40.9967 225.676 62.7015 234.667 85.3333 234.667H149.333C171.965 234.667 193.67 225.676 209.673 209.673C225.676 193.67 234.667 171.965 234.667 149.333V85.3333C234.667 62.7015 225.676 40.9967 209.673 24.9936C193.67 8.99045 171.965 0 149.333 0ZM192 149.333C192 160.649 187.505 171.502 179.503 179.503C171.502 187.505 160.649 192 149.333 192H85.3333C74.0174 192 63.165 187.505 55.1634 179.503C47.1619 171.502 42.6667 160.649 42.6667 149.333V85.3333C42.6667 74.0174 47.1619 63.165 55.1634 55.1634C63.165 47.1619 74.0174 42.6667 85.3333 42.6667H149.333C160.649 42.6667 171.502 47.1619 179.503 55.1634C187.505 63.165 192 74.0174 192 85.3333V149.333Z" fill="#9FA4A9"/>
<path d="M149.333 277.333H85.3333C62.7015 277.333 40.9967 286.324 24.9936 302.327C8.99045 318.33 0 340.035 0 362.667L0 426.667C0 449.298 8.99045 471.003 24.9936 487.006C40.9967 503.01 62.7015 512 85.3333 512H149.333C171.965 512 193.67 503.01 209.673 487.006C225.676 471.003 234.667 449.298 234.667 426.667V362.667C234.667 340.035 225.676 318.33 209.673 302.327C193.67 286.324 171.965 277.333 149.333 277.333ZM192 426.667C192 437.983 187.505 448.835 179.503 456.837C171.502 464.838 160.649 469.333 149.333 469.333H85.3333C74.0174 469.333 63.165 464.838 55.1634 456.837C47.1619 448.835 42.6667 437.983 42.6667 426.667V362.667C42.6667 351.351 47.1619 340.498 55.1634 332.497C63.165 324.495 74.0174 320 85.3333 320H149.333C160.649 320 171.502 324.495 179.503 332.497C187.505 340.498 192 351.351 192 362.667V426.667Z" fill="#9FA4A9"/>
<path d="M426.667 277.333H362.667C340.035 277.333 318.33 286.324 302.327 302.327C286.324 318.33 277.333 340.035 277.333 362.667V426.667C277.333 449.298 286.324 471.003 302.327 487.006C318.33 503.01 340.035 512 362.667 512H426.667C449.299 512 471.003 503.01 487.007 487.006C503.01 471.003 512 449.298 512 426.667V362.667C512 340.035 503.01 318.33 487.007 302.327C471.003 286.324 449.299 277.333 426.667 277.333ZM469.334 426.667C469.334 437.983 464.838 448.835 456.837 456.837C448.835 464.838 437.983 469.333 426.667 469.333H362.667C351.351 469.333 340.499 464.838 332.497 456.837C324.495 448.835 320 437.983 320 426.667V362.667C320 351.351 324.495 340.498 332.497 332.497C340.499 324.495 351.351 320 362.667 320H426.667C437.983 320 448.835 324.495 456.837 332.497C464.838 340.498 469.334 351.351 469.334 362.667V426.667Z" fill="#9FA4A9"/>
<path d="M298.667 149.333H362.667V213.333C362.667 218.991 364.914 224.417 368.915 228.418C372.916 232.419 378.342 234.667 384 234.667C389.658 234.667 395.084 232.419 399.085 228.418C403.086 224.417 405.333 218.991 405.333 213.333V149.333H469.334C474.991 149.333 480.418 147.086 484.418 143.085C488.419 139.084 490.667 133.658 490.667 128C490.667 122.342 488.419 116.916 484.418 112.915C480.418 108.914 474.991 106.667 469.334 106.667H405.333V42.6667C405.333 37.0087 403.086 31.5825 399.085 27.5817C395.084 23.5809 389.658 21.3333 384 21.3333C378.342 21.3333 372.916 23.5809 368.915 27.5817C364.914 31.5825 362.667 37.0087 362.667 42.6667V106.667H298.667C293.009 106.667 287.583 108.914 283.582 112.915C279.581 116.916 277.333 122.342 277.333 128C277.333 133.658 279.581 139.084 283.582 143.085C287.583 147.086 293.009 149.333 298.667 149.333Z" fill="#9FA4A9"/>
</g>
<defs>
<clipPath id="clip0_1652_5054">
<rect width="512" height="512" fill="white"/>
</clipPath>
</defs>
</svg>
