<svg width="33" height="33" viewBox="0 0 33 33" fill="none" xmlns="http://www.w3.org/2000/svg">
<path d="M14.6453 1.92203C15.2658 1.42492 16.0372 1.15405 16.8323 1.15405C17.6273 1.15405 18.3987 1.42492 19.0193 1.92203L29.5193 10.322C30.3493 10.986 30.8333 11.992 30.8333 13.056V27.094C30.8333 28.0223 30.4645 28.9125 29.8081 29.5689C29.1517 30.2253 28.2615 30.594 27.3333 30.594H20.3333C19.9354 30.594 19.5539 30.436 19.2726 30.1547C18.9913 29.8734 18.8333 29.4919 18.8333 29.094V18.594H14.8333V29.094C14.8333 29.4919 14.6752 29.8734 14.3939 30.1547C14.1126 30.436 13.7311 30.594 13.3333 30.594H6.33325C5.40499 30.594 4.51476 30.2253 3.85838 29.5689C3.202 28.9125 2.83325 28.0223 2.83325 27.094V13.054C2.83325 11.992 3.31725 10.986 4.14725 10.322L14.6453 1.92203ZM17.1453 4.26403C17.0567 4.19328 16.9466 4.15474 16.8333 4.15474C16.7199 4.15474 16.6099 4.19328 16.5213 4.26403L6.02125 12.664C5.96243 12.711 5.91497 12.7707 5.88242 12.8385C5.84986 12.9064 5.83306 12.9808 5.83325 13.056V27.094C5.83325 27.37 6.05725 27.594 6.33325 27.594H11.8333V17.094C11.8333 16.6962 11.9913 16.3147 12.2726 16.0334C12.5539 15.7521 12.9354 15.594 13.3333 15.594H20.3333C20.7311 15.594 21.1126 15.7521 21.3939 16.0334C21.6752 16.3147 21.8333 16.6962 21.8333 17.094V27.594H27.3333C27.4659 27.594 27.593 27.5414 27.6868 27.4476C27.7806 27.3538 27.8333 27.2266 27.8333 27.094V13.054C27.8331 12.9791 27.8162 12.9051 27.7837 12.8376C27.7511 12.7701 27.7038 12.7108 27.6453 12.664L17.1453 4.26403Z" fill="white"/>
</svg>
