<svg width="27" height="27" viewBox="0 0 27 27" fill="none" xmlns="http://www.w3.org/2000/svg">
<path d="M18.5193 1.14648L16.0615 3.6043L22.6631 10.2059L25.1209 7.74805C26.3904 6.47852 26.3904 4.42188 25.1209 3.15234L23.1201 1.14648C21.8506 -0.123047 19.7939 -0.123047 18.5244 1.14648H18.5193ZM14.9139 4.75195L3.07675 16.5941C2.54862 17.1223 2.16269 17.7773 1.9494 18.4934L0.151748 24.6023C0.0247945 25.034 0.141591 25.4961 0.456435 25.8109C0.771279 26.1258 1.23339 26.2426 1.65995 26.1207L7.76893 24.323C8.48495 24.1098 9.14003 23.7238 9.66815 23.1957L21.5154 11.3535L14.9139 4.75195Z" fill="white"/>
</svg>
