<svg width="42" height="43" viewBox="0 0 42 43" fill="none" xmlns="http://www.w3.org/2000/svg">
<rect y="0.5" width="42" height="42" rx="21" fill="#CACDD2"/>
<path fill-rule="evenodd" clip-rule="evenodd" d="M21 11.5C21.3183 11.5 21.6235 11.6264 21.8485 11.8515C22.0736 12.0765 22.2 12.3817 22.2 12.7V20.3H29.8C30.1183 20.3 30.4235 20.4264 30.6485 20.6515C30.8736 20.8765 31 21.1817 31 21.5C31 21.8183 30.8736 22.1235 30.6485 22.3485C30.4235 22.5736 30.1183 22.7 29.8 22.7H22.2V30.3C22.2 30.6183 22.0736 30.9235 21.8485 31.1485C21.6235 31.3736 21.3183 31.5 21 31.5C20.6817 31.5 20.3765 31.3736 20.1515 31.1485C19.9264 30.9235 19.8 30.6183 19.8 30.3V22.7H12.2C11.8817 22.7 11.5765 22.5736 11.3515 22.3485C11.1264 22.1235 11 21.8183 11 21.5C11 21.1817 11.1264 20.8765 11.3515 20.6515C11.5765 20.4264 11.8817 20.3 12.2 20.3H19.8V12.7C19.8 12.3817 19.9264 12.0765 20.1515 11.8515C20.3765 11.6264 20.6817 11.5 21 11.5Z" fill="#9FA4A9"/>
</svg>
