<svg width="50" height="50" viewBox="0 0 50 50" fill="none" xmlns="http://www.w3.org/2000/svg">
<g filter="url(#filter0_d_325_2000)">
<rect x="4" width="42" height="42" rx="21" fill="#CACDD2" shape-rendering="crispEdges"/>
<path fill-rule="evenodd" clip-rule="evenodd" d="M25 11C25.3183 11 25.6235 11.1264 25.8485 11.3515C26.0736 11.5765 26.2 11.8817 26.2 12.2V19.8H33.8C34.1183 19.8 34.4235 19.9264 34.6485 20.1515C34.8736 20.3765 35 20.6817 35 21C35 21.3183 34.8736 21.6235 34.6485 21.8485C34.4235 22.0736 34.1183 22.2 33.8 22.2H26.2V29.8C26.2 30.1183 26.0736 30.4235 25.8485 30.6485C25.6235 30.8736 25.3183 31 25 31C24.6817 31 24.3765 30.8736 24.1515 30.6485C23.9264 30.4235 23.8 30.1183 23.8 29.8V22.2H16.2C15.8817 22.2 15.5765 22.0736 15.3515 21.8485C15.1264 21.6235 15 21.3183 15 21C15 20.6817 15.1264 20.3765 15.3515 20.1515C15.5765 19.9264 15.8817 19.8 16.2 19.8H23.8V12.2C23.8 11.8817 23.9264 11.5765 24.1515 11.3515C24.3765 11.1264 24.6817 11 25 11Z" fill="#9FA4A9"/>
</g>
<defs>
<filter id="filter0_d_325_2000" x="0" y="0" width="50" height="50" filterUnits="userSpaceOnUse" color-interpolation-filters="sRGB">
<feFlood flood-opacity="0" result="BackgroundImageFix"/>
<feColorMatrix in="SourceAlpha" type="matrix" values="0 0 0 0 0 0 0 0 0 0 0 0 0 0 0 0 0 0 127 0" result="hardAlpha"/>
<feOffset dy="4"/>
<feGaussianBlur stdDeviation="2"/>
<feComposite in2="hardAlpha" operator="out"/>
<feColorMatrix type="matrix" values="0 0 0 0 0 0 0 0 0 0 0 0 0 0 0 0 0 0 0.25 0"/>
<feBlend mode="normal" in2="BackgroundImageFix" result="effect1_dropShadow_325_2000"/>
<feBlend mode="normal" in="SourceGraphic" in2="effect1_dropShadow_325_2000" result="shape"/>
</filter>
</defs>
</svg>
