<svg width="36" height="36" viewBox="0 0 36 36" fill="none" xmlns="http://www.w3.org/2000/svg">
<path d="M17.5781 2.10938C9.03516 2.10938 2.10938 9.03516 2.10938 17.5781C2.10938 17.8102 2.11641 18.0422 2.12344 18.2672C1.22344 18.3867 0.527344 19.1461 0.527344 20.0813C0.527344 21.0938 1.35 21.9164 2.3625 21.9164H2.72812C4.60547 28.35 10.5398 33.0469 17.5781 33.0469C26.1211 33.0469 33.0469 26.1211 33.0469 17.5781C33.0469 9.03516 26.1211 2.10938 17.5781 2.10938Z" fill="#FFD46A"/>
<path d="M33.0258 18.2672C33.0328 18.0352 33.0399 17.8102 33.0399 17.5781C33.0399 13.4438 31.4157 9.69611 28.7719 6.91876C30.2696 9.33751 31.1274 12.1922 31.1274 15.2438C31.1274 24.0188 24.0117 31.1344 15.2367 31.1344C12.1852 31.1344 9.33049 30.2695 6.91174 28.7789C9.68909 31.4227 13.4438 33.0469 17.5781 33.0469C24.6164 33.0469 30.5438 28.35 32.4211 21.9234H32.7867C33.7992 21.9234 34.6219 21.1008 34.6219 20.0883C34.6289 19.1531 33.9258 18.3867 33.0258 18.2672Z" fill="#FCB537"/>
<path d="M17.7047 26.7258C14.4633 26.7258 11.482 25.2351 9.73826 22.7461C9.51326 22.4226 9.5906 21.9797 9.91404 21.7547C10.2375 21.5297 10.6804 21.607 10.9054 21.9305C12.382 24.0469 14.9273 25.3055 17.7047 25.3055C20.482 25.3055 23.0273 24.0469 24.5039 21.9305C24.7289 21.607 25.1719 21.5297 25.4953 21.7547C25.8187 21.9797 25.8961 22.4226 25.6711 22.7461C23.9273 25.2422 20.9461 26.7258 17.7047 26.7258Z" fill="#2C3C48"/>
<path d="M11.8125 10.9969C11.6649 10.9969 11.5172 10.9336 11.4117 10.8141C11.0039 10.35 10.4133 10.0898 9.79454 10.0898C9.17579 10.0898 8.58517 10.357 8.17736 10.8141C7.98048 11.0391 7.64298 11.0531 7.41798 10.8633C7.19298 10.6664 7.17189 10.3289 7.36876 10.1039C7.98048 9.41484 8.86642 9.01406 9.79454 9.01406C10.7227 9.01406 11.6086 9.40781 12.2203 10.1039C12.4172 10.3289 12.3961 10.6664 12.1711 10.8633C12.0656 10.9477 11.9391 10.9969 11.8125 10.9969ZM27.3938 10.9898C27.2461 10.9898 27.0984 10.9266 26.993 10.807C26.5852 10.343 25.9945 10.0828 25.3758 10.0828C24.757 10.0828 24.1664 10.35 23.7586 10.807C23.5617 11.032 23.2242 11.0461 22.9992 10.8492C22.7742 10.6523 22.7602 10.3148 22.95 10.0898C23.5617 9.40078 24.4477 9 25.3758 9C26.3039 9 27.1899 9.39375 27.8016 10.0898C27.9984 10.3148 27.9774 10.6523 27.7524 10.8492C27.6469 10.9477 27.5203 10.9898 27.3938 10.9898Z" fill="#F2A84E"/>
<path d="M12.0727 15.743C11.6438 14.7797 10.7719 14.175 9.78752 14.175C8.81017 14.175 7.93127 14.7727 7.50236 15.743C7.47424 15.8062 7.46017 15.8695 7.45314 15.9398C7.33361 16.2211 7.38986 16.5516 7.62892 16.7625C7.76955 16.882 7.9383 16.9453 8.10705 16.9453C8.30392 16.9453 8.50783 16.8609 8.64846 16.6992C8.93674 16.3758 9.35158 16.1859 9.79455 16.1859C10.2305 16.1859 10.6524 16.3758 10.9406 16.6992C11.2078 16.9945 11.6578 17.0227 11.9602 16.7625C12.1992 16.5516 12.2555 16.2141 12.136 15.9398C12.1149 15.8695 12.1008 15.8062 12.0727 15.743ZM27.7031 15.9328C27.6961 15.8695 27.682 15.7992 27.6539 15.7359C27.225 14.7727 26.3531 14.168 25.3688 14.168C24.3914 14.168 23.5125 14.7656 23.0836 15.7359C23.0555 15.7992 23.0414 15.8625 23.0344 15.9328C22.9149 16.2141 22.9641 16.5445 23.2102 16.7555C23.3508 16.875 23.5196 16.9383 23.6883 16.9383C23.8852 16.9383 24.0891 16.8539 24.2297 16.6922C24.518 16.3687 24.9328 16.1789 25.3758 16.1789C25.8117 16.1789 26.2336 16.3687 26.5219 16.6922C26.7891 16.9875 27.2391 17.0156 27.5414 16.7555C27.7664 16.5516 27.8227 16.2141 27.7031 15.9328Z" fill="#2C3C48"/>
<path d="M11.236 22.3664C11.1235 22.4719 10.6242 22.95 10.2235 23.3648C10.0758 23.5125 9.9422 23.6601 9.8508 23.7726C9.1547 24.6164 8.34611 25.5867 8.34611 25.5867C7.34064 27.0281 7.68517 29.0109 9.13361 30.0234C10.575 31.0289 12.5578 30.6773 13.5633 29.2359C13.5633 29.2359 14.8289 27.7242 15.8063 26.55C15.8414 26.5078 15.8836 26.4586 15.9188 26.4164C16.186 26.093 16.6289 25.5234 16.8328 25.2562C14.5899 25.0453 12.5719 24.0047 11.236 22.3664Z" fill="#F04C44"/>
<path d="M9.94221 29.6508C9.87893 29.6508 9.81565 29.6297 9.7594 29.5946C9.61174 29.4961 9.57659 29.2922 9.68205 29.1446L11.461 26.5992C11.5594 26.4516 11.7633 26.4164 11.911 26.5219C12.0586 26.6203 12.0938 26.8242 11.9883 26.9649L10.2094 29.5102C10.1461 29.6016 10.0477 29.6508 9.94221 29.6508Z" fill="#D32B2A"/>
</svg>
