<svg width="32" height="32" viewBox="0 0 32 32" fill="none" xmlns="http://www.w3.org/2000/svg">
<path fill-rule="evenodd" clip-rule="evenodd" d="M7 6H11C11.2652 6 11.5196 6.10536 11.7071 6.29289C11.8946 6.48043 12 6.73478 12 7V11C12 11.2652 11.8946 11.5196 11.7071 11.7071C11.5196 11.8946 11.2652 12 11 12H7C6.73478 12 6.48043 11.8946 6.29289 11.7071C6.10536 11.5196 6 11.2652 6 11V7C6 6.73478 6.10536 6.48043 6.29289 6.29289C6.48043 6.10536 6.73478 6 7 6ZM3 7C3 5.93913 3.42143 4.92172 4.17157 4.17157C4.92172 3.42143 5.93913 3 7 3H11C12.0609 3 13.0783 3.42143 13.8284 4.17157C14.5786 4.92172 15 5.93913 15 7V11C15 12.0609 14.5786 13.0783 13.8284 13.8284C13.0783 14.5786 12.0609 15 11 15H7C5.93913 15 4.92172 14.5786 4.17157 13.8284C3.42143 13.0783 3 12.0609 3 11V7ZM21 6H25C25.2652 6 25.5196 6.10536 25.7071 6.29289C25.8946 6.48043 26 6.73478 26 7V11C26 11.2652 25.8946 11.5196 25.7071 11.7071C25.5196 11.8946 25.2652 12 25 12H21C20.7348 12 20.4804 11.8946 20.2929 11.7071C20.1054 11.5196 20 11.2652 20 11V7C20 6.73478 20.1054 6.48043 20.2929 6.29289C20.4804 6.10536 20.7348 6 21 6ZM17 7C17 5.93913 17.4214 4.92172 18.1716 4.17157C18.9217 3.42143 19.9391 3 21 3H25C26.0609 3 27.0783 3.42143 27.8284 4.17157C28.5786 4.92172 29 5.93913 29 7V11C29 12.0609 28.5786 13.0783 27.8284 13.8284C27.0783 14.5786 26.0609 15 25 15H21C19.9391 15 18.9217 14.5786 18.1716 13.8284C17.4214 13.0783 17 12.0609 17 11V7ZM11 20H7C6.73478 20 6.48043 20.1054 6.29289 20.2929C6.10536 20.4804 6 20.7348 6 21V25C6 25.2652 6.10536 25.5196 6.29289 25.7071C6.48043 25.8946 6.73478 26 7 26H11C11.2652 26 11.5196 25.8946 11.7071 25.7071C11.8946 25.5196 12 25.2652 12 25V21C12 20.7348 11.8946 20.4804 11.7071 20.2929C11.5196 20.1054 11.2652 20 11 20ZM7 17C5.93913 17 4.92172 17.4214 4.17157 18.1716C3.42143 18.9217 3 19.9391 3 21V25C3 26.0609 3.42143 27.0783 4.17157 27.8284C4.92172 28.5786 5.93913 29 7 29H11C12.0609 29 13.0783 28.5786 13.8284 27.8284C14.5786 27.0783 15 26.0609 15 25V21C15 19.9391 14.5786 18.9217 13.8284 18.1716C13.0783 17.4214 12.0609 17 11 17H7ZM21 20H25C25.2652 20 25.5196 20.1054 25.7071 20.2929C25.8946 20.4804 26 20.7348 26 21V25C26 25.2652 25.8946 25.5196 25.7071 25.7071C25.5196 25.8946 25.2652 26 25 26H21C20.7348 26 20.4804 25.8946 20.2929 25.7071C20.1054 25.5196 20 25.2652 20 25V21C20 20.7348 20.1054 20.4804 20.2929 20.2929C20.4804 20.1054 20.7348 20 21 20ZM17 21C17 19.9391 17.4214 18.9217 18.1716 18.1716C18.9217 17.4214 19.9391 17 21 17H25C26.0609 17 27.0783 17.4214 27.8284 18.1716C28.5786 18.9217 29 19.9391 29 21V25C29 26.0609 28.5786 27.0783 27.8284 27.8284C27.0783 28.5786 26.0609 29 25 29H21C19.9391 29 18.9217 28.5786 18.1716 27.8284C17.4214 27.0783 17 26.0609 17 25V21Z" fill="black"/>
</svg>
