<svg width="29" height="30" viewBox="0 0 29 30" fill="none" xmlns="http://www.w3.org/2000/svg">
<path d="M24.2498 3.59383H21.4165V2.17716C21.4165 1.80144 21.2672 1.44111 21.0016 1.17543C20.7359 0.909754 20.3756 0.760498 19.9998 0.760498C19.6241 0.760498 19.2638 0.909754 18.9981 1.17543C18.7324 1.44111 18.5832 1.80144 18.5832 2.17716V3.59383H10.0832V2.17716C10.0832 1.80144 9.93391 1.44111 9.66824 1.17543C9.40256 0.909754 9.04223 0.760498 8.6665 0.760498C8.29078 0.760498 7.93045 0.909754 7.66477 1.17543C7.39909 1.44111 7.24984 1.80144 7.24984 2.17716V3.59383H4.4165C3.28933 3.59383 2.20833 4.0416 1.4113 4.83863C0.614271 5.63566 0.166504 6.71666 0.166504 7.84383V24.8438C0.166504 25.971 0.614271 27.052 1.4113 27.849C2.20833 28.6461 3.28933 29.0938 4.4165 29.0938H24.2498C25.377 29.0938 26.458 28.6461 27.255 27.849C28.0521 27.052 28.4998 25.971 28.4998 24.8438V7.84383C28.4998 6.71666 28.0521 5.63566 27.255 4.83863C26.458 4.0416 25.377 3.59383 24.2498 3.59383ZM25.6665 24.8438C25.6665 25.2196 25.5172 25.5799 25.2516 25.8456C24.9859 26.1112 24.6256 26.2605 24.2498 26.2605H4.4165C4.04078 26.2605 3.68045 26.1112 3.41477 25.8456C3.14909 25.5799 2.99984 25.2196 2.99984 24.8438V14.9272H25.6665V24.8438ZM25.6665 12.0938H2.99984V7.84383C2.99984 7.46811 3.14909 7.10777 3.41477 6.8421C3.68045 6.57642 4.04078 6.42716 4.4165 6.42716H7.24984V7.84383C7.24984 8.21955 7.39909 8.57989 7.66477 8.84557C7.93045 9.11124 8.29078 9.2605 8.6665 9.2605C9.04223 9.2605 9.40256 9.11124 9.66824 8.84557C9.93391 8.57989 10.0832 8.21955 10.0832 7.84383V6.42716H18.5832V7.84383C18.5832 8.21955 18.7324 8.57989 18.9981 8.84557C19.2638 9.11124 19.6241 9.2605 19.9998 9.2605C20.3756 9.2605 20.7359 9.11124 21.0016 8.84557C21.2672 8.57989 21.4165 8.21955 21.4165 7.84383V6.42716H24.2498C24.6256 6.42716 24.9859 6.57642 25.2516 6.8421C25.5172 7.10777 25.6665 7.46811 25.6665 7.84383V12.0938Z" fill="#007CFF"/>
</svg>
