<svg width="16" height="17" viewBox="0 0 16 17" fill="none" xmlns="http://www.w3.org/2000/svg">
<g clip-path="url(#clip0_1802_7471)">
<path d="M6 4.5C2.692 4.5 0 7.192 0 10.5C0 13.808 2.692 16.5 6 16.5C9.308 16.5 12 13.808 12 10.5C12 7.192 9.308 4.5 6 4.5ZM3.33333 9.5C3.33333 8.948 3.78133 8.5 4.33333 8.5C4.88533 8.5 5.33333 8.948 5.33333 9.5C5.33333 10.052 4.88533 10.5 4.33333 10.5C3.78133 10.5 3.33333 10.052 3.33333 9.5ZM8.11933 12.9893C8.026 13.076 7.17333 13.8333 6 13.8333C4.82667 13.8333 3.97467 13.076 3.88133 12.99C3.61067 12.74 3.594 12.3187 3.84333 12.048C4.09333 11.7787 4.51467 11.7607 4.78533 12.01C4.78733 12.012 5.33867 12.5 6 12.5C6.66133 12.5 7.21133 12.0127 7.21733 12.008C7.48867 11.7627 7.91067 11.782 8.15733 12.052C8.404 12.322 8.38867 12.7407 8.11933 12.9893ZM7.66667 10.5C7.11467 10.5 6.66667 10.052 6.66667 9.5C6.66667 8.948 7.11467 8.5 7.66667 8.5C8.21867 8.5 8.66667 8.948 8.66667 9.5C8.66667 10.052 8.21867 10.5 7.66667 10.5ZM16 3.16667C16 3.53467 15.7013 3.83333 15.3333 3.83333H14V5.16667C14 5.53467 13.7013 5.83333 13.3333 5.83333C12.9653 5.83333 12.6667 5.53467 12.6667 5.16667V3.83333H11.3333C10.9653 3.83333 10.6667 3.53467 10.6667 3.16667C10.6667 2.79867 10.9653 2.5 11.3333 2.5H12.6667V1.16667C12.6667 0.798667 12.9653 0.5 13.3333 0.5C13.7013 0.5 14 0.798667 14 1.16667V2.5H15.3333C15.7013 2.5 16 2.79867 16 3.16667Z" fill="#CACDD2"/>
</g>
<defs>
<clipPath id="clip0_1802_7471">
<rect width="16" height="16" fill="white" transform="translate(0 0.5)"/>
</clipPath>
</defs>
</svg>
