<svg width="24" height="25" viewBox="0 0 24 25" fill="none" xmlns="http://www.w3.org/2000/svg">
<path d="M21.4073 19.7894L16.9969 15.3789C18.0587 13.9653 18.6319 12.2447 18.63 10.4767C18.63 5.96081 14.9559 2.28674 10.44 2.28674C5.92406 2.28674 2.25 5.96081 2.25 10.4767C2.25 14.9927 5.92406 18.6667 10.44 18.6667C12.208 18.6687 13.9286 18.0955 15.3422 17.0336L19.7527 21.4441C19.9759 21.6437 20.2671 21.7502 20.5664 21.7418C20.8658 21.7334 21.1506 21.6108 21.3623 21.399C21.574 21.1873 21.6967 20.9025 21.7051 20.6032C21.7135 20.3038 21.6069 20.0127 21.4073 19.7894ZM4.59 10.4767C4.59 9.31972 4.9331 8.18869 5.5759 7.22666C6.21871 6.26463 7.13235 5.51482 8.2013 5.07205C9.27025 4.62928 10.4465 4.51343 11.5813 4.73915C12.7161 4.96487 13.7584 5.52203 14.5766 6.34017C15.3947 7.15831 15.9519 8.20068 16.1776 9.33547C16.4033 10.4703 16.2875 11.6465 15.8447 12.7154C15.4019 13.7844 14.6521 14.698 13.6901 15.3408C12.7281 15.9836 11.597 16.3267 10.44 16.3267C8.88906 16.3249 7.40217 15.7079 6.30548 14.6113C5.2088 13.5146 4.59186 12.0277 4.59 10.4767Z" fill="#9FA4A9"/>
</svg>
