<svg width="25" height="25" viewBox="0 0 25 25" fill="none" xmlns="http://www.w3.org/2000/svg">
<path fill-rule="evenodd" clip-rule="evenodd" d="M11.4359 20.9331L8.52177 16.4272L4.01626 13.5129C3.47824 13.1653 3.04833 12.674 2.77525 12.0946C2.50216 11.5152 2.39683 10.8709 2.47118 10.2347C2.54553 9.59853 2.7966 8.99588 3.19592 8.49509C3.59525 7.99429 4.12686 7.61537 4.73051 7.40128L17.977 2.69259C18.5738 2.48104 19.2183 2.44288 19.8358 2.58252C20.4534 2.72217 21.0187 3.03391 21.4664 3.48164C21.9141 3.92937 22.2258 4.49477 22.3655 5.11236C22.5051 5.72995 22.467 6.37447 22.2554 6.97127L20.2369 6.25411C20.3144 6.03883 20.3291 5.80595 20.2792 5.58265C20.2293 5.35936 20.1169 5.15487 19.9551 4.99309C19.7933 4.8313 19.5888 4.71888 19.3656 4.66897C19.1423 4.61906 18.9094 4.63371 18.6942 4.71122L5.45048 9.42133C5.22397 9.50126 5.02438 9.64304 4.87433 9.83061C4.72427 10.0182 4.62977 10.244 4.60151 10.4826C4.57326 10.7211 4.61239 10.9628 4.71447 11.1803C4.81655 11.3977 4.97749 11.5822 5.17906 11.7128L9.15031 14.2829L13.8344 9.59705C13.9333 9.49477 14.0515 9.4132 14.1823 9.3571C14.313 9.30101 14.4536 9.27152 14.5959 9.27035C14.7381 9.26919 14.8792 9.29636 15.0108 9.3503C15.1425 9.40423 15.262 9.48385 15.3626 9.5845C15.4631 9.68515 15.5426 9.80481 15.5964 9.93652C15.6502 10.0682 15.6773 10.2093 15.676 10.3516C15.6747 10.4939 15.6451 10.6344 15.5889 10.7651C15.5326 10.8958 15.451 11.014 15.3486 11.1128L10.6645 15.7986L13.2344 19.7687C13.3648 19.9704 13.5491 20.1315 13.7663 20.2338C13.9836 20.3361 14.2251 20.3755 14.4636 20.3475C14.7021 20.3196 14.928 20.2254 15.1158 20.0756C15.3035 19.9258 15.4455 19.7265 15.5257 19.5002L20.2355 6.25411L22.254 6.97127L17.5456 20.2188C17.3314 20.8221 16.9525 21.3534 16.4519 21.7525C15.9512 22.1515 15.3489 22.4025 14.713 22.4768C14.0771 22.5511 13.4331 22.4459 12.8539 22.1731C12.2748 21.9003 11.7835 21.4707 11.4359 20.9331Z" fill="#9FA4A9"/>
</svg>
