<svg width="10" height="10" viewBox="0 0 10 10" fill="none" xmlns="http://www.w3.org/2000/svg">
<path d="M7.14694 6.01865H6.69525L6.53516 5.87092C7.09548 5.24717 7.43282 4.43739 7.43282 3.55648C7.43282 1.59221 5.76901 0 3.71641 0C1.66381 0 0 1.59221 0 3.55648C0 5.52074 1.66381 7.11295 3.71641 7.11295C4.63694 7.11295 5.48313 6.79013 6.13493 6.25392L6.28931 6.40713V6.83938L9.14808 9.56965L10 8.7544L7.14694 6.01865ZM3.71641 6.01865C2.29274 6.01865 1.14351 4.91888 1.14351 3.55648C1.14351 2.19407 2.29274 1.0943 3.71641 1.0943C5.14008 1.0943 6.28931 2.19407 6.28931 3.55648C6.28931 4.91888 5.14008 6.01865 3.71641 6.01865Z" fill="black"/>
</svg>
