<svg width="25" height="24" viewBox="0 0 25 24" fill="none" xmlns="http://www.w3.org/2000/svg">
<g clip-path="url(#clip0_386_1637)">
<path d="M12.5 24C19.1274 24 24.5 18.6274 24.5 12C24.5 5.37258 19.1274 0 12.5 0C5.87258 0 0.5 5.37258 0.5 12C0.5 18.6274 5.87258 24 12.5 24Z" fill="#FFCC4D"/>
<path d="M12.5001 13.9999C10.0847 13.9999 8.48208 13.7186 6.50008 13.3332C6.04741 13.2459 5.16675 13.3332 5.16675 14.6666C5.16675 17.3332 8.23008 20.6666 12.5001 20.6666C16.7694 20.6666 19.8334 17.3332 19.8334 14.6666C19.8334 13.3332 18.9527 13.2452 18.5001 13.3332C16.5181 13.7186 14.9154 13.9999 12.5001 13.9999Z" fill="#664500"/>
<path d="M6.5 14.6667C6.5 14.6667 8.5 15.3334 12.5 15.3334C16.5 15.3334 18.5 14.6667 18.5 14.6667C18.5 14.6667 17.1667 17.3334 12.5 17.3334C7.83333 17.3334 6.5 14.6667 6.5 14.6667Z" fill="white"/>
<path d="M8.49992 11.3334C9.42039 11.3334 10.1666 10.2887 10.1666 9.00008C10.1666 7.71142 9.42039 6.66675 8.49992 6.66675C7.57944 6.66675 6.83325 7.71142 6.83325 9.00008C6.83325 10.2887 7.57944 11.3334 8.49992 11.3334Z" fill="#664500"/>
<path d="M16.4999 11.3334C17.4204 11.3334 18.1666 10.2887 18.1666 9.00008C18.1666 7.71142 17.4204 6.66675 16.4999 6.66675C15.5794 6.66675 14.8333 7.71142 14.8333 9.00008C14.8333 10.2887 15.5794 11.3334 16.4999 11.3334Z" fill="#664500"/>
</g>
<defs>
<clipPath id="clip0_386_1637">
<rect width="24" height="24" fill="white" transform="translate(0.5)"/>
</clipPath>
</defs>
</svg>
