<svg width="25" height="25" viewBox="0 0 25 25" fill="none" xmlns="http://www.w3.org/2000/svg">
<path d="M9.59998 20.0387H12.6M12.6 20.0387H15.6M12.6 20.0387V17.0387M12.6 17.0387H19.6C20.1304 17.0387 20.6391 16.828 21.0142 16.4529C21.3893 16.0779 21.6 15.5692 21.6 15.0387V6.03873C21.6 5.50829 21.3893 4.99959 21.0142 4.62451C20.6391 4.24944 20.1304 4.03873 19.6 4.03873H5.59998C5.06954 4.03873 4.56083 4.24944 4.18576 4.62451C3.81069 4.99959 3.59998 5.50829 3.59998 6.03873V15.0387C3.59998 15.5692 3.81069 16.0779 4.18576 16.4529C4.56083 16.828 5.06954 17.0387 5.59998 17.0387H12.6Z" stroke="#007CFF" stroke-width="1.5" stroke-linecap="round" stroke-linejoin="round"/>
</svg>
