<svg width="25" height="25" viewBox="0 0 25 25" fill="none" xmlns="http://www.w3.org/2000/svg">
<path d="M12.9 8.03873C11.5076 8.03873 10.1723 8.59185 9.18771 9.57642C8.20315 10.561 7.65002 11.8963 7.65002 13.2887C7.65002 14.6811 8.20315 16.0165 9.18771 17.001C10.1723 17.9856 11.5076 18.5387 12.9 18.5387C14.2924 18.5387 15.6278 17.9856 16.6123 17.001C17.5969 16.0165 18.15 14.6811 18.15 13.2887C18.15 11.8963 17.5969 10.561 16.6123 9.57642C15.6278 8.59185 14.2924 8.03873 12.9 8.03873ZM9.15002 13.2887C9.14653 12.308 9.52741 11.3649 10.211 10.6616C10.8946 9.95833 11.8265 9.55085 12.807 9.52652C13.7874 9.5022 14.7384 9.86295 15.4561 10.5315C16.1737 11.2 16.6009 12.123 16.646 13.1027C16.469 13.2727 16.261 13.4347 15.958 13.5657C15.424 13.7957 14.542 13.9337 13.021 13.5537C11.324 13.1297 10.181 13.3817 9.38102 13.8777C9.32463 13.9128 9.26927 13.9495 9.21502 13.9877C9.17166 13.7573 9.1499 13.5232 9.15002 13.2887ZM9.90002 6.28873C9.90002 6.55394 9.79467 6.8083 9.60713 6.99583C9.41959 7.18337 9.16524 7.28873 8.90002 7.28873C8.63481 7.28873 8.38045 7.18337 8.19292 6.99583C8.00538 6.8083 7.90002 6.55394 7.90002 6.28873C7.90002 6.02351 8.00538 5.76916 8.19292 5.58162C8.38045 5.39408 8.63481 5.28873 8.90002 5.28873C9.16524 5.28873 9.41959 5.39408 9.60713 5.58162C9.79467 5.76916 9.90002 6.02351 9.90002 6.28873ZM13.65 5.53873C13.4511 5.53873 13.2603 5.61774 13.1197 5.7584C12.979 5.89905 12.9 6.08981 12.9 6.28873C12.9 6.48764 12.979 6.6784 13.1197 6.81906C13.2603 6.95971 13.4511 7.03873 13.65 7.03873H17.15C17.3489 7.03873 17.5397 6.95971 17.6804 6.81906C17.821 6.6784 17.9 6.48764 17.9 6.28873C17.9 6.08981 17.821 5.89905 17.6804 5.7584C17.5397 5.61774 17.3489 5.53873 17.15 5.53873H13.65ZM7.15002 3.03873C6.28807 3.03873 5.46142 3.38114 4.85193 3.99063C4.24243 4.60012 3.90002 5.42677 3.90002 6.28873V17.7887C3.90002 18.6507 4.24243 19.4773 4.85193 20.0868C5.46142 20.6963 6.28807 21.0387 7.15002 21.0387H18.65C19.512 21.0387 20.3386 20.6963 20.9481 20.0868C21.5576 19.4773 21.9 18.6507 21.9 17.7887V6.28873C21.9 5.42677 21.5576 4.60012 20.9481 3.99063C20.3386 3.38114 19.512 3.03873 18.65 3.03873H7.15002ZM5.40002 6.28873C5.40002 5.32273 6.18402 4.53873 7.15002 4.53873H18.65C19.616 4.53873 20.4 5.32273 20.4 6.28873V17.7887C20.4 18.2529 20.2156 18.698 19.8875 19.0262C19.5593 19.3544 19.1142 19.5387 18.65 19.5387H7.15002C6.6859 19.5387 6.24078 19.3544 5.91259 19.0262C5.5844 18.698 5.40002 18.2529 5.40002 17.7887V6.28873Z" fill="#007CFF"/>
</svg>
