<svg width="24" height="24" viewBox="0 0 24 24" fill="none" xmlns="http://www.w3.org/2000/svg">
<g clip-path="url(#clip0_241_2133)">
<path d="M18 5.33323C17.545 5.33341 17.0924 5.40035 16.6567 5.5319C16.66 5.46523 16.6667 5.40057 16.6667 5.33323C16.6661 4.3648 16.314 3.42951 15.6759 2.70104C15.0378 1.97258 14.157 1.50044 13.1971 1.37232C12.2372 1.24419 11.2634 1.46879 10.4565 2.00439C9.64969 2.53999 9.06465 3.35021 8.81004 4.28457C8.34036 4.09676 7.83921 4.00015 7.33337 3.9999C6.27251 3.9999 5.25509 4.42133 4.50495 5.17147C3.7548 5.92162 3.33337 6.93903 3.33337 7.9999C3.33337 9.06077 3.7548 10.0782 4.50495 10.8283C5.25509 11.5785 6.27251 11.9999 7.33337 11.9999C8.21109 11.9993 9.06424 11.71 9.76123 11.1765C10.4582 10.643 10.9603 9.89502 11.19 9.0479C11.6597 9.23591 12.1608 9.33275 12.6667 9.33323C12.9167 9.33323 13.16 9.30723 13.3974 9.2639C13.3587 9.5039 13.3334 9.74857 13.3334 9.9999C13.3334 12.5766 15.4234 14.6666 18 14.6666C20.5767 14.6666 22.6667 12.5766 22.6667 9.9999C22.6667 8.76222 22.175 7.57524 21.2999 6.70007C20.4247 5.8249 19.2377 5.33323 18 5.33323Z" fill="#CCD6DD"/>
<path d="M20.6667 14.6667C20.3553 14.6667 20.06 14.7233 19.774 14.8027C19.918 14.452 20 14.0693 20 13.6667C20 12.871 19.6839 12.108 19.1213 11.5453C18.5587 10.9827 17.7957 10.6667 17 10.6667C16.3487 10.6686 15.7161 10.8843 15.1993 11.2807C14.9651 10.344 14.4247 9.51249 13.6639 8.91811C12.9031 8.32373 11.9655 8.00059 11 8C10.1016 8.00048 9.22559 8.2803 8.49328 8.80072C7.76096 9.32114 7.2086 10.0564 6.91268 10.9047C6.17936 10.6779 5.40575 10.6122 4.64468 10.7118C3.88361 10.8115 3.15303 11.0743 2.50283 11.4822C1.85263 11.8901 1.29814 12.4336 0.877249 13.0755C0.456352 13.7173 0.178964 14.4425 0.0640331 15.2014C-0.050898 15.9603 -0.000663718 16.7351 0.211304 17.4728C0.423272 18.2106 0.791979 18.8938 1.29224 19.476C1.7925 20.0581 2.41252 20.5254 3.10995 20.846C3.80738 21.1665 4.56578 21.3328 5.33335 21.3333H20.6667C22.508 21.3333 24 19.8413 24 18C24 16.1587 22.508 14.6667 20.6667 14.6667Z" fill="#E1E8ED"/>
</g>
<defs>
<clipPath id="clip0_241_2133">
<rect width="24" height="24" fill="white"/>
</clipPath>
</defs>
</svg>
