<svg width="25" height="25" viewBox="0 0 25 25" fill="none" xmlns="http://www.w3.org/2000/svg">
<g clip-path="url(#clip0_327_2551)">
<path d="M10.1112 24.9889C10.0636 24.9889 10.0168 24.9766 9.97532 24.9533C9.93381 24.9301 9.89897 24.8965 9.87415 24.8559C9.84933 24.8153 9.83535 24.769 9.83355 24.7214C9.83175 24.6738 9.8422 24.6266 9.86389 24.5842L12.1666 20.3222H8.78122C8.66522 20.3222 8.48922 20.3016 8.40655 20.1242C8.33055 19.9622 8.36855 19.8082 8.43789 19.6556L10.8332 13.6556C10.8852 13.6109 15.4346 13.9176 15.4999 13.9176C15.5475 13.9178 15.5942 13.9302 15.6356 13.9536C15.677 13.977 15.7117 14.0107 15.7364 14.0513C15.7611 14.092 15.7749 14.1383 15.7766 14.1859C15.7783 14.2334 15.7677 14.2806 15.7459 14.3229L13.2012 18.3229H16.5559C16.6719 18.3229 16.7752 18.3949 16.8166 18.5036C16.8362 18.5568 16.8391 18.6147 16.8249 18.6696C16.8107 18.7246 16.7801 18.7738 16.7372 18.8109L10.2932 24.9216C10.2425 24.9649 10.178 24.9888 10.1112 24.9889Z" fill="#F4900C"/>
<path d="M19.4999 3.65568C18.9499 3.65568 18.4199 3.73901 17.9206 3.89368C17.6246 3.04547 17.0722 2.31027 16.3399 1.78986C15.6076 1.26945 14.7316 0.989588 13.8333 0.989014C11.8039 0.989014 10.1053 2.38635 9.63392 4.26968C9.11716 3.87329 8.48453 3.65757 7.83325 3.65568C7.0376 3.65568 6.27454 3.97175 5.71193 4.53436C5.14932 5.09697 4.83325 5.86003 4.83325 6.65568C4.83325 7.05835 4.91525 7.44101 5.05925 7.79168C4.76928 7.70591 4.46895 7.66015 4.16659 7.65568C2.32525 7.65568 0.833252 9.14768 0.833252 10.989C0.833252 12.8303 2.32525 14.3223 4.16659 14.3223H19.4999C20.9144 14.3223 22.271 13.7604 23.2712 12.7603C24.2713 11.7601 24.8333 10.4035 24.8333 8.98901C24.8333 7.57453 24.2713 6.21797 23.2712 5.21778C22.271 4.21758 20.9144 3.65568 19.4999 3.65568Z" fill="#E1E8ED"/>
<path d="M8.16587 17.6298L8.09054 15.3491L6.17721 16.4878C5.96165 16.6033 5.78272 16.7769 5.66067 16.9889C5.53861 17.2008 5.4783 17.4427 5.48654 17.6871C5.50061 18.0422 5.65351 18.3776 5.91235 18.6211C6.17118 18.8646 6.51526 18.9967 6.87054 18.9891C7.0453 18.9864 7.21775 18.9489 7.37786 18.8788C7.53797 18.8087 7.68253 18.7075 7.8031 18.5809C7.92367 18.4544 8.01784 18.3051 8.08013 18.1418C8.14241 17.9785 8.17156 17.8045 8.16587 17.6298ZM6.83254 22.9631L6.75721 20.6825L4.84387 21.8211C4.62832 21.9367 4.44939 22.1102 4.32733 22.3222C4.20528 22.5341 4.14496 22.776 4.15321 23.0205C4.16728 23.3755 4.32018 23.7109 4.57901 23.9544C4.83785 24.1979 5.18192 24.3301 5.53721 24.3225C5.71199 24.3198 5.88449 24.2824 6.04464 24.2123C6.20479 24.1423 6.34938 24.041 6.46997 23.9145C6.59056 23.7879 6.68473 23.6386 6.74698 23.4753C6.80923 23.3119 6.83832 23.1378 6.83254 22.9631ZM3.51321 19.2698L3.43788 16.9891L1.52454 18.1278C1.30898 18.2433 1.13006 18.4169 1.008 18.6289C0.885946 18.8408 0.82563 19.0827 0.833875 19.3271C0.847776 19.6823 1.00063 20.0177 1.2595 20.2613C1.51837 20.5048 1.86254 20.6369 2.21788 20.6291C2.39266 20.6265 2.56516 20.589 2.72531 20.519C2.88546 20.4489 3.03005 20.3477 3.15064 20.2211C3.27122 20.0946 3.36539 19.9453 3.42765 19.7819C3.4899 19.6186 3.51898 19.4445 3.51321 19.2698ZM20.1799 17.6298L20.1045 15.3491L18.1919 16.4878C17.9762 16.6032 17.7972 16.7768 17.6751 16.9887C17.5531 17.2007 17.4928 17.4427 17.5012 17.6871C17.5151 18.0423 17.668 18.3777 17.9268 18.6213C18.1857 18.8648 18.5299 18.9969 18.8852 18.9891C19.0599 18.9864 19.2324 18.9489 19.3924 18.8788C19.5525 18.8087 19.697 18.7074 19.8175 18.5809C19.9381 18.4544 20.0322 18.3051 20.0944 18.1418C20.1566 17.9785 20.1857 17.8044 20.1799 17.6298ZM18.8465 23.6298L18.7712 21.3491L16.8585 22.4878C16.6429 22.6032 16.4639 22.7768 16.3418 22.9887C16.2197 23.2007 16.1595 23.4427 16.1679 23.6871C16.1818 24.0423 16.3346 24.3777 16.5935 24.6213C16.8524 24.8648 17.1965 24.9969 17.5519 24.9891C17.7266 24.9864 17.899 24.9489 18.0591 24.8788C18.2192 24.8087 18.3637 24.7074 18.4842 24.5809C18.6047 24.4544 18.6988 24.3051 18.761 24.1418C18.8233 23.9785 18.8523 23.8044 18.8465 23.6298ZM22.8465 20.9631L22.7712 18.6825L20.8585 19.8211C20.6429 19.9366 20.4639 20.1101 20.3418 20.3221C20.2197 20.5341 20.1595 20.776 20.1679 21.0205C20.1818 21.3756 20.3346 21.7111 20.5935 21.9546C20.8524 22.1981 21.1965 22.3302 21.5519 22.3225C21.7266 22.3197 21.899 22.2822 22.0591 22.2121C22.2192 22.142 22.3637 22.0408 22.4842 21.9142C22.6047 21.7877 22.6988 21.6384 22.761 21.4751C22.8233 21.3118 22.8523 21.1378 22.8465 20.9631Z" fill="#5DADEC"/>
</g>
<defs>
<clipPath id="clip0_327_2551">
<rect width="24" height="24" fill="white" transform="translate(0.833252 0.989014)"/>
</clipPath>
</defs>
</svg>
