<svg width="25" height="25" viewBox="0 0 25 25" fill="none" xmlns="http://www.w3.org/2000/svg">
<g clip-path="url(#clip0_241_2141)">
<path d="M11.5951 2.32235C11.5951 2.32235 11.5951 0.989014 12.9285 0.989014C14.2618 0.989014 14.2618 2.32235 14.2618 2.32235V3.65568C14.2618 3.65568 14.2618 4.98901 12.9285 4.98901C11.5951 4.98901 11.5951 3.65568 11.5951 3.65568V2.32235ZM23.5951 11.6557C23.5951 11.6557 24.9285 11.6557 24.9285 12.989C24.9285 14.3223 23.5951 14.3223 23.5951 14.3223H22.2618C22.2618 14.3223 20.9285 14.3223 20.9285 12.989C20.9285 11.6557 22.2618 11.6557 22.2618 11.6557H23.5951ZM3.59513 11.6557C3.59513 11.6557 4.92847 11.6557 4.92847 12.989C4.92847 14.3223 3.59513 14.3223 3.59513 14.3223H2.2618C2.2618 14.3223 0.928467 14.3223 0.928467 12.989C0.928467 11.6557 2.2618 11.6557 2.2618 11.6557H3.59513ZM7.00913 5.85101C7.00913 5.85101 7.9518 6.79368 7.00913 7.73635C6.06647 8.67901 5.1238 7.73635 5.1238 7.73635L4.18047 6.79435C4.18047 6.79435 3.2378 5.85168 4.18047 4.90835C5.1238 3.96568 6.06647 4.90835 6.06647 4.90835L7.00913 5.85101ZM21.0091 19.851C21.0091 19.851 21.9518 20.7937 21.0091 21.7363C20.0665 22.679 19.1238 21.7363 19.1238 21.7363L18.1811 20.7937C18.1811 20.7937 17.2385 19.851 18.1811 18.9083C19.1238 17.9657 20.0665 18.9083 20.0665 18.9083L21.0091 19.851ZM20.7338 7.73635C20.7338 7.73635 19.7911 8.67901 18.8485 7.73635C17.9058 6.79368 18.8485 5.85101 18.8485 5.85101L19.7911 4.90835C19.7911 4.90835 20.7338 3.96568 21.6765 4.90835C22.6191 5.85101 21.6765 6.79368 21.6765 6.79368L20.7338 7.73635ZM6.7338 21.7363C6.7338 21.7363 5.79113 22.679 4.84847 21.7363C3.9058 20.7937 4.84847 19.851 4.84847 19.851L5.79113 18.9083C5.79113 18.9083 6.7338 17.9657 7.67647 18.9083C8.61913 19.851 7.67647 20.7937 7.67647 20.7937L6.7338 21.7363ZM11.5951 22.3223C11.5951 22.3223 11.5951 20.989 12.9285 20.989C14.2618 20.989 14.2618 22.3223 14.2618 22.3223V23.6557C14.2618 23.6557 14.2618 24.989 12.9285 24.989C11.5951 24.989 11.5951 23.6557 11.5951 23.6557V22.3223Z" fill="#FFAC33"/>
<path d="M12.9285 19.6556C16.6104 19.6556 19.5952 16.6708 19.5952 12.9889C19.5952 9.30703 16.6104 6.32227 12.9285 6.32227C9.24661 6.32227 6.26184 9.30703 6.26184 12.9889C6.26184 16.6708 9.24661 19.6556 12.9285 19.6556Z" fill="#FFAC33"/>
</g>
<defs>
<clipPath id="clip0_241_2141">
<rect width="24" height="24" fill="white" transform="translate(0.928467 0.989014)"/>
</clipPath>
</defs>
</svg>
