<svg width="24" height="24" viewBox="0 0 24 24" fill="none" xmlns="http://www.w3.org/2000/svg">
<g clip-path="url(#clip0_241_2136)">
<path d="M8.66667 1.33333C8.66667 1.33333 8.66667 0 10 0C11.3333 0 11.3333 1.33333 11.3333 1.33333V2.66667C11.3333 2.66667 11.3333 4 10 4C8.66667 4 8.66667 2.66667 8.66667 2.66667V1.33333ZM2.66667 8.66667C2.66667 8.66667 4 8.66667 4 10C4 11.3333 2.66667 11.3333 2.66667 11.3333H1.33333C1.33333 11.3333 0 11.3333 0 10C0 8.66667 1.33333 8.66667 1.33333 8.66667H2.66667ZM5.248 4.02867C5.248 4.02867 6.19067 4.97133 5.248 5.914C4.30533 6.85667 3.36267 5.914 3.36267 5.914L2.41933 4.972C2.41933 4.972 1.47667 4.02933 2.41933 3.086C3.36267 2.14333 4.30533 3.086 4.30533 3.086L5.248 4.02867ZM16.638 5.914C16.638 5.914 15.6953 6.85667 14.7527 5.914C13.81 4.97133 14.7527 4.02867 14.7527 4.02867L15.6953 3.086C15.6953 3.086 16.638 2.14333 17.5807 3.086C18.5233 4.02867 17.5807 4.97133 17.5807 4.97133L16.638 5.914Z" fill="#FFAC33"/>
<path d="M9.99996 15.3334C12.9455 15.3334 15.3333 12.9456 15.3333 10.0001C15.3333 7.05456 12.9455 4.66675 9.99996 4.66675C7.05444 4.66675 4.66663 7.05456 4.66663 10.0001C4.66663 12.9456 7.05444 15.3334 9.99996 15.3334Z" fill="#FFAC33"/>
<path d="M18.8153 8.53333C18.28 8.53333 17.7653 8.61267 17.2793 8.76C16.7046 7.154 15.1453 6 13.3053 6C11.3326 6 9.68063 7.32733 9.22329 9.11667C8.71771 8.73891 8.10375 8.53434 7.47263 8.53333C5.86129 8.53333 4.55596 9.80933 4.55596 11.3833C4.55596 11.7653 4.63596 12.1293 4.77529 12.4627C4.49301 12.3811 4.20109 12.3376 3.90729 12.3333C2.11729 12.3333 0.666626 13.7507 0.666626 15.5C0.666626 17.2493 2.11729 18.6667 3.90729 18.6667H18.8146C21.6786 18.6667 24 16.3987 24 13.6C24 10.8013 21.6786 8.53333 18.8153 8.53333Z" fill="#E1E8ED"/>
<path d="M7.99929 22.6406L7.92396 20.3599L6.01129 21.4986C5.79563 21.614 5.61662 21.7876 5.49454 21.9995C5.37247 22.2115 5.31222 22.4535 5.32062 22.6979C5.33452 23.0531 5.48737 23.3885 5.74624 23.6321C6.00512 23.8756 6.34929 24.0077 6.70462 23.9999C6.87935 23.9972 7.05178 23.9597 7.21185 23.8896C7.37192 23.8195 7.51644 23.7182 7.63695 23.5917C7.75747 23.4652 7.85158 23.3159 7.91379 23.1526C7.976 22.9893 8.00507 22.8152 7.99929 22.6406ZM3.34662 21.6139L3.27062 19.3333L1.35796 20.4719C1.14224 20.5873 0.963189 20.7608 0.841109 20.9728C0.719028 21.1848 0.658811 21.4268 0.66729 21.6713C0.681191 22.0264 0.834041 22.3619 1.09291 22.6054C1.35178 22.8489 1.69596 22.981 2.05129 22.9733C2.22607 22.9706 2.39857 22.9332 2.55872 22.8631C2.71887 22.7931 2.86346 22.6918 2.98405 22.5653C3.10464 22.4387 3.19881 22.2894 3.26106 22.1261C3.32331 21.9627 3.3524 21.7886 3.34662 21.6139ZM12.68 21.9739L12.6046 19.6933L10.692 20.8319C10.4763 20.9474 10.2973 21.1209 10.1752 21.3329C10.0531 21.5448 9.99289 21.7868 10.0013 22.0313C10.0152 22.3864 10.168 22.7219 10.4269 22.9654C10.6858 23.2089 11.03 23.341 11.3853 23.3333C11.56 23.3305 11.7324 23.293 11.8925 23.2229C12.0526 23.1528 12.1971 23.0516 12.3176 22.925C12.4381 22.7985 12.5322 22.6492 12.5945 22.4859C12.6567 22.3226 12.6857 22.1486 12.68 21.9739ZM16.6653 22.6406L16.59 20.3599L14.6773 21.4986C14.4617 21.614 14.2827 21.7875 14.1607 21.9995C14.0388 22.2115 13.9787 22.4535 13.9873 22.6979C14.0012 23.0531 14.154 23.3885 14.4129 23.6321C14.6718 23.8756 15.016 24.0077 15.3713 23.9999C15.546 23.9972 15.7184 23.9597 15.8784 23.8896C16.0385 23.8195 16.1829 23.7182 16.3034 23.5917C16.4239 23.4651 16.5179 23.3158 16.58 23.1525C16.6422 22.9892 16.6712 22.8152 16.6653 22.6406ZM20.6793 21.6139L20.6033 19.3333L18.6906 20.4719C18.475 20.5873 18.296 20.7609 18.1741 20.9729C18.0521 21.1849 17.992 21.4268 18.0006 21.6713C18.0144 22.0265 18.1672 22.362 18.4261 22.6056C18.685 22.8492 19.0292 22.9812 19.3846 22.9733C19.5593 22.9705 19.7318 22.933 19.8919 22.8629C20.0519 22.7928 20.1964 22.6916 20.317 22.565C20.4375 22.4385 20.5316 22.2892 20.5938 22.1259C20.656 21.9626 20.6851 21.7886 20.6793 21.6139Z" fill="#5DADEC"/>
</g>
<defs>
<clipPath id="clip0_241_2136">
<rect width="24" height="24" fill="white"/>
</clipPath>
</defs>
</svg>
