<svg width="24" height="24" viewBox="0 0 24 24" fill="none" xmlns="http://www.w3.org/2000/svg">
<g clip-path="url(#clip0_241_2130)">
<path d="M18.6667 2.66667C18.1167 2.66667 17.5867 2.75 17.0873 2.90467C16.7913 2.05645 16.2389 1.32125 15.5066 0.800845C14.7744 0.280439 13.8984 0.000574467 13 0C10.9707 0 9.272 1.39733 8.80067 3.28067C8.28391 2.88427 7.65128 2.66855 7 2.66667C6.20435 2.66667 5.44129 2.98274 4.87868 3.54535C4.31607 4.10795 4 4.87102 4 5.66667C4 6.06933 4.082 6.452 4.226 6.80267C3.93603 6.71689 3.63569 6.67113 3.33333 6.66667C1.492 6.66667 0 8.15867 0 10C0 11.8413 1.492 13.3333 3.33333 13.3333H18.6667C20.0812 13.3333 21.4377 12.7714 22.4379 11.7712C23.4381 10.771 24 9.41449 24 8C24 6.58551 23.4381 5.22896 22.4379 4.22876C21.4377 3.22857 20.0812 2.66667 18.6667 2.66667Z" fill="#E1E8ED"/>
<path d="M4.35337 17.8333C4.30917 17.7568 4.23636 17.7009 4.15097 17.678C4.06558 17.6552 3.9746 17.6671 3.89804 17.7113L2.66671 18.4227V17C2.66671 16.9116 2.63159 16.8268 2.56907 16.7643C2.50656 16.7018 2.42178 16.6667 2.33337 16.6667C2.24497 16.6667 2.16018 16.7018 2.09767 16.7643C2.03516 16.8268 2.00004 16.9116 2.00004 17V18.4233L0.767372 17.712C0.690725 17.6678 0.599657 17.6559 0.514203 17.6788C0.428749 17.7017 0.355908 17.7577 0.311705 17.8343C0.267503 17.911 0.255558 18.002 0.2785 18.0875C0.301442 18.173 0.357391 18.2458 0.434039 18.29L1.66604 19L0.434039 19.7113C0.396087 19.7332 0.362817 19.7624 0.33613 19.7971C0.309443 19.8319 0.28986 19.8715 0.2785 19.9138C0.267141 19.9561 0.264226 20.0003 0.269924 20.0437C0.275621 20.0872 0.289818 20.129 0.311705 20.167C0.333592 20.205 0.36274 20.2382 0.397485 20.2649C0.432229 20.2916 0.47189 20.3112 0.514203 20.3225C0.556515 20.3339 0.600651 20.3368 0.64409 20.3311C0.687529 20.3254 0.72942 20.3112 0.767372 20.2893L2.00004 19.5773V21C2.00004 21.0884 2.03516 21.1732 2.09767 21.2357C2.16018 21.2982 2.24497 21.3333 2.33337 21.3333C2.42178 21.3333 2.50656 21.2982 2.56907 21.2357C2.63159 21.1732 2.66671 21.0884 2.66671 21V19.578L3.89871 20.2893C3.93666 20.3112 3.97855 20.3254 4.02199 20.3311C4.06543 20.3368 4.10956 20.3339 4.15188 20.3225C4.19419 20.3112 4.23385 20.2916 4.26859 20.2649C4.30334 20.2382 4.33249 20.205 4.35437 20.167C4.37626 20.129 4.39046 20.0872 4.39615 20.0437C4.40185 20.0003 4.39894 19.9561 4.38758 19.9138C4.37622 19.8715 4.35664 19.8319 4.32995 19.7971C4.30326 19.7624 4.26999 19.7332 4.23204 19.7113L3.00004 19L4.23204 18.2887C4.26996 18.2668 4.30318 18.2376 4.32981 18.2029C4.35644 18.1681 4.37595 18.1285 4.38722 18.0862C4.3985 18.0439 4.40131 17.9998 4.3955 17.9564C4.38969 17.913 4.37537 17.8712 4.35337 17.8333ZM11.02 20.5C10.9758 20.4234 10.903 20.3676 10.8176 20.3447C10.7322 20.3218 10.6413 20.3338 10.5647 20.378L9.33337 21.0893V19.6667C9.33337 19.5783 9.29825 19.4935 9.23574 19.431C9.17323 19.3685 9.08844 19.3333 9.00004 19.3333C8.91163 19.3333 8.82685 19.3685 8.76434 19.431C8.70182 19.4935 8.66671 19.5783 8.66671 19.6667V21.09L7.43404 20.3787C7.35739 20.3345 7.26632 20.3225 7.18087 20.3455C7.09542 20.3684 7.02257 20.4244 6.97837 20.501C6.93417 20.5776 6.92222 20.6687 6.94517 20.7542C6.96811 20.8396 7.02406 20.9125 7.10071 20.9567L8.33271 21.668L7.10071 22.3793C7.06275 22.4012 7.02948 22.4304 7.0028 22.4651C6.97611 22.4999 6.95653 22.5395 6.94517 22.5818C6.92222 22.6673 6.93417 22.7584 6.97837 22.835C7.02257 22.9116 7.09542 22.9676 7.18087 22.9905C7.26632 23.0135 7.35739 23.0015 7.43404 22.9573L8.66671 22.244V23.6667C8.66671 23.7551 8.70182 23.8399 8.76434 23.9024C8.82685 23.9649 8.91163 24 9.00004 24C9.08844 24 9.17323 23.9649 9.23574 23.9024C9.29825 23.8399 9.33337 23.7551 9.33337 23.6667V22.2447L10.5654 22.956C10.6033 22.9779 10.6452 22.9921 10.6887 22.9978C10.7321 23.0035 10.7762 23.0006 10.8185 22.9892C10.8609 22.9778 10.9005 22.9583 10.9353 22.9316C10.97 22.9049 10.9992 22.8716 11.021 22.8337C11.0429 22.7957 11.0571 22.7538 11.0628 22.7104C11.0685 22.6669 11.0656 22.6228 11.0542 22.5805C11.0429 22.5382 11.0233 22.4985 10.9966 22.4638C10.9699 22.429 10.9367 22.3999 10.8987 22.378L9.66671 21.6667L10.8987 20.9553C10.9366 20.9335 10.9698 20.9043 10.9965 20.8696C11.0231 20.8348 11.0426 20.7952 11.0539 20.7529C11.0652 20.7106 11.068 20.6664 11.0622 20.6231C11.0564 20.5797 11.042 20.5378 11.02 20.5ZM7.33337 18.3333C7.33337 18.4217 7.36849 18.5065 7.431 18.569C7.49352 18.6315 7.5783 18.6667 7.66671 18.6667C7.75511 18.6667 7.8399 18.6315 7.90241 18.569C7.96492 18.5065 8.00004 18.4217 8.00004 18.3333V16.9113L9.23204 17.6227C9.26999 17.6446 9.31188 17.6588 9.35532 17.6644C9.39876 17.6701 9.4429 17.6672 9.48521 17.6559C9.52752 17.6445 9.56718 17.6249 9.60193 17.5982C9.63667 17.5716 9.66582 17.5383 9.68771 17.5003C9.70959 17.4624 9.72379 17.4205 9.72949 17.3771C9.73518 17.3336 9.73227 17.2895 9.72091 17.2472C9.70955 17.2049 9.68997 17.1652 9.66328 17.1304C9.63659 17.0957 9.60332 17.0666 9.56537 17.0447L8.33337 16.3333L9.56537 15.622C9.63756 15.5756 9.68912 15.5032 9.70938 15.4198C9.72963 15.3365 9.71701 15.2485 9.67415 15.1742C9.63128 15.0998 9.56145 15.0448 9.47914 15.0206C9.39682 14.9964 9.30834 15.0048 9.23204 15.044L8.00004 15.756V14.3333C8.00004 14.2449 7.96492 14.1601 7.90241 14.0976C7.8399 14.0351 7.75511 14 7.66671 14C7.5783 14 7.49352 14.0351 7.431 14.0976C7.36849 14.1601 7.33337 14.2449 7.33337 14.3333V15.7567L6.10071 15.0453C6.02406 15.0011 5.93299 14.9892 5.84754 15.0121C5.76208 15.0351 5.68924 15.091 5.64504 15.1677C5.60084 15.2443 5.58889 15.3354 5.61183 15.4208C5.63478 15.5063 5.69072 15.5791 5.76737 15.6233L6.99937 16.3347L5.76737 17.046C5.69072 17.0902 5.63478 17.163 5.61183 17.2485C5.58889 17.334 5.60084 17.425 5.64504 17.5017C5.68924 17.5783 5.76208 17.6343 5.84754 17.6572C5.93299 17.6801 6.02406 17.6682 6.10071 17.624L7.33337 16.9107V18.3333ZM15.8987 18.2893C15.9367 18.3112 15.9785 18.3254 16.022 18.3311C16.0654 18.3368 16.1096 18.3339 16.1519 18.3225C16.1942 18.3112 16.2338 18.2916 16.2686 18.2649C16.3033 18.2382 16.3325 18.205 16.3544 18.167C16.3763 18.129 16.3905 18.0872 16.3962 18.0437C16.4019 18.0003 16.3989 17.9561 16.3876 17.9138C16.3762 17.8715 16.3566 17.8319 16.3299 17.7971C16.3033 17.7624 16.27 17.7332 16.232 17.7113L15 17L16.232 16.2887C16.3042 16.2423 16.3558 16.1699 16.376 16.0865C16.3963 16.0031 16.3837 15.9152 16.3408 15.8408C16.2979 15.7665 16.2281 15.7115 16.1458 15.6873C16.0635 15.663 15.975 15.6714 15.8987 15.7107L14.6667 16.4227V15C14.6667 14.9116 14.6316 14.8268 14.5691 14.7643C14.5066 14.7018 14.4218 14.6667 14.3334 14.6667C14.245 14.6667 14.1602 14.7018 14.0977 14.7643C14.0352 14.8268 14 14.9116 14 15V16.4233L12.7674 15.712C12.7294 15.6901 12.6875 15.6759 12.6441 15.6702C12.6006 15.6645 12.5565 15.6674 12.5142 15.6788C12.4719 15.6902 12.4322 15.7097 12.3975 15.7364C12.3627 15.7631 12.3336 15.7964 12.3117 15.8343C12.2898 15.8723 12.2756 15.9142 12.2699 15.9576C12.2642 16.0011 12.2671 16.0452 12.2785 16.0875C12.2899 16.1298 12.3094 16.1695 12.3361 16.2042C12.3628 16.239 12.3961 16.2681 12.434 16.29L13.666 17.0013L12.434 17.7127C12.3574 17.7569 12.3014 17.8297 12.2785 17.9152C12.2556 18.0006 12.2675 18.0917 12.3117 18.1683C12.3559 18.245 12.4287 18.3009 12.5142 18.3239C12.5997 18.3468 12.6907 18.3349 12.7674 18.2907L14 17.5773V19C14 19.0884 14.0352 19.1732 14.0977 19.2357C14.1602 19.2982 14.245 19.3333 14.3334 19.3333C14.4218 19.3333 14.5066 19.2982 14.5691 19.2357C14.6316 19.1732 14.6667 19.0884 14.6667 19V17.578L15.8987 18.2893ZM22.8987 17.0447L21.6667 16.3333L22.8987 15.622C22.9709 15.5756 23.0225 15.5032 23.0427 15.4198C23.063 15.3365 23.0503 15.2485 23.0075 15.1742C22.9646 15.0998 22.8948 15.0448 22.8125 15.0206C22.7302 14.9964 22.6417 15.0048 22.5654 15.044L21.3334 15.756V14.3333C21.3334 14.2449 21.2983 14.1601 21.2357 14.0976C21.1732 14.0351 21.0884 14 21 14C20.9116 14 20.8268 14.0351 20.7643 14.0976C20.7018 14.1601 20.6667 14.2449 20.6667 14.3333V15.7567L19.434 15.0453C19.3574 15.0011 19.2663 14.9892 19.1809 15.0121C19.0954 15.0351 19.0226 15.091 18.9784 15.1677C18.9342 15.2443 18.9222 15.3354 18.9452 15.4208C18.9681 15.5063 19.0241 15.5791 19.1007 15.6233L20.3327 16.3347L19.1007 17.046C19.0241 17.0902 18.9681 17.163 18.9452 17.2485C18.9222 17.334 18.9342 17.425 18.9784 17.5017C19.0226 17.5783 19.0954 17.6343 19.1809 17.6572C19.2663 17.6801 19.3574 17.6682 19.434 17.624L20.6667 16.9107V18.3333C20.6667 18.4217 20.7018 18.5065 20.7643 18.569C20.8268 18.6315 20.9116 18.6667 21 18.6667C21.0884 18.6667 21.1732 18.6315 21.2357 18.569C21.2983 18.5065 21.3334 18.4217 21.3334 18.3333V16.9113L22.5654 17.6227C22.6417 17.6619 22.7302 17.6703 22.8125 17.6461C22.8948 17.6218 22.9646 17.5668 23.0075 17.4925C23.0503 17.4182 23.063 17.3302 23.0427 17.2468C23.0225 17.1634 22.9709 17.0911 22.8987 17.0447ZM19.6867 20.5C19.6425 20.4234 19.5697 20.3676 19.4843 20.3447C19.3989 20.3218 19.3079 20.3338 19.2314 20.378L18 21.0893V19.6667C18 19.5783 17.9649 19.4935 17.9024 19.431C17.8399 19.3685 17.7551 19.3333 17.6667 19.3333C17.5783 19.3333 17.4935 19.3685 17.431 19.431C17.3685 19.4935 17.3334 19.5783 17.3334 19.6667V21.09L16.1007 20.3787C16.0241 20.3345 15.933 20.3225 15.8475 20.3455C15.7621 20.3684 15.6892 20.4244 15.645 20.501C15.6008 20.5776 15.5889 20.6687 15.6118 20.7542C15.6348 20.8396 15.6907 20.9125 15.7674 20.9567L16.9994 21.668L15.7674 22.3793C15.7294 22.4012 15.6962 22.4304 15.6695 22.4651C15.6428 22.4999 15.6232 22.5395 15.6118 22.5818C15.5889 22.6673 15.6008 22.7584 15.645 22.835C15.6892 22.9116 15.7621 22.9676 15.8475 22.9905C15.933 23.0135 16.0241 23.0015 16.1007 22.9573L17.3334 22.244V23.6667C17.3334 23.7551 17.3685 23.8399 17.431 23.9024C17.4935 23.9649 17.5783 24 17.6667 24C17.7551 24 17.8399 23.9649 17.9024 23.9024C17.9649 23.8399 18 23.7551 18 23.6667V22.2447L19.232 22.956C19.27 22.9779 19.3119 22.9921 19.3553 22.9978C19.3988 23.0035 19.4429 23.0006 19.4852 22.9892C19.5275 22.9778 19.5672 22.9583 19.6019 22.9316C19.6367 22.9049 19.6658 22.8716 19.6877 22.8337C19.7096 22.7957 19.7238 22.7538 19.7295 22.7104C19.7352 22.6669 19.7323 22.6228 19.7209 22.5805C19.7096 22.5382 19.69 22.4985 19.6633 22.4638C19.6366 22.429 19.6033 22.3999 19.5654 22.378L18.3334 21.6667L19.5654 20.9553C19.6033 20.9335 19.6365 20.9043 19.6631 20.8696C19.6898 20.8348 19.7093 20.7952 19.7206 20.7529C19.7318 20.7106 19.7346 20.6664 19.7288 20.6231C19.723 20.5797 19.7087 20.5378 19.6867 20.5Z" fill="#5DADEC"/>
</g>
<defs>
<clipPath id="clip0_241_2130">
<rect width="24" height="24" fill="white"/>
</clipPath>
</defs>
</svg>
