<svg width="19" height="19" viewBox="0 0 19 19" fill="none" xmlns="http://www.w3.org/2000/svg">
<path fill-rule="evenodd" clip-rule="evenodd" d="M12.6748 2.00001L12.6768 2C14.0239 2 15.3077 2.55335 16.247 3.52876L16.2482 3.52996C17.1808 4.50271 17.7004 5.79882 17.698 7.14636C17.7007 8.49383 17.1814 9.78999 16.249 10.7629L16.2474 10.7646C15.6539 11.38 15.0598 12.0109 14.4617 12.6461C13.2414 13.942 12.0045 15.2556 10.7229 16.4902L10.7182 16.4947C9.9844 17.1893 8.82281 17.1651 8.12016 16.4371L2.64876 10.7655C0.715372 8.76105 0.714625 5.53445 2.64719 3.52992C3.10776 3.04697 3.66151 2.66244 4.27495 2.3996C4.88913 2.13644 5.55035 2.00075 6.21854 2.00075C6.88672 2.00075 7.54794 2.13644 8.16212 2.3996C8.63062 2.60033 9.0643 2.87205 9.44825 3.20438C9.83237 2.87296 10.2658 2.60182 10.7338 2.40118C11.3472 2.1382 12.0074 2.00175 12.6748 2.00001ZM15.1659 4.56851C14.505 3.88262 13.61 3.50027 12.6778 3.5C12.2126 3.50135 11.7524 3.59652 11.3248 3.77983C10.897 3.96326 10.5105 4.23118 10.1887 4.56753L10.1859 4.57041L9.98715 4.77591C9.84601 4.92183 9.65175 5.00431 9.44874 5.0045C9.24573 5.00469 9.05132 4.92258 8.90991 4.77692L8.7055 4.56636C8.38469 4.22963 7.99887 3.96154 7.57137 3.77837C7.14387 3.5952 6.68363 3.50075 6.21854 3.50075C5.75345 3.50075 5.29321 3.5952 4.86571 3.77837C4.43821 3.96154 4.05236 4.22961 3.73155 4.56634L3.72824 4.56981C2.35497 5.9929 2.35479 8.30002 3.72831 9.72404C3.7283 9.72403 3.72832 9.72405 3.72831 9.72404L9.19942 15.3954C9.32873 15.5294 9.54737 15.5357 9.68522 15.407C10.9404 14.1977 12.1314 12.9327 13.3352 11.6541C13.9393 11.0124 14.5466 10.3674 15.1668 9.72425C15.1671 9.72395 15.1674 9.72365 15.1677 9.72336L15.7075 10.244L15.166 9.72509C15.1663 9.72481 15.1666 9.72453 15.1668 9.72425C15.8306 9.03114 16.2002 8.10789 16.198 7.14818V7.14495C16.2 6.18498 15.8301 5.26157 15.1659 4.56851ZM15.1659 4.56851C15.1661 4.56876 15.1663 4.569 15.1666 4.56924L15.7068 4.04901L15.1659 4.56851C15.166 4.56867 15.1657 4.56836 15.1659 4.56851Z" fill="#73787E"/>
</svg>
